{
.appVersion = "1075";
copyright = "Copyright 2018 The Jacques Francois Project Authors (https://github.com/cyrealtype/Jacques-Francois)";
customParameters = (
{
name = license;
value = "This Font Software is licensed under the SIL Open Font License, Version 1.1. This license is available with a FAQ at: http://scripts.sil.org/OFL";
},
{
name = licenseURL;
value = "http://scripts.sil.org/OFL";
},
{
name = fsType;
value = (
);
},
{
name = "Use Typo Metrics";
value = 1;
},
{
name = "Disable Last Change";
value = 1;
},
{
name = "Use Line Breaks";
value = 1;
}
);
date = "2018-02-12 11:50:07 +0000";
designer = "Manvel Shmavonyan, Alexei Vanyashin";
designerURL = "http://new.myfonts.com/person/Manvel_Shmavonyan/";
disablesAutomaticAlignment = 1;
familyName = "Jacques Francois";
fontMaster = (
{
alignmentZones = (
"{1462, 41}",
"{0, 0}",
"{0, -41}"
);
ascender = 1520;
capHeight = 1464;
customParameters = (
{
name = typoDescender;
value = 606;
},
{
name = typoLineGap;
value = 0;
},
{
name = hheaLineGap;
value = 0;
},
{
name = hheaAscender;
value = 2095;
},
{
name = typoAscender;
value = 2095;
},
{
name = hheaDescender;
value = -606;
},
{
name = winDescent;
value = 565;
},
{
name = winAscent;
value = 2054;
}
);
descender = -512;
horizontalStems = (
43,
49,
71,
80,
90
);
id = UUID0;
verticalStems = (
276,
117,
137,
176
);
xHeight = 879;
}
);
glyphs = (
{
glyphname = A;
layers = (
{
background = {
paths = (
{
closed = 1;
nodes = (
"829 862 OFFCURVE",
"879 813 OFFCURVE",
"936 813 CURVE SMOOTH",
"993 813 OFFCURVE",
"1042 862 OFFCURVE",
"1042 920 CURVE SMOOTH",
"1042 977 OFFCURVE",
"993 1026 OFFCURVE",
"936 1026 CURVE SMOOTH",
"879 1026 OFFCURVE",
"829 977 OFFCURVE",
"829 920 CURVE SMOOTH"
);
},
{
closed = 1;
nodes = (
"1034 -4 OFFCURVE",
"1157 0 OFFCURVE",
"1266 0 CURVE SMOOTH",
"1374 0 OFFCURVE",
"1497 -4 OFFCURVE",
"1606 -8 CURVE",
"1610 2 OFFCURVE",
"1610 8 OFFCURVE",
"1610 14 CURVE SMOOTH",
"1610 23 OFFCURVE",
"1608 33 OFFCURVE",
"1606 41 CURVE",
"1530 49 OFFCURVE",
"1421 63 OFFCURVE",
"1393 133 CURVE SMOOTH",
"840 1499 LINE",
"827 1497 OFFCURVE",
"815 1491 OFFCURVE",
"807 1485 CURVE",
"797 1395 OFFCURVE",
"760 1339 OFFCURVE",
"680 1286 CURVE",
"702 1227 LINE",
"272 143 LINE SMOOTH",
"248 78 OFFCURVE",
"139 53 OFFCURVE",
"35 41 CURVE",
"33 35 OFFCURVE",
"31 25 OFFCURVE",
"31 16 CURVE SMOOTH",
"31 10 OFFCURVE",
"33 -2 OFFCURVE",
"35 -8 CURVE",
"147 -4 OFFCURVE",
"244 0 OFFCURVE",
"313 0 CURVE SMOOTH",
"383 0 OFFCURVE",
"453 -4 OFFCURVE",
"565 -8 CURVE",
"567 0 OFFCURVE",
"569 8 OFFCURVE",
"569 14 CURVE SMOOTH",
"569 23 OFFCURVE",
"567 33 OFFCURVE",
"565 41 CURVE",
"485 51 OFFCURVE",
"371 57 OFFCURVE",
"371 121 CURVE SMOOTH",
"371 133 LINE",
"524 522 LINE",
"635 524 OFFCURVE",
"717 526 OFFCURVE",
"799 526 CURVE SMOOTH",
"854 526 OFFCURVE",
"911 526 OFFCURVE",
"977 524 CURVE",
"1122 152 LINE SMOOTH",
"1124 143 OFFCURVE",
"1126 123 OFFCURVE",
"1126 117 CURVE SMOOTH",
"1126 68 OFFCURVE",
"997 49 OFFCURVE",
"924 41 CURVE",
"922 35 OFFCURVE",
"920 25 OFFCURVE",
"920 16 CURVE SMOOTH",
"920 10 OFFCURVE",
"922 -2 OFFCURVE",
"924 -8 CURVE"
);
},
{
closed = 1;
nodes = (
"727 604 OFFCURVE",
"653 604 OFFCURVE",
"559 608 CURVE",
"750 1098 LINE",
"754 1098 LINE",
"944 606 LINE",
"891 604 OFFCURVE",
"846 604 OFFCURVE",
"799 604 CURVE SMOOTH"
);
}
);
};
layerId = UUID0;
paths = (
{
closed = 1;
nodes = (
"1034 -4 OFFCURVE",
"1151 0 OFFCURVE",
"1260 0 CURVE SMOOTH",
"1368 0 OFFCURVE",
"1475 -4 OFFCURVE",
"1583 -8 CURVE",
"1587 2 OFFCURVE",
"1587 8 OFFCURVE",
"1587 14 CURVE SMOOTH",
"1587 23 OFFCURVE",
"1585 33 OFFCURVE",
"1583 41 CURVE",
"1507 49 OFFCURVE",
"1399 63 OFFCURVE",
"1370 133 CURVE SMOOTH",
"823 1499 LINE",
"811 1497 OFFCURVE",
"799 1491 OFFCURVE",
"791 1485 CURVE",
"780 1395 OFFCURVE",
"760 1339 OFFCURVE",
"680 1286 CURVE",
"702 1227 LINE",
"272 143 LINE SMOOTH",
"248 78 OFFCURVE",
"139 53 OFFCURVE",
"35 41 CURVE",
"33 35 OFFCURVE",
"31 25 OFFCURVE",
"31 16 CURVE SMOOTH",
"31 10 OFFCURVE",
"33 -2 OFFCURVE",
"35 -8 CURVE",
"147 -4 OFFCURVE",
"244 0 OFFCURVE",
"313 0 CURVE SMOOTH",
"383 0 OFFCURVE",
"453 -4 OFFCURVE",
"565 -8 CURVE",
"567 0 OFFCURVE",
"569 8 OFFCURVE",
"569 14 CURVE SMOOTH",
"569 23 OFFCURVE",
"567 33 OFFCURVE",
"565 41 CURVE",
"485 51 OFFCURVE",
"371 57 OFFCURVE",
"371 121 CURVE SMOOTH",
"371 133 LINE",
"524 522 LINE",
"635 524 OFFCURVE",
"717 526 OFFCURVE",
"799 526 CURVE SMOOTH",
"854 526 OFFCURVE",
"911 526 OFFCURVE",
"977 524 CURVE",
"1122 152 LINE SMOOTH",
"1124 143 OFFCURVE",
"1126 123 OFFCURVE",
"1126 117 CURVE SMOOTH",
"1126 68 OFFCURVE",
"997 49 OFFCURVE",
"924 41 CURVE",
"922 35 OFFCURVE",
"920 25 OFFCURVE",
"920 16 CURVE SMOOTH",
"920 10 OFFCURVE",
"922 -2 OFFCURVE",
"924 -8 CURVE"
);
},
{
closed = 1;
nodes = (
"727 604 OFFCURVE",
"653 604 OFFCURVE",
"559 608 CURVE",
"750 1098 LINE",
"754 1098 LINE",
"944 606 LINE",
"891 604 OFFCURVE",
"846 604 OFFCURVE",
"799 604 CURVE SMOOTH"
);
}
);
width = 1628;
}
);
unicode = 0041;
},
{
glyphname = AE;
layers = (
{
hints = (
{
place = "{1335, -176}";
},
{
place = "{1718, 68}";
},
{
place = "{1989, 69}";
},
{
horizontal = 1;
place = "{1434, -80}";
},
{
horizontal = 1;
place = "{686, 80}";
},
{
horizontal = 1;
place = "{432, 80}";
},
{
horizontal = 1;
place = "{0, 80}";
}
);
layerId = UUID0;
paths = (
{
closed = 1;
nodes = (
"2109 0 LINE",
"2128 150 OFFCURVE",
"2195 258 OFFCURVE",
"2257 373 CURVE",
"2251 385 OFFCURVE",
"2238 393 OFFCURVE",
"2222 399 CURVE",
"2132 231 OFFCURVE",
"1958 88 OFFCURVE",
"1550 61 CURVE",
"1272 61 LINE",
"1266 324 OFFCURVE",
"1262 510 OFFCURVE",
"1262 694 CURVE",
"1262 702 LINE",
"1505 702 LINE",
"1683 702 OFFCURVE",
"1737 549 OFFCURVE",
"1823 393 CURVE",
"1839 399 OFFCURVE",
"1855 408 OFFCURVE",
"1862 420 CURVE",
"1806 514 OFFCURVE",
"1761 623 OFFCURVE",
"1761 733 CURVE SMOOTH",
"1761 815 OFFCURVE",
"1806 950 OFFCURVE",
"1862 1047 CURVE",
"1855 1059 OFFCURVE",
"1839 1067 OFFCURVE",
"1823 1073 CURVE",
"1735 905 OFFCURVE",
"1683 764 OFFCURVE",
"1505 764 CURVE",
"1262 764 LINE",
"1262 952 OFFCURVE",
"1266 1141 OFFCURVE",
"1274 1401 CURVE",
"1509 1401 LINE",
"1917 1374 OFFCURVE",
"2091 1231 OFFCURVE",
"2181 1063 CURVE",
"2198 1069 OFFCURVE",
"2210 1077 OFFCURVE",
"2216 1090 CURVE",
"2154 1196 OFFCURVE",
"2087 1321 OFFCURVE",
"2068 1470 CURVE",
"1790 1462 OFFCURVE",
"1552 1464 OFFCURVE",
"1274 1462 CURVE",
"1159 1462 LINE",
"1040 1462 OFFCURVE",
"922 1466 OFFCURVE",
"809 1470 CURVE",
"807 1462 OFFCURVE",
"805 1456 OFFCURVE",
"805 1448 CURVE SMOOTH",
"805 1440 OFFCURVE",
"807 1432 OFFCURVE",
"809 1423 CURVE",
"858 1417 OFFCURVE",
"926 1411 OFFCURVE",
"975 1393 CURVE",
"238 143 LINE SMOOTH",
"201 82 OFFCURVE",
"109 53 OFFCURVE",
"4 41 CURVE",
"2 35 OFFCURVE",
"0 25 OFFCURVE",
"0 16 CURVE SMOOTH",
"0 10 OFFCURVE",
"2 -2 OFFCURVE",
"4 -8 CURVE",
"117 -4 OFFCURVE",
"213 0 OFFCURVE",
"283 0 CURVE SMOOTH",
"352 0 OFFCURVE",
"422 -4 OFFCURVE",
"535 -8 CURVE",
"537 0 OFFCURVE",
"539 8 OFFCURVE",
"539 14 CURVE SMOOTH",
"539 23 OFFCURVE",
"537 33 OFFCURVE",
"535 41 CURVE",
"455 51 OFFCURVE",
"332 49 OFFCURVE",
"332 113 CURVE SMOOTH",
"332 117 OFFCURVE",
"338 135 OFFCURVE",
"342 145 CURVE",
"668 702 LINE",
"1051 702 LINE",
"1049 512 OFFCURVE",
"1044 324 OFFCURVE",
"1038 137 CURVE",
"1036 63 OFFCURVE",
"893 49 OFFCURVE",
"807 41 CURVE",
"805 31 OFFCURVE",
"803 23 OFFCURVE",
"803 14 CURVE SMOOTH",
"803 8 OFFCURVE",
"805 0 OFFCURVE",
"807 -6 CURVE",
"936 -2 OFFCURVE",
"1137 0 OFFCURVE",
"1272 0 CURVE"
);
},
{
closed = 1;
nodes = (
"1040 1335 LINE",
"1049 1147 OFFCURVE",
"1051 952 OFFCURVE",
"1051 768 CURVE",
"1051 764 LINE",
"705 764 LINE",
"1036 1335 LINE"
);
}
);
width = 2298;
}
);
unicode = 00C6;
},
{
glyphname = B;
layers = (
{
hints = (
{
place = "{313, 277}";
},
{
place = "{967, 299}";
},
{
place = "{1145, 319}";
},
{
place = "{602, -289}";
},
{
horizontal = 1;
place = "{-12, 43}";
},
{
horizontal = 1;
place = "{-10, 43}";
},
{
horizontal = 1;
place = "{0, -20}";
target = down;
type = TopGhost;
}
);
layerId = UUID0;
paths = (
{
closed = 1;
nodes = (
"307 63 OFFCURVE",
"162 49 OFFCURVE",
"76 41 CURVE",
"74 31 OFFCURVE",
"72 23 OFFCURVE",
"72 14 CURVE SMOOTH",
"72 8 OFFCURVE",
"74 0 OFFCURVE",
"76 -6 CURVE",
"205 -2 OFFCURVE",
"406 0 OFFCURVE",
"541 0 CURVE SMOOTH",
"844 0 OFFCURVE",
"1378 27 OFFCURVE",
"1378 451 CURVE SMOOTH",
"1378 684 OFFCURVE",
"1196 821 OFFCURVE",
"993 858 CURVE",
"993 866 LINE",
"1100 911 OFFCURVE",
"1212 993 OFFCURVE",
"1212 1141 CURVE SMOOTH",
"1212 1440 OFFCURVE",
"891 1470 OFFCURVE",
"672 1470 CURVE SMOOTH",
"639 1470 OFFCURVE",
"573 1462 OFFCURVE",
"428 1462 CURVE SMOOTH",
"309 1462 OFFCURVE",
"190 1464 OFFCURVE",
"78 1468 CURVE",
"76 1460 OFFCURVE",
"74 1454 OFFCURVE",
"74 1446 CURVE SMOOTH",
"74 1438 OFFCURVE",
"76 1430 OFFCURVE",
"78 1421 CURVE",
"164 1413 OFFCURVE",
"307 1401 OFFCURVE",
"309 1327 CURVE SMOOTH",
"317 1139 OFFCURVE",
"319 952 OFFCURVE",
"319 768 CURVE SMOOTH",
"319 557 OFFCURVE",
"315 346 OFFCURVE",
"307 137 CURVE"
);
},
{
closed = 1;
nodes = (
"530 694 LINE",
"530 768 LINE",
"569 772 OFFCURVE",
"606 774 OFFCURVE",
"645 774 CURVE SMOOTH",
"913 774 OFFCURVE",
"1114 684 OFFCURVE",
"1114 446 CURVE SMOOTH",
"1114 100 OFFCURVE",
"815 68 OFFCURVE",
"541 68 CURVE"
);
},
{
closed = 1;
nodes = (
"543 1399 LINE",
"580 1403 OFFCURVE",
"614 1405 OFFCURVE",
"629 1405 CURVE SMOOTH",
"803 1405 OFFCURVE",
"938 1333 OFFCURVE",
"938 1141 CURVE SMOOTH",
"938 946 OFFCURVE",
"819 829 OFFCURVE",
"530 829 CURVE"
);
}
);
width = 1481;
}
);
unicode = 0042;
},
{
glyphname = C;
layers = (
{
hints = (
{
place = "{123, 309}";
},
{
horizontal = 1;
place = "{10, 111}";
},
{
horizontal = 1;
place = "{1516, 45}";
}
);
layerId = UUID0;
paths = (
{
closed = 1;
nodes = (
"133 135 OFFCURVE",
"596 -41 OFFCURVE",
"891 -41 CURVE SMOOTH",
"1071 -41 OFFCURVE",
"1323 41 OFFCURVE",
"1454 233 CURVE",
"1454 250 OFFCURVE",
"1438 264 OFFCURVE",
"1417 264 CURVE",
"1315 139 OFFCURVE",
"1159 82 OFFCURVE",
"977 82 CURVE SMOOTH",
"571 82 OFFCURVE",
"397 389 OFFCURVE",
"397 729 CURVE SMOOTH",
"397 1036 OFFCURVE",
"516 1432 OFFCURVE",
"891 1432 CURVE SMOOTH",
"1235 1432 OFFCURVE",
"1364 1171 OFFCURVE",
"1458 963 CURVE",
"1473 965 OFFCURVE",
"1491 973 OFFCURVE",
"1495 985 CURVE",
"1454 1085 OFFCURVE",
"1442 1204 OFFCURVE",
"1442 1292 CURVE SMOOTH",
"1442 1350 OFFCURVE",
"1446 1395 OFFCURVE",
"1454 1419 CURVE",
"1280 1440 OFFCURVE",
"1145 1503 OFFCURVE",
"891 1503 CURVE SMOOTH",
"596 1503 OFFCURVE",
"133 1323 OFFCURVE",
"133 729 CURVE SMOOTH"
);
}
);
width = 1552;
}
);
unicode = 0043;
},
{
glyphname = D;
layers = (
{
hints = (
{
place = "{293, 276}";
},
{
place = "{1378, 320}";
},
{
place = "{580, -287}";
},
{
horizontal = 1;
place = "{1581, -20}";
target = down;
type = TopGhost;
},
{
horizontal = 1;
place = "{1579, -20}";
target = down;
type = TopGhost;
}
);
layerId = UUID0;
paths = (
{
closed = 1;
nodes = (
"307 63 OFFCURVE",
"162 49 OFFCURVE",
"76 41 CURVE",
"74 31 OFFCURVE",
"72 23 OFFCURVE",
"72 14 CURVE SMOOTH",
"72 8 OFFCURVE",
"74 0 OFFCURVE",
"76 -6 CURVE",
"205 -2 OFFCURVE",
"406 0 OFFCURVE",
"541 0 CURVE SMOOTH",
"645 0 LINE SMOOTH",
"1057 0 OFFCURVE",
"1550 150 OFFCURVE",
"1587 739 CURVE",
"1587 1354 OFFCURVE",
"1149 1470 OFFCURVE",
"743 1470 CURVE SMOOTH",
"612 1470 OFFCURVE",
"561 1466 OFFCURVE",
"436 1462 CURVE SMOOTH",
"428 1462 LINE SMOOTH",
"309 1462 OFFCURVE",
"190 1466 OFFCURVE",
"78 1470 CURVE",
"76 1462 OFFCURVE",
"74 1456 OFFCURVE",
"74 1448 CURVE SMOOTH",
"74 1440 OFFCURVE",
"76 1432 OFFCURVE",
"78 1423 CURVE",
"164 1415 OFFCURVE",
"307 1401 OFFCURVE",
"309 1327 CURVE",
"317 1139 OFFCURVE",
"319 952 OFFCURVE",
"319 768 CURVE SMOOTH",
"319 557 OFFCURVE",
"315 346 OFFCURVE",
"307 137 CURVE"
);
},
{
closed = 1;
nodes = (
"543 1386 LINE",
"602 1395 OFFCURVE",
"672 1399 OFFCURVE",
"731 1399 CURVE SMOOTH",
"1196 1399 OFFCURVE",
"1323 1026 OFFCURVE",
"1323 739 CURVE SMOOTH",
"1323 350 OFFCURVE",
"1104 72 OFFCURVE",
"664 72 CURVE SMOOTH",
"625 72 OFFCURVE",
"584 72 OFFCURVE",
"541 74 CURVE",
"535 324 OFFCURVE",
"530 510 OFFCURVE",
"530 694 CURVE SMOOTH",
"530 907 OFFCURVE",
"535 1118 OFFCURVE",
"543 1327 CURVE"
);
}
);
width = 1720;
}
);
unicode = 0044;
},
{
glyphname = Eth;
layers = (
{
hints = (
{
place = "{328, 200}";
},
{
place = "{1518, 231}";
},
{
place = "{293, 276}";
},
{
place = "{1378, 320}";
},
{
place = "{580, -287}";
},
{
horizontal = 1;
place = "{0, 90}";
},
{
horizontal = 1;
place = "{784, 90}";
},
{
horizontal = 1;
place = "{1530, 90}";
},
{
horizontal = 1;
place = "{1581, -20}";
target = down;
type = TopGhost;
},
{
horizontal = 1;
place = "{1579, -20}";
target = down;
type = TopGhost;
}
);
layerId = UUID0;
paths = (
{
closed = 1;
nodes = (
"74 31 OFFCURVE",
"72 23 OFFCURVE",
"72 14 CURVE SMOOTH",
"72 8 OFFCURVE",
"74 0 OFFCURVE",
"76 -6 CURVE",
"205 -2 OFFCURVE",
"406 0 OFFCURVE",
"541 0 CURVE SMOOTH",
"645 0 LINE SMOOTH",
"1057 0 OFFCURVE",
"1550 150 OFFCURVE",
"1587 739 CURVE",
"1587 1354 OFFCURVE",
"1149 1470 OFFCURVE",
"743 1470 CURVE SMOOTH",
"612 1470 OFFCURVE",
"561 1466 OFFCURVE",
"436 1462 CURVE SMOOTH",
"428 1462 LINE SMOOTH",
"309 1462 OFFCURVE",
"190 1466 OFFCURVE",
"78 1470 CURVE",
"76 1462 OFFCURVE",
"74 1456 OFFCURVE",
"74 1448 CURVE SMOOTH",
"74 1440 OFFCURVE",
"76 1432 OFFCURVE",
"78 1423 CURVE",
"164 1415 OFFCURVE",
"307 1401 OFFCURVE",
"309 1327 CURVE SMOOTH",
"317 1139 OFFCURVE",
"319 952 OFFCURVE",
"319 768 CURVE",
"319 766 LINE",
"240 768 OFFCURVE",
"160 770 OFFCURVE",
"82 774 CURVE",
"82 678 LINE",
"160 680 OFFCURVE",
"240 682 OFFCURVE",
"319 682 CURVE",
"317 500 OFFCURVE",
"313 317 OFFCURVE",
"307 137 CURVE",
"305 63 OFFCURVE",
"162 49 OFFCURVE",
"76 41 CURVE"
);
},
{
closed = 1;
nodes = (
"541 137 LINE",
"535 319 OFFCURVE",
"530 502 OFFCURVE",
"530 684 CURVE",
"643 684 OFFCURVE",
"756 680 OFFCURVE",
"868 678 CURVE",
"868 774 LINE",
"756 768 OFFCURVE",
"643 766 OFFCURVE",
"530 766 CURVE",
"530 954 OFFCURVE",
"535 1141 OFFCURVE",
"543 1386 CURVE",
"602 1395 OFFCURVE",
"672 1399 OFFCURVE",
"731 1399 CURVE SMOOTH",
"1196 1399 OFFCURVE",
"1323 1026 OFFCURVE",
"1323 739 CURVE SMOOTH",
"1323 350 OFFCURVE",
"1104 72 OFFCURVE",
"664 72 CURVE SMOOTH",
"625 72 OFFCURVE",
"584 72 OFFCURVE",
"541 74 CURVE"
);
}
);
width = 1720;
}
);
unicode = 00D0;
},
{
glyphname = E;
layers = (
{
layerId = UUID0;
paths = (
{
closed = 1;
nodes = (
"1419 0 LINE",
"1438 150 OFFCURVE",
"1505 258 OFFCURVE",
"1567 373 CURVE",
"1561 385 OFFCURVE",
"1548 393 OFFCURVE",
"1532 399 CURVE",
"1442 231 OFFCURVE",
"1268 88 OFFCURVE",
"860 61 CURVE",
"541 61 LINE",
"535 324 OFFCURVE",
"530 510 OFFCURVE",
"530 694 CURVE",
"530 702 LINE",
"815 702 LINE",
"993 702 OFFCURVE",
"1047 549 OFFCURVE",
"1133 393 CURVE",
"1149 399 OFFCURVE",
"1165 408 OFFCURVE",
"1171 420 CURVE",
"1116 514 OFFCURVE",
"1071 623 OFFCURVE",
"1071 733 CURVE SMOOTH",
"1071 815 OFFCURVE",
"1116 950 OFFCURVE",
"1171 1047 CURVE",
"1165 1059 OFFCURVE",
"1149 1067 OFFCURVE",
"1133 1073 CURVE",
"1044 905 OFFCURVE",
"993 764 OFFCURVE",
"815 764 CURVE",
"530 764 LINE",
"530 952 OFFCURVE",
"535 1141 OFFCURVE",
"543 1401 CURVE",
"819 1401 LINE",
"1227 1374 OFFCURVE",
"1401 1231 OFFCURVE",
"1491 1063 CURVE",
"1507 1069 OFFCURVE",
"1520 1077 OFFCURVE",
"1526 1090 CURVE",
"1464 1196 OFFCURVE",
"1397 1321 OFFCURVE",
"1378 1470 CURVE",
"1100 1462 OFFCURVE",
"821 1464 OFFCURVE",
"543 1462 CURVE",
"428 1462 LINE",
"309 1462 OFFCURVE",
"190 1466 OFFCURVE",
"78 1470 CURVE",
"76 1462 OFFCURVE",
"74 1456 OFFCURVE",
"74 1448 CURVE SMOOTH",
"74 1440 OFFCURVE",
"76 1432 OFFCURVE",
"78 1423 CURVE",
"164 1415 OFFCURVE",
"307 1401 OFFCURVE",
"309 1327 CURVE SMOOTH",
"317 1139 OFFCURVE",
"319 952 OFFCURVE",
"319 768 CURVE SMOOTH",
"319 557 OFFCURVE",
"315 346 OFFCURVE",
"307 137 CURVE",
"305 63 OFFCURVE",
"162 49 OFFCURVE",
"76 41 CURVE",
"74 31 OFFCURVE",
"72 23 OFFCURVE",
"72 14 CURVE SMOOTH",
"72 8 OFFCURVE",
"74 0 OFFCURVE",
"76 -6 CURVE",
"205 -2 OFFCURVE",
"406 0 OFFCURVE",
"541 0 CURVE"
);
}
);
width = 1608;
}
);
unicode = 0045;
},
{
glyphname = F;
layers = (
{
layerId = UUID0;
paths = (
{
closed = 1;
nodes = (
"307 63 OFFCURVE",
"162 49 OFFCURVE",
"76 41 CURVE",
"74 31 OFFCURVE",
"72 23 OFFCURVE",
"72 14 CURVE SMOOTH",
"72 8 OFFCURVE",
"74 0 OFFCURVE",
"76 -6 CURVE",
"188 -2 OFFCURVE",
"305 0 OFFCURVE",
"424 0 CURVE SMOOTH",
"541 0 OFFCURVE",
"659 -2 OFFCURVE",
"772 -6 CURVE",
"774 0 OFFCURVE",
"776 8 OFFCURVE",
"776 14 CURVE SMOOTH",
"776 23 OFFCURVE",
"774 31 OFFCURVE",
"772 41 CURVE",
"686 49 OFFCURVE",
"543 63 OFFCURVE",
"541 137 CURVE",
"535 319 OFFCURVE",
"530 504 OFFCURVE",
"530 686 CURVE",
"815 686 LINE",
"969 686 OFFCURVE",
"1024 541 OFFCURVE",
"1092 377 CURVE",
"1108 383 OFFCURVE",
"1124 391 OFFCURVE",
"1130 403 CURVE",
"1094 498 OFFCURVE",
"1071 606 OFFCURVE",
"1071 717 CURVE SMOOTH",
"1071 825 OFFCURVE",
"1094 936 OFFCURVE",
"1130 1030 CURVE",
"1126 1042 OFFCURVE",
"1106 1049 OFFCURVE",
"1092 1055 CURVE",
"1014 887 OFFCURVE",
"969 748 OFFCURVE",
"815 748 CURVE",
"530 748 LINE",
"530 942 OFFCURVE",
"535 1135 OFFCURVE",
"543 1401 CURVE",
"797 1401 LINE",
"1204 1374 OFFCURVE",
"1378 1231 OFFCURVE",
"1468 1063 CURVE",
"1485 1069 OFFCURVE",
"1497 1077 OFFCURVE",
"1503 1090 CURVE",
"1442 1196 OFFCURVE",
"1374 1321 OFFCURVE",
"1356 1470 CURVE",
"1077 1462 OFFCURVE",
"821 1464 OFFCURVE",
"543 1462 CURVE",
"428 1462 LINE",
"309 1462 OFFCURVE",
"190 1464 OFFCURVE",
"78 1468 CURVE",
"76 1460 OFFCURVE",
"74 1454 OFFCURVE",
"74 1446 CURVE SMOOTH",
"74 1438 OFFCURVE",
"76 1430 OFFCURVE",
"78 1421 CURVE",
"164 1413 OFFCURVE",
"307 1401 OFFCURVE",
"309 1327 CURVE",
"317 1139 OFFCURVE",
"319 952 OFFCURVE",
"319 768 CURVE SMOOTH",
"319 557 OFFCURVE",
"315 346 OFFCURVE",
"307 137 CURVE"
);
}
);
width = 1503;
}
);
unicode = 0046;
},
{
glyphname = G;
layers = (
{
hints = (
{
place = "{123, 309}";
},
{
place = "{1196, 287}";
},
{
horizontal = 1;
place = "{1430, -20}";
target = down;
type = TopGhost;
}
);
layerId = UUID0;
paths = (
{
closed = 1;
nodes = (
"1491 1018 OFFCURVE",
"1509 1026 OFFCURVE",
"1513 1038 CURVE",
"1477 1133 OFFCURVE",
"1464 1227 OFFCURVE",
"1464 1303 CURVE SMOOTH",
"1464 1358 OFFCURVE",
"1470 1403 OFFCURVE",
"1479 1430 CURVE",
"1305 1450 OFFCURVE",
"1157 1503 OFFCURVE",
"903 1503 CURVE SMOOTH",
"608 1503 OFFCURVE",
"133 1343 OFFCURVE",
"133 729 CURVE SMOOTH",
"133 115 OFFCURVE",
"616 -41 OFFCURVE",
"911 -41 CURVE SMOOTH",
"1145 -41 OFFCURVE",
"1300 4 OFFCURVE",
"1495 76 CURVE",
"1466 154 OFFCURVE",
"1450 236 OFFCURVE",
"1450 387 CURVE SMOOTH",
"1450 535 LINE SMOOTH",
"1450 608 OFFCURVE",
"1595 623 OFFCURVE",
"1681 631 CURVE",
"1683 639 OFFCURVE",
"1686 647 OFFCURVE",
"1686 655 CURVE SMOOTH",
"1686 664 OFFCURVE",
"1683 670 OFFCURVE",
"1681 678 CURVE",
"1569 674 OFFCURVE",
"1450 670 OFFCURVE",
"1333 670 CURVE SMOOTH",
"1214 670 OFFCURVE",
"1098 674 OFFCURVE",
"985 678 CURVE",
"983 670 OFFCURVE",
"981 664 OFFCURVE",
"981 655 CURVE SMOOTH",
"981 647 OFFCURVE",
"983 639 OFFCURVE",
"985 631 CURVE",
"1071 623 OFFCURVE",
"1217 608 OFFCURVE",
"1217 535 CURVE SMOOTH",
"1217 129 LINE",
"1145 47 OFFCURVE",
"1018 31 OFFCURVE",
"911 31 CURVE SMOOTH",
"537 31 OFFCURVE",
"397 422 OFFCURVE",
"397 729 CURVE SMOOTH",
"397 1036 OFFCURVE",
"528 1432 OFFCURVE",
"903 1432 CURVE SMOOTH",
"1247 1432 OFFCURVE",
"1382 1225 OFFCURVE",
"1477 1016 CURVE"
);
}
);
width = 1737;
}
);
unicode = 0047;
},
{
glyphname = H;
layers = (
{
layerId = UUID0;
paths = (
{
closed = 1;
nodes = (
"1225 63 OFFCURVE",
"1079 49 OFFCURVE",
"993 41 CURVE",
"989 31 OFFCURVE",
"989 23 OFFCURVE",
"989 14 CURVE SMOOTH",
"989 8 OFFCURVE",
"991 0 OFFCURVE",
"993 -6 CURVE",
"1106 -2 OFFCURVE",
"1223 0 OFFCURVE",
"1341 0 CURVE SMOOTH",
"1458 0 OFFCURVE",
"1577 -2 OFFCURVE",
"1690 -6 CURVE",
"1692 0 OFFCURVE",
"1694 8 OFFCURVE",
"1694 14 CURVE SMOOTH",
"1694 23 OFFCURVE",
"1692 33 OFFCURVE",
"1690 41 CURVE",
"1604 49 OFFCURVE",
"1460 63 OFFCURVE",
"1458 137 CURVE",
"1450 336 OFFCURVE",
"1448 535 OFFCURVE",
"1448 731 CURVE SMOOTH",
"1448 930 OFFCURVE",
"1450 1128 OFFCURVE",
"1458 1327 CURVE",
"1460 1401 OFFCURVE",
"1604 1415 OFFCURVE",
"1690 1423 CURVE",
"1692 1432 OFFCURVE",
"1694 1440 OFFCURVE",
"1694 1448 CURVE SMOOTH",
"1694 1456 OFFCURVE",
"1692 1462 OFFCURVE",
"1690 1470 CURVE",
"1577 1466 OFFCURVE",
"1458 1462 OFFCURVE",
"1341 1462 CURVE SMOOTH",
"1223 1462 OFFCURVE",
"1106 1466 OFFCURVE",
"993 1470 CURVE",
"991 1462 OFFCURVE",
"989 1456 OFFCURVE",
"989 1448 CURVE SMOOTH",
"989 1440 OFFCURVE",
"991 1432 OFFCURVE",
"993 1423 CURVE",
"1079 1415 OFFCURVE",
"1223 1401 OFFCURVE",
"1225 1327 CURVE",
"1231 1143 OFFCURVE",
"1233 956 OFFCURVE",
"1235 772 CURVE",
"1112 768 OFFCURVE",
"989 766 OFFCURVE",
"866 766 CURVE SMOOTH",
"754 766 OFFCURVE",
"641 766 OFFCURVE",
"530 770 CURVE",
"530 958 OFFCURVE",
"535 1143 OFFCURVE",
"543 1327 CURVE",
"545 1401 OFFCURVE",
"688 1415 OFFCURVE",
"774 1423 CURVE",
"776 1432 OFFCURVE",
"778 1440 OFFCURVE",
"778 1448 CURVE SMOOTH",
"778 1456 OFFCURVE",
"776 1462 OFFCURVE",
"774 1470 CURVE",
"662 1466 OFFCURVE",
"543 1462 OFFCURVE",
"426 1462 CURVE SMOOTH",
"307 1462 OFFCURVE",
"190 1466 OFFCURVE",
"78 1470 CURVE",
"76 1464 OFFCURVE",
"74 1456 OFFCURVE",
"74 1448 CURVE SMOOTH",
"74 1440 OFFCURVE",
"76 1432 OFFCURVE",
"78 1423 CURVE",
"164 1415 OFFCURVE",
"307 1401 OFFCURVE",
"309 1327 CURVE",
"317 1139 OFFCURVE",
"319 952 OFFCURVE",
"319 768 CURVE SMOOTH",
"319 557 OFFCURVE",
"315 346 OFFCURVE",
"307 137 CURVE",
"305 63 OFFCURVE",
"162 49 OFFCURVE",
"76 41 CURVE",
"72 31 OFFCURVE",
"72 23 OFFCURVE",
"72 14 CURVE SMOOTH",
"72 8 OFFCURVE",
"74 0 OFFCURVE",
"76 -6 CURVE",
"188 -2 OFFCURVE",
"305 0 OFFCURVE",
"424 0 CURVE SMOOTH",
"541 0 OFFCURVE",
"659 -2 OFFCURVE",
"772 -6 CURVE",
"774 0 OFFCURVE",
"776 8 OFFCURVE",
"776 14 CURVE SMOOTH",
"776 23 OFFCURVE",
"774 31 OFFCURVE",
"772 41 CURVE",
"686 49 OFFCURVE",
"543 63 OFFCURVE",
"541 137 CURVE",
"535 317 OFFCURVE",
"530 500 OFFCURVE",
"530 680 CURVE",
"641 682 OFFCURVE",
"754 684 OFFCURVE",
"866 684 CURVE SMOOTH",
"989 684 OFFCURVE",
"1112 682 OFFCURVE",
"1235 678 CURVE",
"1233 500 OFFCURVE",
"1229 317 OFFCURVE",
"1225 137 CURVE"
);
}
);
width = 1765;
}
);
unicode = 0048;
},
{
glyphname = I;
layers = (
{
layerId = UUID0;
paths = (
{
closed = 1;
nodes = (
"307 63 OFFCURVE",
"162 49 OFFCURVE",
"76 41 CURVE",
"72 31 OFFCURVE",
"72 23 OFFCURVE",
"72 14 CURVE SMOOTH",
"72 8 OFFCURVE",
"74 0 OFFCURVE",
"76 -6 CURVE",
"188 -2 OFFCURVE",
"305 0 OFFCURVE",
"424 0 CURVE SMOOTH",
"541 0 OFFCURVE",
"659 -2 OFFCURVE",
"772 -6 CURVE",
"774 0 OFFCURVE",
"776 8 OFFCURVE",
"776 14 CURVE SMOOTH",
"776 23 OFFCURVE",
"776 29 OFFCURVE",
"772 41 CURVE",
"686 49 OFFCURVE",
"543 63 OFFCURVE",
"541 137 CURVE SMOOTH",
"535 324 OFFCURVE",
"530 510 OFFCURVE",
"530 694 CURVE SMOOTH",
"530 907 OFFCURVE",
"535 1118 OFFCURVE",
"543 1327 CURVE SMOOTH",
"545 1401 OFFCURVE",
"688 1415 OFFCURVE",
"774 1423 CURVE",
"776 1430 OFFCURVE",
"778 1440 OFFCURVE",
"778 1448 CURVE SMOOTH",
"778 1456 OFFCURVE",
"776 1462 OFFCURVE",
"774 1470 CURVE",
"662 1466 OFFCURVE",
"543 1462 OFFCURVE",
"426 1462 CURVE SMOOTH",
"307 1462 OFFCURVE",
"190 1466 OFFCURVE",
"78 1470 CURVE",
"76 1464 OFFCURVE",
"74 1456 OFFCURVE",
"74 1448 CURVE SMOOTH",
"74 1440 OFFCURVE",
"76 1432 OFFCURVE",
"78 1423 CURVE",
"164 1415 OFFCURVE",
"307 1401 OFFCURVE",
"309 1327 CURVE",
"317 1139 OFFCURVE",
"319 952 OFFCURVE",
"319 768 CURVE SMOOTH",
"319 557 OFFCURVE",
"315 346 OFFCURVE",
"307 137 CURVE"
);
}
);
width = 850;
}
);
unicode = 0049;
},
{
glyphname = J;
layers = (
{
hints = (
{
place = "{-174, 354}";
},
{
place = "{356, 299}";
},
{
place = "{369, 286}";
},
{
place = "{668, -312}";
},
{
horizontal = 1;
place = "{-532, 43}";
},
{
horizontal = 1;
place = "{1505, -20}";
target = down;
type = TopGhost;
}
);
layerId = UUID0;
paths = (
{
closed = 1;
nodes = (
"618 1401 OFFCURVE",
"764 1415 OFFCURVE",
"850 1423 CURVE",
"852 1430 OFFCURVE",
"854 1440 OFFCURVE",
"854 1448 CURVE SMOOTH",
"854 1456 OFFCURVE",
"852 1462 OFFCURVE",
"850 1470 CURVE",
"737 1466 OFFCURVE",
"618 1462 OFFCURVE",
"502 1462 CURVE SMOOTH",
"383 1462 OFFCURVE",
"260 1466 OFFCURVE",
"147 1470 CURVE",
"145 1464 OFFCURVE",
"143 1456 OFFCURVE",
"143 1448 CURVE SMOOTH",
"143 1440 OFFCURVE",
"145 1432 OFFCURVE",
"147 1423 CURVE",
"233 1415 OFFCURVE",
"377 1401 OFFCURVE",
"379 1327 CURVE",
"387 1100 OFFCURVE",
"389 901 OFFCURVE",
"389 55 CURVE SMOOTH",
"389 -303 OFFCURVE",
"360 -469 OFFCURVE",
"172 -469 CURVE SMOOTH",
"100 -469 OFFCURVE",
"61 -432 OFFCURVE",
"61 -383 CURVE SMOOTH",
"61 -367 OFFCURVE",
"170 -344 OFFCURVE",
"170 -246 CURVE SMOOTH",
"170 -156 OFFCURVE",
"98 -119 OFFCURVE",
"27 -119 CURVE SMOOTH",
"-66 -119 OFFCURVE",
"-133 -180 OFFCURVE",
"-133 -293 CURVE SMOOTH",
"-133 -412 OFFCURVE",
"-33 -532 OFFCURVE",
"172 -532 CURVE SMOOTH",
"578 -532 OFFCURVE",
"604 -96 OFFCURVE",
"612 573 CURVE SMOOTH",
"616 936 OFFCURVE",
"616 1120 OFFCURVE",
"618 1327 CURVE SMOOTH"
);
}
);
width = 905;
}
);
unicode = 004A;
},
{
glyphname = K;
layers = (
{
hints = (
{
place = "{285, 276}";
},
{
place = "{297, 264}";
},
{
horizontal = 1;
place = "{-20, 43}";
}
);
layerId = UUID0;
paths = (
{
closed = 1;
nodes = (
"307 63 OFFCURVE",
"162 49 OFFCURVE",
"76 41 CURVE",
"72 31 OFFCURVE",
"72 23 OFFCURVE",
"72 14 CURVE SMOOTH",
"72 8 OFFCURVE",
"74 0 OFFCURVE",
"76 -6 CURVE",
"188 -2 OFFCURVE",
"305 0 OFFCURVE",
"424 0 CURVE SMOOTH",
"541 0 OFFCURVE",
"659 -2 OFFCURVE",
"772 -6 CURVE",
"774 0 OFFCURVE",
"776 8 OFFCURVE",
"776 14 CURVE SMOOTH",
"776 23 OFFCURVE",
"776 29 OFFCURVE",
"772 41 CURVE",
"686 49 OFFCURVE",
"543 63 OFFCURVE",
"541 137 CURVE",
"535 324 OFFCURVE",
"530 510 OFFCURVE",
"530 694 CURVE",
"569 696 LINE",
"1057 190 LINE",
"1079 162 OFFCURVE",
"1110 137 OFFCURVE",
"1110 109 CURVE SMOOTH",
"1110 63 OFFCURVE",
"1083 45 OFFCURVE",
"950 41 CURVE",
"948 35 OFFCURVE",
"946 25 OFFCURVE",
"946 16 CURVE SMOOTH",
"946 10 OFFCURVE",
"948 -2 OFFCURVE",
"950 -8 CURVE",
"1061 -4 OFFCURVE",
"1221 0 OFFCURVE",
"1329 0 CURVE SMOOTH",
"1438 0 OFFCURVE",
"1540 -2 OFFCURVE",
"1649 -8 CURVE",
"1653 2 OFFCURVE",
"1653 8 OFFCURVE",
"1653 14 CURVE SMOOTH",
"1653 23 OFFCURVE",
"1651 33 OFFCURVE",
"1649 41 CURVE",
"1563 45 OFFCURVE",
"1473 96 OFFCURVE",
"1368 190 CURVE",
"733 836 LINE",
"1249 1327 LINE",
"1343 1405 OFFCURVE",
"1440 1415 OFFCURVE",
"1526 1423 CURVE",
"1528 1432 OFFCURVE",
"1530 1440 OFFCURVE",
"1530 1448 CURVE SMOOTH",
"1530 1456 OFFCURVE",
"1528 1462 OFFCURVE",
"1526 1470 CURVE",
"1413 1466 OFFCURVE",
"1368 1462 OFFCURVE",
"1251 1462 CURVE SMOOTH",
"1133 1462 OFFCURVE",
"1067 1466 OFFCURVE",
"954 1470 CURVE",
"952 1462 OFFCURVE",
"950 1456 OFFCURVE",
"950 1448 CURVE SMOOTH",
"950 1440 OFFCURVE",
"952 1432 OFFCURVE",
"954 1423 CURVE",
"1075 1415 OFFCURVE",
"1139 1409 OFFCURVE",
"1139 1356 CURVE SMOOTH",
"1139 1348 OFFCURVE",
"1133 1337 OFFCURVE",
"1126 1327 CURVE",
"559 780 LINE",
"530 780 LINE",
"530 965 OFFCURVE",
"535 1145 OFFCURVE",
"543 1327 CURVE",
"545 1401 OFFCURVE",
"688 1415 OFFCURVE",
"774 1423 CURVE",
"776 1430 OFFCURVE",
"778 1440 OFFCURVE",
"778 1448 CURVE SMOOTH",
"778 1456 OFFCURVE",
"776 1462 OFFCURVE",
"774 1470 CURVE",
"662 1466 OFFCURVE",
"543 1462 OFFCURVE",
"426 1462 CURVE SMOOTH",
"307 1462 OFFCURVE",
"190 1466 OFFCURVE",
"78 1470 CURVE",
"76 1464 OFFCURVE",
"74 1456 OFFCURVE",
"74 1448 CURVE SMOOTH",
"74 1440 OFFCURVE",
"76 1432 OFFCURVE",
"78 1423 CURVE",
"164 1415 OFFCURVE",
"307 1401 OFFCURVE",
"309 1327 CURVE",
"317 1139 OFFCURVE",
"319 952 OFFCURVE",
"319 768 CURVE SMOOTH",
"319 557 OFFCURVE",
"315 346 OFFCURVE",
"307 137 CURVE"
);
}
);
width = 1636;
}
);
unicode = 004B;
},
{
glyphname = L;
layers = (
{
hints = (
{
place = "{293, 276}";
},
{
place = "{305, 275}";
},
{
horizontal = 1;
place = "{1571, -20}";
target = down;
type = TopGhost;
}
);
layerId = UUID0;
paths = (
{
closed = 1;
nodes = (
"1409 0 LINE",
"1427 150 OFFCURVE",
"1495 279 OFFCURVE",
"1556 393 CURVE",
"1550 406 OFFCURVE",
"1538 414 OFFCURVE",
"1522 420 CURVE",
"1432 252 OFFCURVE",
"1257 88 OFFCURVE",
"850 61 CURVE",
"541 61 LINE",
"535 324 OFFCURVE",
"530 510 OFFCURVE",
"530 694 CURVE SMOOTH",
"530 907 OFFCURVE",
"535 1118 OFFCURVE",
"543 1327 CURVE",
"545 1401 OFFCURVE",
"688 1415 OFFCURVE",
"774 1423 CURVE",
"776 1432 OFFCURVE",
"778 1440 OFFCURVE",
"778 1448 CURVE SMOOTH",
"778 1456 OFFCURVE",
"776 1462 OFFCURVE",
"774 1470 CURVE",
"662 1466 OFFCURVE",
"543 1462 OFFCURVE",
"426 1462 CURVE SMOOTH",
"307 1462 OFFCURVE",
"190 1466 OFFCURVE",
"78 1470 CURVE",
"76 1464 OFFCURVE",
"74 1456 OFFCURVE",
"74 1448 CURVE SMOOTH",
"74 1440 OFFCURVE",
"76 1432 OFFCURVE",
"78 1423 CURVE",
"164 1415 OFFCURVE",
"307 1401 OFFCURVE",
"309 1327 CURVE",
"317 1139 OFFCURVE",
"319 952 OFFCURVE",
"319 768 CURVE SMOOTH",
"319 557 OFFCURVE",
"315 346 OFFCURVE",
"307 137 CURVE",
"305 63 OFFCURVE",
"162 49 OFFCURVE",
"76 41 CURVE",
"74 31 OFFCURVE",
"72 23 OFFCURVE",
"72 14 CURVE SMOOTH",
"72 8 OFFCURVE",
"74 0 OFFCURVE",
"76 -6 CURVE",
"205 -2 OFFCURVE",
"406 0 OFFCURVE",
"541 0 CURVE"
);
}
);
width = 1597;
}
);
unicode = 004C;
},
{
glyphname = M;
layers = (
{
hints = (
{
place = "{332, 55}";
},
{
place = "{1393, 288}";
},
{
place = "{1405, 276}";
},
{
horizontal = 1;
place = "{33, 43}";
},
{
horizontal = 1;
place = "{1593, -20}";
target = down;
type = TopGhost;
},
{
horizontal = 1;
place = "{1591, -20}";
target = down;
type = TopGhost;
}
);
layerId = UUID0;
paths = (
{
closed = 1;
nodes = (
"287 68 OFFCURVE",
"152 49 OFFCURVE",
"66 41 CURVE",
"61 31 OFFCURVE",
"61 23 OFFCURVE",
"61 14 CURVE SMOOTH",
"61 8 OFFCURVE",
"63 0 OFFCURVE",
"66 -6 CURVE",
"254 0 OFFCURVE",
"258 0 OFFCURVE",
"334 0 CURVE SMOOTH",
"393 0 OFFCURVE",
"512 -2 OFFCURVE",
"618 -6 CURVE",
"621 0 OFFCURVE",
"623 8 OFFCURVE",
"623 14 CURVE SMOOTH",
"623 23 OFFCURVE",
"621 31 OFFCURVE",
"618 41 CURVE",
"532 49 OFFCURVE",
"399 68 OFFCURVE",
"397 152 CURVE",
"391 338 OFFCURVE",
"387 510 OFFCURVE",
"387 694 CURVE SMOOTH",
"387 864 OFFCURVE",
"389 1071 OFFCURVE",
"395 1253 CURVE",
"406 1253 LINE",
"893 25 LINE",
"903 25 LINE",
"1360 1229 LINE",
"1368 1229 LINE",
"1374 1049 OFFCURVE",
"1378 874 OFFCURVE",
"1378 694 CURVE SMOOTH",
"1378 510 OFFCURVE",
"1374 324 OFFCURVE",
"1368 137 CURVE",
"1366 63 OFFCURVE",
"1223 49 OFFCURVE",
"1137 41 CURVE",
"1133 31 OFFCURVE",
"1133 23 OFFCURVE",
"1133 14 CURVE SMOOTH",
"1133 8 OFFCURVE",
"1135 0 OFFCURVE",
"1137 -6 CURVE",
"1249 -2 OFFCURVE",
"1366 0 OFFCURVE",
"1485 0 CURVE SMOOTH",
"1602 0 OFFCURVE",
"1720 -2 OFFCURVE",
"1833 -6 CURVE",
"1835 0 OFFCURVE",
"1837 8 OFFCURVE",
"1837 14 CURVE SMOOTH",
"1837 23 OFFCURVE",
"1835 33 OFFCURVE",
"1833 41 CURVE",
"1747 49 OFFCURVE",
"1604 63 OFFCURVE",
"1602 137 CURVE",
"1593 346 OFFCURVE",
"1589 557 OFFCURVE",
"1589 768 CURVE SMOOTH",
"1589 952 OFFCURVE",
"1591 1139 OFFCURVE",
"1599 1327 CURVE",
"1602 1401 OFFCURVE",
"1745 1415 OFFCURVE",
"1831 1423 CURVE",
"1833 1432 OFFCURVE",
"1835 1440 OFFCURVE",
"1835 1448 CURVE SMOOTH",
"1835 1456 OFFCURVE",
"1833 1462 OFFCURVE",
"1831 1470 CURVE",
"1718 1466 OFFCURVE",
"1599 1462 OFFCURVE",
"1481 1462 CURVE",
"1366 1462 LINE",
"963 414 LINE",
"958 414 LINE",
"571 1462 LINE",
"360 1462 OFFCURVE",
"145 1468 OFFCURVE",
"98 1470 CURVE",
"94 1462 OFFCURVE",
"94 1456 OFFCURVE",
"94 1450 CURVE SMOOTH",
"94 1444 OFFCURVE",
"94 1440 OFFCURVE",
"98 1432 CURVE",
"246 1411 OFFCURVE",
"289 1397 OFFCURVE",
"293 1233 CURVE SMOOTH",
"297 1069 OFFCURVE",
"299 911 OFFCURVE",
"299 768 CURVE SMOOTH",
"299 557 OFFCURVE",
"295 360 OFFCURVE",
"287 152 CURVE"
);
}
);
width = 1909;
}
);
unicode = 004D;
},
{
glyphname = N;
layers = (
{
background = {
paths = (
{
closed = 1;
nodes = (
"559 1006 OFFCURVE",
"608 956 OFFCURVE",
"666 956 CURVE SMOOTH",
"723 956 OFFCURVE",
"772 1006 OFFCURVE",
"772 1063 CURVE SMOOTH",
"772 1120 OFFCURVE",
"723 1169 OFFCURVE",
"666 1169 CURVE SMOOTH",
"608 1169 OFFCURVE",
"559 1120 OFFCURVE",
"559 1063 CURVE SMOOTH"
);
}
);
};
hints = (
{
place = "{299, 55}";
},
{
place = "{1405, 45}";
},
{
place = "{1460, -55}";
},
{
horizontal = 1;
place = "{-4, 43}";
},
{
horizontal = 1;
place = "{0, -20}";
target = down;
type = TopGhost;
},
{
horizontal = 1;
place = "{1538, -20}";
target = down;
type = TopGhost;
}
);
layerId = UUID0;
paths = (
{
closed = 1;
nodes = (
"287 68 OFFCURVE",
"152 49 OFFCURVE",
"66 41 CURVE",
"61 31 OFFCURVE",
"61 23 OFFCURVE",
"61 14 CURVE SMOOTH",
"61 8 OFFCURVE",
"63 0 OFFCURVE",
"66 -6 CURVE",
"254 0 OFFCURVE",
"258 0 OFFCURVE",
"334 0 CURVE SMOOTH",
"393 0 OFFCURVE",
"512 -2 OFFCURVE",
"618 -6 CURVE",
"621 0 OFFCURVE",
"623 8 OFFCURVE",
"623 14 CURVE SMOOTH",
"623 23 OFFCURVE",
"621 31 OFFCURVE",
"618 41 CURVE",
"532 49 OFFCURVE",
"399 68 OFFCURVE",
"397 152 CURVE",
"391 338 OFFCURVE",
"387 510 OFFCURVE",
"387 694 CURVE SMOOTH",
"387 856 OFFCURVE",
"389 1044 OFFCURVE",
"393 1217 CURVE",
"403 1217 LINE",
"1397 -6 LINE",
"1415 -4 LINE",
"1407 184 OFFCURVE",
"1405 512 OFFCURVE",
"1405 696 CURVE SMOOTH",
"1405 907 OFFCURVE",
"1409 1104 OFFCURVE",
"1417 1313 CURVE",
"1419 1397 OFFCURVE",
"1552 1415 OFFCURVE",
"1638 1423 CURVE",
"1642 1434 OFFCURVE",
"1642 1442 OFFCURVE",
"1642 1450 CURVE SMOOTH",
"1642 1456 OFFCURVE",
"1640 1464 OFFCURVE",
"1638 1470 CURVE",
"1450 1464 OFFCURVE",
"1446 1464 OFFCURVE",
"1370 1464 CURVE SMOOTH",
"1311 1464 OFFCURVE",
"1192 1466 OFFCURVE",
"1085 1470 CURVE",
"1083 1464 OFFCURVE",
"1081 1456 OFFCURVE",
"1081 1450 CURVE SMOOTH",
"1081 1442 OFFCURVE",
"1083 1434 OFFCURVE",
"1085 1423 CURVE",
"1171 1415 OFFCURVE",
"1305 1397 OFFCURVE",
"1307 1313 CURVE",
"1313 1126 OFFCURVE",
"1317 954 OFFCURVE",
"1317 770 CURVE SMOOTH",
"1317 653 OFFCURVE",
"1315 557 OFFCURVE",
"1313 461 CURVE",
"1305 461 LINE",
"1305 461 OFFCURVE",
"1237 518 OFFCURVE",
"492 1462 CURVE",
"365 1462 OFFCURVE",
"201 1464 OFFCURVE",
"78 1470 CURVE",
"74 1464 OFFCURVE",
"72 1454 OFFCURVE",
"72 1446 CURVE SMOOTH",
"72 1438 OFFCURVE",
"74 1432 OFFCURVE",
"78 1423 CURVE",
"166 1417 OFFCURVE",
"229 1395 OFFCURVE",
"291 1341 CURVE",
"297 1159 OFFCURVE",
"299 942 OFFCURVE",
"299 768 CURVE SMOOTH",
"299 557 OFFCURVE",
"295 360 OFFCURVE",
"287 152 CURVE"
);
}
);
width = 1704;
}
);
unicode = 004E;
},
{
glyphname = O;
layers = (
{
layerId = UUID0;
paths = (
{
closed = 1;
nodes = (
"133 115 OFFCURVE",
"596 -41 OFFCURVE",
"891 -41 CURVE SMOOTH",
"1186 -41 OFFCURVE",
"1649 115 OFFCURVE",
"1649 729 CURVE SMOOTH",
"1649 1343 OFFCURVE",
"1186 1503 OFFCURVE",
"891 1503 CURVE SMOOTH",
"596 1503 OFFCURVE",
"133 1343 OFFCURVE",
"133 729 CURVE SMOOTH"
);
},
{
closed = 1;
nodes = (
"1384 422 OFFCURVE",
"1266 31 OFFCURVE",
"891 31 CURVE SMOOTH",
"516 31 OFFCURVE",
"397 422 OFFCURVE",
"397 729 CURVE SMOOTH",
"397 1036 OFFCURVE",
"516 1432 OFFCURVE",
"891 1432 CURVE SMOOTH",
"1266 1432 OFFCURVE",
"1384 1036 OFFCURVE",
"1384 729 CURVE SMOOTH"
);
}
);
width = 1782;
}
);
unicode = 004F;
},
{
glyphname = Oslash;
layers = (
{
hints = (
{
place = "{88, 231}";
},
{
place = "{1497, 232}";
},
{
horizontal = 1;
place = "{-18, 90}";
},
{
horizontal = 1;
place = "{1548, 90}";
}
);
layerId = UUID0;
paths = (
{
closed = 1;
nodes = (
"1556 1554 LINE",
"1468 1620 LINE",
"1307 1395 LINE",
"1169 1475 OFFCURVE",
"1016 1503 OFFCURVE",
"891 1503 CURVE SMOOTH",
"596 1503 OFFCURVE",
"133 1343 OFFCURVE",
"133 729 CURVE SMOOTH",
"133 428 OFFCURVE",
"244 238 OFFCURVE",
"393 121 CURVE",
"223 -117 LINE",
"311 -182 LINE",
"483 59 LINE",
"618 -14 OFFCURVE",
"768 -41 OFFCURVE",
"891 -41 CURVE SMOOTH",
"1186 -41 OFFCURVE",
"1649 115 OFFCURVE",
"1649 729 CURVE SMOOTH",
"1649 1024 OFFCURVE",
"1540 1214 OFFCURVE",
"1397 1331 CURVE"
);
},
{
closed = 1;
nodes = (
"397 1036 OFFCURVE",
"516 1432 OFFCURVE",
"891 1432 CURVE SMOOTH",
"1038 1432 OFFCURVE",
"1145 1370 OFFCURVE",
"1223 1276 CURVE",
"500 270 LINE",
"426 406 OFFCURVE",
"397 578 OFFCURVE",
"397 729 CURVE SMOOTH"
);
},
{
closed = 1;
nodes = (
"1384 422 OFFCURVE",
"1266 31 OFFCURVE",
"891 31 CURVE SMOOTH",
"748 31 OFFCURVE",
"643 88 OFFCURVE",
"567 174 CURVE",
"1286 1178 LINE",
"1356 1044 OFFCURVE",
"1384 877 OFFCURVE",
"1384 729 CURVE SMOOTH"
);
}
);
width = 1782;
}
);
unicode = 00D8;
},
{
glyphname = OE;
layers = (
{
hints = (
{
place = "{90, 232}";
},
{
place = "{1167, 201}";
},
{
place = "{1847, 76}";
},
{
place = "{2150, 78}";
},
{
horizontal = 1;
place = "{1638, -84}";
},
{
horizontal = 1;
place = "{1620, -90}";
},
{
horizontal = 1;
place = "{776, 90}";
},
{
horizontal = 1;
place = "{0, 90}";
},
{
horizontal = 1;
place = "{-18, 84}";
}
);
layerId = UUID0;
paths = (
{
closed = 1;
nodes = (
"133 115 OFFCURVE",
"596 -41 OFFCURVE",
"891 -41 CURVE SMOOTH",
"971 -41 OFFCURVE",
"1073 -29 OFFCURVE",
"1171 0 CURVE",
"2234 0 LINE",
"2253 150 OFFCURVE",
"2320 258 OFFCURVE",
"2382 373 CURVE",
"2376 385 OFFCURVE",
"2363 393 OFFCURVE",
"2347 399 CURVE",
"2257 231 OFFCURVE",
"2083 88 OFFCURVE",
"1675 61 CURVE",
"1376 61 LINE",
"1370 248 OFFCURVE",
"1366 512 OFFCURVE",
"1366 702 CURVE",
"1630 702 LINE",
"1808 702 OFFCURVE",
"1862 549 OFFCURVE",
"1948 393 CURVE",
"1964 399 OFFCURVE",
"1980 408 OFFCURVE",
"1987 420 CURVE",
"1931 514 OFFCURVE",
"1886 623 OFFCURVE",
"1886 733 CURVE SMOOTH",
"1886 815 OFFCURVE",
"1931 950 OFFCURVE",
"1987 1047 CURVE",
"1980 1059 OFFCURVE",
"1964 1067 OFFCURVE",
"1948 1073 CURVE",
"1860 905 OFFCURVE",
"1808 764 OFFCURVE",
"1630 764 CURVE",
"1366 764 LINE",
"1366 965 OFFCURVE",
"1370 1214 OFFCURVE",
"1376 1401 CURVE",
"1634 1401 LINE",
"2042 1374 OFFCURVE",
"2216 1231 OFFCURVE",
"2306 1063 CURVE",
"2322 1069 OFFCURVE",
"2335 1077 OFFCURVE",
"2341 1090 CURVE",
"2279 1196 OFFCURVE",
"2212 1321 OFFCURVE",
"2193 1470 CURVE",
"1925 1462 OFFCURVE",
"1454 1464 OFFCURVE",
"1169 1462 CURVE",
"1071 1491 OFFCURVE",
"971 1503 OFFCURVE",
"891 1503 CURVE SMOOTH",
"596 1503 OFFCURVE",
"133 1343 OFFCURVE",
"133 729 CURVE SMOOTH"
);
},
{
closed = 1;
nodes = (
"397 1036 OFFCURVE",
"516 1432 OFFCURVE",
"891 1432 CURVE SMOOTH",
"983 1432 OFFCURVE",
"1071 1405 OFFCURVE",
"1145 1362 CURVE",
"1153 1178 OFFCURVE",
"1155 944 OFFCURVE",
"1155 768 CURVE SMOOTH",
"1155 573 OFFCURVE",
"1151 305 OFFCURVE",
"1145 100 CURVE",
"1073 55 OFFCURVE",
"987 31 OFFCURVE",
"891 31 CURVE SMOOTH",
"516 31 OFFCURVE",
"397 422 OFFCURVE",
"397 729 CURVE SMOOTH"
);
}
);
width = 2423;
}
);
unicode = 0152;
},
{
glyphname = P;
layers = (
{
layerId = UUID0;
paths = (
{
closed = 1;
nodes = (
"315 506 OFFCURVE",
"313 330 OFFCURVE",
"307 137 CURVE",
"305 63 OFFCURVE",
"162 49 OFFCURVE",
"76 41 CURVE",
"72 31 OFFCURVE",
"72 23 OFFCURVE",
"72 14 CURVE SMOOTH",
"72 8 OFFCURVE",
"74 0 OFFCURVE",
"76 -6 CURVE",
"188 -2 OFFCURVE",
"305 0 OFFCURVE",
"424 0 CURVE SMOOTH",
"541 0 OFFCURVE",
"659 -2 OFFCURVE",
"772 -6 CURVE",
"774 0 OFFCURVE",
"776 8 OFFCURVE",
"776 14 CURVE SMOOTH",
"776 23 OFFCURVE",
"774 31 OFFCURVE",
"772 41 CURVE",
"686 49 OFFCURVE",
"543 63 OFFCURVE",
"541 137 CURVE",
"537 326 OFFCURVE",
"535 496 OFFCURVE",
"535 664 CURVE",
"623 618 OFFCURVE",
"715 608 OFFCURVE",
"776 608 CURVE SMOOTH",
"1085 608 OFFCURVE",
"1241 795 OFFCURVE",
"1241 1034 CURVE SMOOTH",
"1241 1288 OFFCURVE",
"1067 1470 OFFCURVE",
"715 1470 CURVE SMOOTH",
"608 1470 OFFCURVE",
"459 1462 OFFCURVE",
"365 1462 CURVE SMOOTH",
"274 1462 OFFCURVE",
"178 1468 OFFCURVE",
"90 1470 CURVE",
"88 1462 OFFCURVE",
"86 1458 OFFCURVE",
"86 1448 CURVE SMOOTH",
"86 1440 OFFCURVE",
"88 1432 OFFCURVE",
"90 1423 CURVE",
"170 1415 OFFCURVE",
"297 1403 OFFCURVE",
"305 1337 CURVE",
"309 1102 OFFCURVE",
"315 895 OFFCURVE",
"315 678 CURVE SMOOTH"
);
},
{
closed = 1;
nodes = (
"567 1403 OFFCURVE",
"594 1405 OFFCURVE",
"616 1405 CURVE SMOOTH",
"905 1405 OFFCURVE",
"981 1235 OFFCURVE",
"981 1036 CURVE SMOOTH",
"981 829 OFFCURVE",
"891 694 OFFCURVE",
"698 694 CURVE SMOOTH",
"641 694 OFFCURVE",
"588 707 OFFCURVE",
"535 731 CURVE",
"535 948 OFFCURVE",
"537 1161 OFFCURVE",
"541 1401 CURVE"
);
}
);
width = 1313;
}
);
unicode = 0050;
},
{
glyphname = Thorn;
layers = (
{
hints = (
{
place = "{260, 199}";
},
{
place = "{1192, 231}";
},
{
horizontal = 1;
place = "{0, 78}";
},
{
horizontal = 1;
place = "{272, 90}";
},
{
horizontal = 1;
place = "{1321, 90}";
},
{
horizontal = 1;
place = "{1542, 78}";
}
);
layerId = UUID0;
paths = (
{
closed = 1;
nodes = (
"543 1401 OFFCURVE",
"688 1415 OFFCURVE",
"774 1423 CURVE",
"776 1430 OFFCURVE",
"778 1440 OFFCURVE",
"778 1448 CURVE SMOOTH",
"778 1456 OFFCURVE",
"776 1462 OFFCURVE",
"774 1470 CURVE",
"662 1466 OFFCURVE",
"543 1462 OFFCURVE",
"426 1462 CURVE SMOOTH",
"307 1462 OFFCURVE",
"190 1466 OFFCURVE",
"78 1470 CURVE",
"76 1464 OFFCURVE",
"74 1456 OFFCURVE",
"74 1448 CURVE SMOOTH",
"74 1440 OFFCURVE",
"76 1432 OFFCURVE",
"78 1423 CURVE",
"164 1415 OFFCURVE",
"307 1401 OFFCURVE",
"309 1327 CURVE",
"317 1139 OFFCURVE",
"319 952 OFFCURVE",
"319 768 CURVE SMOOTH",
"319 557 OFFCURVE",
"315 346 OFFCURVE",
"307 137 CURVE",
"305 63 OFFCURVE",
"162 49 OFFCURVE",
"76 41 CURVE",
"72 31 OFFCURVE",
"72 23 OFFCURVE",
"72 14 CURVE SMOOTH",
"72 8 OFFCURVE",
"74 0 OFFCURVE",
"76 -6 CURVE",
"188 -2 OFFCURVE",
"305 0 OFFCURVE",
"424 0 CURVE SMOOTH",
"541 0 OFFCURVE",
"659 -2 OFFCURVE",
"772 -6 CURVE",
"774 0 OFFCURVE",
"776 8 OFFCURVE",
"776 14 CURVE SMOOTH",
"776 23 OFFCURVE",
"776 29 OFFCURVE",
"772 41 CURVE",
"686 49 OFFCURVE",
"543 63 OFFCURVE",
"541 137 CURVE",
"537 217 OFFCURVE",
"535 297 OFFCURVE",
"532 375 CURVE",
"627 336 OFFCURVE",
"723 332 OFFCURVE",
"788 332 CURVE SMOOTH",
"1098 332 OFFCURVE",
"1253 532 OFFCURVE",
"1253 772 CURVE SMOOTH",
"1253 1026 OFFCURVE",
"1079 1194 OFFCURVE",
"801 1194 CURVE SMOOTH",
"684 1194 OFFCURVE",
"598 1180 OFFCURVE",
"537 1153 CURVE",
"539 1210 OFFCURVE",
"539 1270 OFFCURVE",
"543 1327 CURVE"
);
},
{
closed = 1;
nodes = (
"918 1108 OFFCURVE",
"993 973 OFFCURVE",
"993 774 CURVE SMOOTH",
"993 567 OFFCURVE",
"903 418 OFFCURVE",
"711 418 CURVE SMOOTH",
"647 418 OFFCURVE",
"590 422 OFFCURVE",
"532 440 CURVE",
"530 526 OFFCURVE",
"530 610 OFFCURVE",
"530 694 CURVE SMOOTH",
"530 823 OFFCURVE",
"530 952 OFFCURVE",
"535 1081 CURVE",
"575 1096 OFFCURVE",
"614 1108 OFFCURVE",
"721 1108 CURVE SMOOTH"
);
}
);
width = 1335;
}
);
unicode = 00DE;
},
{
glyphname = Q;
layers = (
{
hints = (
{
place = "{133, 322}";
},
{
place = "{1397, 321}";
},
{
horizontal = 1;
place = "{-420, 43}";
},
{
horizontal = 1;
place = "{1583, -20}";
target = down;
type = TopGhost;
}
);
layerId = UUID0;
paths = (
{
closed = 1;
nodes = (
"1649 1343 OFFCURVE",
"1186 1503 OFFCURVE",
"891 1503 CURVE SMOOTH",
"596 1503 OFFCURVE",
"133 1343 OFFCURVE",
"133 729 CURVE SMOOTH",
"133 213 OFFCURVE",
"457 20 OFFCURVE",
"735 -27 CURVE",
"893 -342 OFFCURVE",
"1237 -487 OFFCURVE",
"1599 -487 CURVE",
"1604 -483 OFFCURVE",
"1606 -475 OFFCURVE",
"1606 -465 CURVE SMOOTH",
"1606 -457 OFFCURVE",
"1604 -449 OFFCURVE",
"1597 -440 CURVE",
"1223 -317 OFFCURVE",
"1141 -162 OFFCURVE",
"1075 -20 CURVE",
"1348 37 OFFCURVE",
"1649 233 OFFCURVE",
"1649 729 CURVE SMOOTH"
);
},
{
closed = 1;
nodes = (
"1384 422 OFFCURVE",
"1266 31 OFFCURVE",
"891 31 CURVE SMOOTH",
"516 31 OFFCURVE",
"397 422 OFFCURVE",
"397 729 CURVE SMOOTH",
"397 1036 OFFCURVE",
"516 1432 OFFCURVE",
"891 1432 CURVE SMOOTH",
"1266 1432 OFFCURVE",
"1384 1036 OFFCURVE",
"1384 729 CURVE SMOOTH"
);
}
);
width = 1782;
}
);
unicode = 0051;
},
{
glyphname = R;
layers = (
{
layerId = UUID0;
paths = (
{
closed = 1;
nodes = (
"307 63 OFFCURVE",
"162 49 OFFCURVE",
"76 41 CURVE",
"72 31 OFFCURVE",
"72 23 OFFCURVE",
"72 14 CURVE SMOOTH",
"72 8 OFFCURVE",
"74 0 OFFCURVE",
"76 -6 CURVE",
"188 -2 OFFCURVE",
"305 0 OFFCURVE",
"424 0 CURVE SMOOTH",
"541 0 OFFCURVE",
"659 -2 OFFCURVE",
"772 -6 CURVE",
"774 0 OFFCURVE",
"776 8 OFFCURVE",
"776 14 CURVE SMOOTH",
"776 23 OFFCURVE",
"774 31 OFFCURVE",
"772 41 CURVE",
"686 49 OFFCURVE",
"543 63 OFFCURVE",
"541 137 CURVE",
"535 305 OFFCURVE",
"530 471 OFFCURVE",
"530 639 CURVE",
"588 625 OFFCURVE",
"645 616 OFFCURVE",
"698 616 CURVE",
"829 373 OFFCURVE",
"979 176 OFFCURVE",
"1130 0 CURVE",
"1266 -2 OFFCURVE",
"1403 0 OFFCURVE",
"1538 -6 CURVE",
"1540 0 OFFCURVE",
"1542 8 OFFCURVE",
"1542 16 CURVE SMOOTH",
"1542 25 OFFCURVE",
"1540 33 OFFCURVE",
"1538 41 CURVE",
"1366 57 OFFCURVE",
"1231 203 OFFCURVE",
"1102 375 CURVE SMOOTH",
"1036 461 OFFCURVE",
"973 549 OFFCURVE",
"918 647 CURVE",
"1116 713 OFFCURVE",
"1235 877 OFFCURVE",
"1235 1067 CURVE SMOOTH",
"1235 1300 OFFCURVE",
"1061 1470 OFFCURVE",
"758 1470 CURVE SMOOTH",
"641 1470 OFFCURVE",
"530 1462 OFFCURVE",
"426 1462 CURVE SMOOTH",
"315 1462 OFFCURVE",
"186 1466 OFFCURVE",
"78 1470 CURVE",
"76 1462 OFFCURVE",
"74 1456 OFFCURVE",
"74 1448 CURVE SMOOTH",
"74 1440 OFFCURVE",
"76 1432 OFFCURVE",
"78 1423 CURVE",
"164 1415 OFFCURVE",
"307 1401 OFFCURVE",
"309 1327 CURVE SMOOTH",
"317 1139 OFFCURVE",
"319 952 OFFCURVE",
"319 768 CURVE SMOOTH",
"319 557 OFFCURVE",
"315 346 OFFCURVE",
"307 137 CURVE"
);
},
{
closed = 1;
nodes = (
"543 1401 LINE",
"588 1405 OFFCURVE",
"616 1405 OFFCURVE",
"662 1405 CURVE SMOOTH",
"870 1405 OFFCURVE",
"975 1257 OFFCURVE",
"975 1067 CURVE SMOOTH",
"975 895 OFFCURVE",
"899 692 OFFCURVE",
"672 692 CURVE SMOOTH",
"629 692 OFFCURVE",
"582 698 OFFCURVE",
"530 715 CURVE",
"530 920 OFFCURVE",
"535 1200 OFFCURVE",
"541 1401 CURVE"
);
}
);
width = 1552;
}
);
unicode = 0052;
},
{
glyphname = S;
layers = (
{
layerId = UUID0;
paths = (
{
closed = 1;
nodes = (
"1049 1044 OFFCURVE",
"1057 1042 OFFCURVE",
"1065 1042 CURVE SMOOTH",
"1073 1042 OFFCURVE",
"1079 1044 OFFCURVE",
"1087 1047 CURVE",
"1071 1108 OFFCURVE",
"1063 1198 OFFCURVE",
"1063 1288 CURVE SMOOTH",
"1063 1331 OFFCURVE",
"1065 1372 OFFCURVE",
"1069 1411 CURVE",
"983 1448 OFFCURVE",
"834 1503 OFFCURVE",
"657 1503 CURVE SMOOTH",
"451 1503 OFFCURVE",
"176 1415 OFFCURVE",
"176 1092 CURVE SMOOTH",
"176 842 OFFCURVE",
"371 713 OFFCURVE",
"643 645 CURVE SMOOTH",
"883 586 OFFCURVE",
"944 506 OFFCURVE",
"944 330 CURVE SMOOTH",
"944 158 OFFCURVE",
"834 33 OFFCURVE",
"618 33 CURVE SMOOTH",
"442 33 OFFCURVE",
"229 174 OFFCURVE",
"170 532 CURVE",
"162 537 OFFCURVE",
"154 539 OFFCURVE",
"145 539 CURVE SMOOTH",
"139 539 OFFCURVE",
"131 537 OFFCURVE",
"123 532 CURVE",
"141 424 OFFCURVE",
"150 313 OFFCURVE",
"150 207 CURVE SMOOTH",
"150 162 OFFCURVE",
"147 117 OFFCURVE",
"145 74 CURVE",
"252 25 OFFCURVE",
"430 -41 OFFCURVE",
"618 -41 CURVE SMOOTH",
"854 -41 OFFCURVE",
"1161 102 OFFCURVE",
"1161 420 CURVE SMOOTH",
"1161 752 OFFCURVE",
"920 836 OFFCURVE",
"690 891 CURVE SMOOTH",
"406 961 OFFCURVE",
"365 1040 OFFCURVE",
"365 1190 CURVE SMOOTH",
"365 1333 OFFCURVE",
"467 1432 OFFCURVE",
"657 1432 CURVE SMOOTH",
"846 1432 OFFCURVE",
"989 1292 OFFCURVE",
"1040 1047 CURVE"
);
}
);
width = 1284;
}
);
unicode = 0053;
},
{
glyphname = T;
layers = (
{
layerId = UUID0;
paths = (
{
closed = 1;
nodes = (
"696 63 OFFCURVE",
"551 49 OFFCURVE",
"465 41 CURVE",
"463 31 OFFCURVE",
"461 23 OFFCURVE",
"461 14 CURVE SMOOTH",
"461 8 OFFCURVE",
"463 0 OFFCURVE",
"465 -6 CURVE",
"578 -2 OFFCURVE",
"694 0 OFFCURVE",
"813 0 CURVE SMOOTH",
"930 0 OFFCURVE",
"1049 -2 OFFCURVE",
"1161 -6 CURVE",
"1163 0 OFFCURVE",
"1165 8 OFFCURVE",
"1165 14 CURVE SMOOTH",
"1165 23 OFFCURVE",
"1163 31 OFFCURVE",
"1161 41 CURVE",
"1075 49 OFFCURVE",
"932 63 OFFCURVE",
"930 137 CURVE",
"922 336 OFFCURVE",
"920 553 OFFCURVE",
"920 772 CURVE SMOOTH",
"920 987 OFFCURVE",
"922 1206 OFFCURVE",
"930 1405 CURVE",
"1339 1376 OFFCURVE",
"1493 1231 OFFCURVE",
"1583 1063 CURVE",
"1599 1069 OFFCURVE",
"1612 1077 OFFCURVE",
"1618 1090 CURVE",
"1561 1202 OFFCURVE",
"1489 1321 OFFCURVE",
"1470 1470 CURVE",
"1251 1462 OFFCURVE",
"1032 1462 OFFCURVE",
"813 1462 CURVE SMOOTH",
"596 1462 OFFCURVE",
"375 1462 OFFCURVE",
"158 1470 CURVE",
"139 1321 OFFCURVE",
"68 1200 OFFCURVE",
"10 1090 CURVE",
"16 1077 OFFCURVE",
"29 1069 OFFCURVE",
"45 1063 CURVE",
"131 1225 OFFCURVE",
"297 1382 OFFCURVE",
"696 1405 CURVE",
"702 1206 OFFCURVE",
"707 987 OFFCURVE",
"707 772 CURVE SMOOTH",
"707 553 OFFCURVE",
"702 336 OFFCURVE",
"696 137 CURVE"
);
}
);
width = 1628;
}
);
unicode = 0054;
},
{
glyphname = U;
layers = (
{
layerId = UUID0;
paths = (
{
closed = 1;
nodes = (
"510 1401 OFFCURVE",
"655 1415 OFFCURVE",
"741 1423 CURVE",
"743 1432 OFFCURVE",
"745 1440 OFFCURVE",
"745 1448 CURVE SMOOTH",
"745 1456 OFFCURVE",
"743 1462 OFFCURVE",
"741 1470 CURVE",
"629 1466 OFFCURVE",
"510 1464 OFFCURVE",
"393 1464 CURVE SMOOTH",
"274 1464 OFFCURVE",
"158 1466 OFFCURVE",
"45 1470 CURVE",
"43 1462 OFFCURVE",
"41 1456 OFFCURVE",
"41 1448 CURVE SMOOTH",
"41 1440 OFFCURVE",
"43 1432 OFFCURVE",
"45 1423 CURVE",
"131 1415 OFFCURVE",
"274 1401 OFFCURVE",
"276 1327 CURVE",
"285 1137 OFFCURVE",
"287 948 OFFCURVE",
"287 760 CURVE",
"287 596 LINE",
"287 72 OFFCURVE",
"557 -41 OFFCURVE",
"930 -41 CURVE SMOOTH",
"1157 -41 OFFCURVE",
"1501 88 OFFCURVE",
"1501 596 CURVE SMOOTH",
"1501 836 OFFCURVE",
"1501 1075 OFFCURVE",
"1511 1313 CURVE",
"1516 1397 OFFCURVE",
"1647 1415 OFFCURVE",
"1733 1423 CURVE",
"1737 1434 OFFCURVE",
"1737 1442 OFFCURVE",
"1737 1450 CURVE SMOOTH",
"1737 1456 OFFCURVE",
"1735 1464 OFFCURVE",
"1733 1470 CURVE",
"1544 1464 OFFCURVE",
"1540 1464 OFFCURVE",
"1464 1464 CURVE SMOOTH",
"1405 1464 OFFCURVE",
"1286 1466 OFFCURVE",
"1180 1470 CURVE",
"1178 1464 OFFCURVE",
"1176 1456 OFFCURVE",
"1176 1450 CURVE SMOOTH",
"1176 1442 OFFCURVE",
"1178 1434 OFFCURVE",
"1180 1423 CURVE",
"1266 1415 OFFCURVE",
"1399 1397 OFFCURVE",
"1401 1313 CURVE",
"1407 1073 OFFCURVE",
"1407 836 OFFCURVE",
"1407 596 CURVE SMOOTH",
"1407 246 OFFCURVE",
"1233 53 OFFCURVE",
"926 53 CURVE SMOOTH",
"614 53 OFFCURVE",
"506 225 OFFCURVE",
"506 596 CURVE",
"506 1059 OFFCURVE",
"506 1194 OFFCURVE",
"510 1327 CURVE"
);
}
);
width = 1767;
}
);
unicode = 0055;
},
{
glyphname = V;
layers = (
{
hints = (
{
horizontal = 1;
place = "{-20, 43}";
},
{
horizontal = 1;
place = "{1495, -20}";
target = down;
type = TopGhost;
},
{
horizontal = 1;
place = "{1497, -20}";
target = down;
type = TopGhost;
}
);
layerId = UUID0;
paths = (
{
closed = 1;
nodes = (
"1409 1313 LINE",
"1448 1395 OFFCURVE",
"1524 1415 OFFCURVE",
"1610 1423 CURVE",
"1614 1434 OFFCURVE",
"1614 1442 OFFCURVE",
"1614 1450 CURVE SMOOTH",
"1614 1456 OFFCURVE",
"1612 1464 OFFCURVE",
"1610 1470 CURVE",
"1534 1466 OFFCURVE",
"1434 1464 OFFCURVE",
"1382 1464 CURVE SMOOTH",
"1325 1464 OFFCURVE",
"1235 1466 OFFCURVE",
"1149 1470 CURVE",
"1147 1464 OFFCURVE",
"1145 1456 OFFCURVE",
"1145 1450 CURVE SMOOTH",
"1145 1442 OFFCURVE",
"1147 1434 OFFCURVE",
"1149 1423 CURVE",
"1257 1411 OFFCURVE",
"1309 1399 OFFCURVE",
"1309 1352 CURVE SMOOTH",
"1309 1341 OFFCURVE",
"1307 1323 OFFCURVE",
"1303 1313 CURVE SMOOTH",
"913 334 LINE",
"903 334 LINE",
"487 1300 LINE SMOOTH",
"485 1307 OFFCURVE",
"473 1337 OFFCURVE",
"473 1350 CURVE SMOOTH",
"473 1401 OFFCURVE",
"522 1417 OFFCURVE",
"698 1423 CURVE",
"700 1430 OFFCURVE",
"702 1440 OFFCURVE",
"702 1448 CURVE SMOOTH",
"702 1456 OFFCURVE",
"700 1462 OFFCURVE",
"698 1470 CURVE",
"586 1464 OFFCURVE",
"477 1462 OFFCURVE",
"360 1462 CURVE SMOOTH",
"242 1462 OFFCURVE",
"117 1466 OFFCURVE",
"4 1470 CURVE",
"2 1464 OFFCURVE",
"0 1456 OFFCURVE",
"0 1448 CURVE SMOOTH",
"0 1440 OFFCURVE",
"2 1432 OFFCURVE",
"4 1423 CURVE",
"90 1415 OFFCURVE",
"201 1389 OFFCURVE",
"240 1300 CURVE SMOOTH",
"821 -29 LINE",
"868 -29 LINE"
);
}
);
width = 1604;
}
);
unicode = 0056;
},
{
glyphname = W;
layers = (
{
hints = (
{
horizontal = 1;
place = "{-12, 43}";
},
{
horizontal = 1;
place = "{0, -20}";
target = down;
type = TopGhost;
}
);
layerId = UUID0;
paths = (
{
closed = 1;
nodes = (
"854 334 LINE",
"461 1300 LINE",
"457 1315 OFFCURVE",
"446 1337 OFFCURVE",
"446 1356 CURVE SMOOTH",
"446 1389 OFFCURVE",
"473 1417 OFFCURVE",
"598 1423 CURVE",
"600 1430 OFFCURVE",
"602 1440 OFFCURVE",
"602 1448 CURVE SMOOTH",
"602 1456 OFFCURVE",
"600 1462 OFFCURVE",
"598 1470 CURVE",
"492 1464 OFFCURVE",
"451 1462 OFFCURVE",
"340 1462 CURVE SMOOTH",
"229 1462 OFFCURVE",
"111 1466 OFFCURVE",
"4 1470 CURVE",
"2 1464 OFFCURVE",
"0 1456 OFFCURVE",
"0 1448 CURVE SMOOTH",
"0 1440 OFFCURVE",
"2 1432 OFFCURVE",
"4 1423 CURVE",
"86 1415 OFFCURVE",
"190 1389 OFFCURVE",
"227 1300 CURVE",
"776 -29 LINE",
"821 -29 LINE",
"1106 733 LINE",
"1407 -29 LINE",
"1452 -29 LINE",
"1960 1313 LINE",
"1997 1395 OFFCURVE",
"2068 1415 OFFCURVE",
"2150 1423 CURVE",
"2154 1434 OFFCURVE",
"2154 1442 OFFCURVE",
"2154 1450 CURVE SMOOTH",
"2154 1456 OFFCURVE",
"2152 1464 OFFCURVE",
"2150 1470 CURVE",
"2079 1466 OFFCURVE",
"1985 1464 OFFCURVE",
"1935 1464 CURVE SMOOTH",
"1882 1464 OFFCURVE",
"1782 1466 OFFCURVE",
"1700 1470 CURVE",
"1698 1464 OFFCURVE",
"1696 1456 OFFCURVE",
"1696 1450 CURVE SMOOTH",
"1696 1442 OFFCURVE",
"1698 1434 OFFCURVE",
"1700 1423 CURVE",
"1802 1411 OFFCURVE",
"1866 1399 OFFCURVE",
"1866 1352 CURVE SMOOTH",
"1866 1341 OFFCURVE",
"1864 1323 OFFCURVE",
"1860 1313 CURVE",
"1495 334 LINE",
"1485 334 LINE",
"1116 1300 LINE",
"1114 1307 OFFCURVE",
"1102 1337 OFFCURVE",
"1102 1350 CURVE SMOOTH",
"1102 1401 OFFCURVE",
"1128 1417 OFFCURVE",
"1294 1423 CURVE",
"1296 1430 OFFCURVE",
"1298 1440 OFFCURVE",
"1298 1448 CURVE SMOOTH",
"1298 1456 OFFCURVE",
"1296 1462 OFFCURVE",
"1294 1470 CURVE",
"1188 1464 OFFCURVE",
"1106 1462 OFFCURVE",
"995 1462 CURVE SMOOTH",
"885 1462 OFFCURVE",
"788 1464 OFFCURVE",
"682 1470 CURVE",
"680 1464 OFFCURVE",
"678 1456 OFFCURVE",
"678 1448 CURVE SMOOTH",
"678 1440 OFFCURVE",
"680 1432 OFFCURVE",
"682 1423 CURVE",
"764 1415 OFFCURVE",
"848 1389 OFFCURVE",
"883 1300 CURVE",
"1059 854 LINE",
"864 334 LINE"
);
}
);
width = 2144;
}
);
unicode = 0057;
},
{
glyphname = X;
layers = (
{
hints = (
{
horizontal = 1;
place = "{20, 43}";
},
{
horizontal = 1;
place = "{1579, -20}";
target = down;
type = TopGhost;
}
);
layerId = UUID0;
paths = (
{
closed = 1;
nodes = (
"254 152 LINE",
"197 74 OFFCURVE",
"111 49 OFFCURVE",
"25 41 CURVE",
"20 31 OFFCURVE",
"20 23 OFFCURVE",
"20 14 CURVE SMOOTH",
"20 8 OFFCURVE",
"23 0 OFFCURVE",
"25 -6 CURVE",
"100 -2 OFFCURVE",
"221 0 OFFCURVE",
"272 0 CURVE SMOOTH",
"330 0 OFFCURVE",
"430 -2 OFFCURVE",
"516 -6 CURVE",
"518 0 OFFCURVE",
"520 8 OFFCURVE",
"520 14 CURVE SMOOTH",
"520 23 OFFCURVE",
"518 31 OFFCURVE",
"516 41 CURVE",
"424 51 OFFCURVE",
"348 66 OFFCURVE",
"348 111 CURVE SMOOTH",
"348 119 OFFCURVE",
"350 135 OFFCURVE",
"362 154 CURVE SMOOTH",
"715 637 LINE",
"1020 152 LINE SMOOTH",
"1024 145 OFFCURVE",
"1030 127 OFFCURVE",
"1030 109 CURVE SMOOTH",
"1030 70 OFFCURVE",
"944 45 OFFCURVE",
"799 39 CURVE",
"797 33 OFFCURVE",
"795 23 OFFCURVE",
"795 14 CURVE SMOOTH",
"795 6 OFFCURVE",
"797 0 OFFCURVE",
"799 -8 CURVE",
"911 -2 OFFCURVE",
"1030 0 OFFCURVE",
"1147 0 CURVE SMOOTH",
"1266 0 OFFCURVE",
"1407 -4 OFFCURVE",
"1520 -8 CURVE",
"1522 -2 OFFCURVE",
"1524 6 OFFCURVE",
"1524 14 CURVE SMOOTH",
"1524 23 OFFCURVE",
"1522 31 OFFCURVE",
"1520 39 CURVE",
"1434 47 OFFCURVE",
"1329 70 OFFCURVE",
"1268 152 CURVE",
"848 821 LINE",
"1200 1313 LINE SMOOTH",
"1255 1393 OFFCURVE",
"1343 1415 OFFCURVE",
"1430 1423 CURVE",
"1434 1434 OFFCURVE",
"1434 1442 OFFCURVE",
"1434 1450 CURVE SMOOTH",
"1434 1456 OFFCURVE",
"1432 1464 OFFCURVE",
"1430 1470 CURVE",
"1354 1466 OFFCURVE",
"1233 1464 OFFCURVE",
"1182 1464 CURVE SMOOTH",
"1124 1464 OFFCURVE",
"1034 1466 OFFCURVE",
"948 1470 CURVE",
"946 1464 OFFCURVE",
"944 1456 OFFCURVE",
"944 1450 CURVE SMOOTH",
"944 1442 OFFCURVE",
"946 1434 OFFCURVE",
"948 1423 CURVE",
"1040 1413 OFFCURVE",
"1106 1399 OFFCURVE",
"1106 1354 CURVE SMOOTH",
"1106 1341 OFFCURVE",
"1102 1323 OFFCURVE",
"1096 1313 CURVE SMOOTH",
"799 897 LINE",
"553 1288 LINE SMOOTH",
"528 1329 OFFCURVE",
"526 1337 OFFCURVE",
"526 1350 CURVE SMOOTH",
"526 1401 OFFCURVE",
"586 1417 OFFCURVE",
"731 1423 CURVE",
"733 1430 OFFCURVE",
"735 1440 OFFCURVE",
"735 1448 CURVE SMOOTH",
"735 1456 OFFCURVE",
"733 1462 OFFCURVE",
"731 1470 CURVE",
"618 1464 OFFCURVE",
"530 1462 OFFCURVE",
"414 1462 CURVE SMOOTH",
"295 1462 OFFCURVE",
"164 1466 OFFCURVE",
"51 1470 CURVE",
"49 1464 OFFCURVE",
"47 1456 OFFCURVE",
"47 1448 CURVE SMOOTH",
"47 1440 OFFCURVE",
"49 1432 OFFCURVE",
"51 1423 CURVE",
"137 1415 OFFCURVE",
"221 1407 OFFCURVE",
"283 1327 CURVE",
"668 713 LINE"
);
}
);
width = 1524;
}
);
unicode = 0058;
},
{
glyphname = Y;
layers = (
{
hints = (
{
place = "{897, -299}";
},
{
horizontal = 1;
place = "{66, 43}";
}
);
layerId = UUID0;
paths = (
{
closed = 1;
nodes = (
"496 1305 LINE SMOOTH",
"481 1333 OFFCURVE",
"479 1337 OFFCURVE",
"479 1350 CURVE SMOOTH",
"479 1401 OFFCURVE",
"559 1417 OFFCURVE",
"705 1423 CURVE",
"707 1430 OFFCURVE",
"709 1440 OFFCURVE",
"709 1448 CURVE SMOOTH",
"709 1456 OFFCURVE",
"707 1462 OFFCURVE",
"705 1470 CURVE",
"592 1464 OFFCURVE",
"483 1462 OFFCURVE",
"367 1462 CURVE SMOOTH",
"248 1462 OFFCURVE",
"117 1466 OFFCURVE",
"4 1470 CURVE",
"2 1464 OFFCURVE",
"0 1456 OFFCURVE",
"0 1448 CURVE SMOOTH",
"0 1440 OFFCURVE",
"2 1432 OFFCURVE",
"4 1423 CURVE",
"90 1415 OFFCURVE",
"178 1399 OFFCURVE",
"236 1327 CURVE",
"627 643 LINE",
"625 467 OFFCURVE",
"621 311 OFFCURVE",
"614 137 CURVE SMOOTH",
"612 63 OFFCURVE",
"469 49 OFFCURVE",
"383 41 CURVE",
"379 31 OFFCURVE",
"379 23 OFFCURVE",
"379 14 CURVE SMOOTH",
"379 8 OFFCURVE",
"381 0 OFFCURVE",
"383 -6 CURVE",
"496 -2 OFFCURVE",
"612 0 OFFCURVE",
"731 0 CURVE SMOOTH",
"848 0 OFFCURVE",
"967 -2 OFFCURVE",
"1079 -6 CURVE",
"1081 0 OFFCURVE",
"1083 8 OFFCURVE",
"1083 14 CURVE SMOOTH",
"1083 23 OFFCURVE",
"1083 29 OFFCURVE",
"1079 41 CURVE",
"993 49 OFFCURVE",
"850 63 OFFCURVE",
"848 137 CURVE SMOOTH",
"842 311 OFFCURVE",
"838 469 OFFCURVE",
"838 643 CURVE",
"1253 1313 LINE SMOOTH",
"1305 1395 OFFCURVE",
"1376 1415 OFFCURVE",
"1462 1423 CURVE",
"1466 1434 OFFCURVE",
"1466 1442 OFFCURVE",
"1466 1450 CURVE SMOOTH",
"1466 1456 OFFCURVE",
"1464 1464 OFFCURVE",
"1462 1470 CURVE",
"1386 1466 OFFCURVE",
"1286 1464 OFFCURVE",
"1235 1464 CURVE SMOOTH",
"1178 1464 OFFCURVE",
"1087 1466 OFFCURVE",
"1001 1470 CURVE",
"999 1464 OFFCURVE",
"997 1456 OFFCURVE",
"997 1450 CURVE SMOOTH",
"997 1442 OFFCURVE",
"999 1434 OFFCURVE",
"1001 1423 CURVE",
"1094 1413 OFFCURVE",
"1159 1399 OFFCURVE",
"1159 1354 CURVE SMOOTH",
"1159 1341 OFFCURVE",
"1153 1323 OFFCURVE",
"1147 1313 CURVE SMOOTH",
"811 754 LINE",
"803 754 LINE"
);
}
);
width = 1466;
}
);
unicode = 0059;
},
{
glyphname = Z;
layers = (
{
hints = (
{
horizontal = 1;
place = "{1483, 43}";
},
{
horizontal = 1;
place = "{1538, -20}";
target = down;
type = TopGhost;
},
{
horizontal = 1;
place = "{0, -20}";
target = down;
type = TopGhost;
}
);
layerId = UUID0;
paths = (
{
closed = 1;
nodes = (
"401 1309 OFFCURVE",
"520 1403 OFFCURVE",
"1008 1405 CURVE",
"692 936 OFFCURVE",
"377 481 OFFCURVE",
"57 33 CURVE",
"57 20 OFFCURVE",
"66 0 OFFCURVE",
"72 -6 CURVE",
"180 0 OFFCURVE",
"207 0 OFFCURVE",
"285 0 CURVE SMOOTH",
"1348 0 LINE",
"1348 166 OFFCURVE",
"1358 340 OFFCURVE",
"1427 518 CURVE",
"1421 530 OFFCURVE",
"1405 537 OFFCURVE",
"1389 539 CURVE",
"1278 227 OFFCURVE",
"1126 61 OFFCURVE",
"664 61 CURVE SMOOTH",
"334 61 LINE",
"647 522 OFFCURVE",
"963 977 OFFCURVE",
"1280 1425 CURVE",
"1280 1450 OFFCURVE",
"1270 1462 OFFCURVE",
"1247 1470 CURVE",
"1147 1462 OFFCURVE",
"1130 1462 OFFCURVE",
"1047 1462 CURVE SMOOTH",
"819 1462 OFFCURVE",
"539 1468 OFFCURVE",
"311 1470 CURVE",
"268 1335 OFFCURVE",
"193 1196 OFFCURVE",
"82 1079 CURVE",
"90 1065 OFFCURVE",
"102 1057 OFFCURVE",
"123 1057 CURVE"
);
}
);
width = 1468;
}
);
unicode = 005A;
},
{
glyphname = a;
layers = (
{
hints = (
{
horizontal = 1;
place = "{-14, 43}";
},
{
horizontal = 1;
place = "{913, -20}";
target = down;
type = TopGhost;
}
);
layerId = UUID0;
paths = (
{
closed = 1;
nodes = (
"170 575 OFFCURVE",
"231 537 OFFCURVE",
"285 537 CURVE SMOOTH",
"362 537 OFFCURVE",
"399 592 OFFCURVE",
"399 643 CURVE SMOOTH",
"399 696 OFFCURVE",
"373 739 OFFCURVE",
"301 750 CURVE",
"313 793 OFFCURVE",
"375 838 OFFCURVE",
"469 838 CURVE SMOOTH",
"563 838 OFFCURVE",
"633 778 OFFCURVE",
"633 637 CURVE SMOOTH",
"633 498 LINE",
"248 399 OFFCURVE",
"133 334 OFFCURVE",
"133 158 CURVE SMOOTH",
"133 96 OFFCURVE",
"164 -29 OFFCURVE",
"344 -29 CURVE SMOOTH",
"477 -29 OFFCURVE",
"575 80 OFFCURVE",
"633 133 CURVE",
"641 27 OFFCURVE",
"692 -14 OFFCURVE",
"754 -14 CURVE SMOOTH",
"860 -14 OFFCURVE",
"922 98 OFFCURVE",
"987 193 CURVE",
"979 211 OFFCURVE",
"961 223 OFFCURVE",
"938 225 CURVE",
"920 197 OFFCURVE",
"881 145 OFFCURVE",
"854 145 CURVE SMOOTH",
"817 145 OFFCURVE",
"813 176 OFFCURVE",
"813 201 CURVE SMOOTH",
"813 616 LINE SMOOTH",
"813 827 OFFCURVE",
"733 909 OFFCURVE",
"508 909 CURVE SMOOTH",
"332 909 OFFCURVE",
"170 809 OFFCURVE",
"170 657 CURVE SMOOTH"
);
},
{
closed = 1;
nodes = (
"633 225 LINE",
"594 174 OFFCURVE",
"526 98 OFFCURVE",
"436 98 CURVE SMOOTH",
"381 98 OFFCURVE",
"334 135 OFFCURVE",
"334 205 CURVE SMOOTH",
"334 305 OFFCURVE",
"383 377 OFFCURVE",
"633 434 CURVE"
);
}
);
width = 1038;
}
);
unicode = 0061;
},
{
glyphname = ae;
layers = (
{
hints = (
{
place = "{51, 185}";
},
{
place = "{575, 168}";
},
{
place = "{1110, 184}";
},
{
horizontal = 1;
place = "{909, -71}";
},
{
horizontal = 1;
place = "{516, 72}";
},
{
horizontal = 1;
place = "{477, 76}";
},
{
horizontal = 1;
place = "{-18, 94}";
}
);
layerId = UUID0;
paths = (
{
closed = 1;
nodes = (
"170 575 OFFCURVE",
"231 537 OFFCURVE",
"285 537 CURVE SMOOTH",
"362 537 OFFCURVE",
"399 592 OFFCURVE",
"399 643 CURVE SMOOTH",
"399 696 OFFCURVE",
"373 739 OFFCURVE",
"301 750 CURVE",
"313 793 OFFCURVE",
"375 838 OFFCURVE",
"469 838 CURVE SMOOTH",
"563 838 OFFCURVE",
"633 778 OFFCURVE",
"633 637 CURVE SMOOTH",
"633 498 LINE",
"248 399 OFFCURVE",
"133 334 OFFCURVE",
"133 158 CURVE SMOOTH",
"133 96 OFFCURVE",
"164 -29 OFFCURVE",
"344 -29 CURVE SMOOTH",
"504 -29 OFFCURVE",
"584 37 OFFCURVE",
"707 139 CURVE",
"784 20 OFFCURVE",
"911 -29 OFFCURVE",
"1036 -29 CURVE SMOOTH",
"1188 -29 OFFCURVE",
"1350 49 OFFCURVE",
"1419 238 CURVE",
"1411 248 OFFCURVE",
"1399 256 OFFCURVE",
"1380 260 CURVE",
"1333 199 OFFCURVE",
"1284 96 OFFCURVE",
"1124 96 CURVE SMOOTH",
"936 96 OFFCURVE",
"817 227 OFFCURVE",
"813 424 CURVE SMOOTH",
"813 434 LINE SMOOTH",
"813 469 OFFCURVE",
"815 500 OFFCURVE",
"817 530 CURVE",
"1362 530 LINE",
"1372 561 OFFCURVE",
"1378 596 OFFCURVE",
"1378 633 CURVE SMOOTH",
"1378 770 OFFCURVE",
"1300 909 OFFCURVE",
"1071 909 CURVE SMOOTH",
"1047 909 LINE",
"946 903 OFFCURVE",
"852 862 OFFCURVE",
"780 793 CURVE",
"737 874 OFFCURVE",
"653 909 OFFCURVE",
"508 909 CURVE SMOOTH",
"494 909 OFFCURVE",
"489 909 OFFCURVE",
"469 907 CURVE SMOOTH",
"301 893 OFFCURVE",
"170 795 OFFCURVE",
"170 657 CURVE SMOOTH"
);
},
{
closed = 1;
nodes = (
"633 178 LINE",
"582 133 OFFCURVE",
"526 98 OFFCURVE",
"436 98 CURVE SMOOTH",
"381 98 OFFCURVE",
"334 135 OFFCURVE",
"334 205 CURVE SMOOTH",
"334 305 OFFCURVE",
"383 377 OFFCURVE",
"633 434 CURVE"
);
},
{
closed = 1;
nodes = (
"1161 844 OFFCURVE",
"1198 756 OFFCURVE",
"1198 664 CURVE SMOOTH",
"1198 641 OFFCURVE",
"1194 621 OFFCURVE",
"1188 598 CURVE",
"827 598 LINE",
"866 776 OFFCURVE",
"965 844 OFFCURVE",
"1047 844 CURVE SMOOTH"
);
}
);
width = 1501;
}
);
unicode = 00E6;
},
{
glyphname = b;
layers = (
{
hints = (
{
place = "{176, 191}";
},
{
place = "{375, -199}";
},
{
horizontal = 1;
place = "{-23, 43}";
},
{
horizontal = 1;
place = "{1491, -20}";
target = down;
type = TopGhost;
},
{
horizontal = 1;
place = "{0, -20}";
target = down;
type = TopGhost;
}
);
layerId = UUID0;
paths = (
{
closed = 1;
nodes = (
"2 1430 OFFCURVE",
"0 1423 OFFCURVE",
"0 1415 CURVE SMOOTH",
"0 1407 OFFCURVE",
"2 1399 OFFCURVE",
"4 1391 CURVE",
"90 1386 OFFCURVE",
"156 1374 OFFCURVE",
"197 1350 CURVE",
"197 1192 OFFCURVE",
"199 866 OFFCURVE",
"199 580 CURVE SMOOTH",
"199 399 OFFCURVE",
"199 197 OFFCURVE",
"197 98 CURVE",
"295 16 OFFCURVE",
"426 -29 OFFCURVE",
"557 -29 CURVE SMOOTH",
"907 -29 OFFCURVE",
"1038 252 OFFCURVE",
"1038 485 CURVE SMOOTH",
"1038 750 OFFCURVE",
"891 909 OFFCURVE",
"690 909 CURVE SMOOTH",
"596 909 OFFCURVE",
"496 874 OFFCURVE",
"377 758 CURVE",
"377 1493 LINE",
"371 1505 OFFCURVE",
"358 1513 OFFCURVE",
"342 1520 CURVE",
"248 1479 OFFCURVE",
"131 1450 OFFCURVE",
"4 1438 CURVE"
);
},
{
closed = 1;
nodes = (
"760 778 OFFCURVE",
"836 623 OFFCURVE",
"836 438 CURVE SMOOTH",
"836 113 OFFCURVE",
"682 37 OFFCURVE",
"592 37 CURVE SMOOTH",
"506 37 OFFCURVE",
"430 72 OFFCURVE",
"381 156 CURVE",
"379 256 OFFCURVE",
"377 457 OFFCURVE",
"377 680 CURVE",
"438 739 OFFCURVE",
"498 778 OFFCURVE",
"594 778 CURVE SMOOTH"
);
}
);
width = 1161;
}
);
unicode = 0062;
},
{
glyphname = c;
layers = (
{
hints = (
{
horizontal = 1;
place = "{-37, 43}";
},
{
horizontal = 1;
place = "{922, -20}";
target = down;
type = TopGhost;
}
);
layerId = UUID0;
paths = (
{
closed = 1;
nodes = (
"836 199 OFFCURVE",
"762 96 OFFCURVE",
"602 96 CURVE SMOOTH",
"401 96 OFFCURVE",
"330 246 OFFCURVE",
"330 424 CURVE SMOOTH",
"330 786 OFFCURVE",
"481 844 OFFCURVE",
"588 844 CURVE SMOOTH",
"694 844 OFFCURVE",
"735 793 OFFCURVE",
"741 772 CURVE",
"702 762 OFFCURVE",
"664 735 OFFCURVE",
"664 676 CURVE SMOOTH",
"664 623 OFFCURVE",
"709 571 OFFCURVE",
"784 571 CURVE SMOOTH",
"852 571 OFFCURVE",
"905 623 OFFCURVE",
"905 694 CURVE SMOOTH",
"905 819 OFFCURVE",
"776 909 OFFCURVE",
"588 909 CURVE SMOOTH",
"328 909 OFFCURVE",
"123 719 OFFCURVE",
"123 424 CURVE SMOOTH",
"123 98 OFFCURVE",
"342 -29 OFFCURVE",
"539 -29 CURVE SMOOTH",
"690 -29 OFFCURVE",
"852 49 OFFCURVE",
"922 238 CURVE",
"913 248 OFFCURVE",
"901 256 OFFCURVE",
"883 260 CURVE"
);
}
);
width = 983;
}
);
unicode = 0063;
},
{
glyphname = d;
layers = (
{
hints = (
{
place = "{754, 190}";
},
{
place = "{762, 182}";
},
{
horizontal = 1;
place = "{-16, 43}";
},
{
horizontal = 1;
place = "{-14, 43}";
},
{
horizontal = 1;
place = "{0, -20}";
target = down;
type = TopGhost;
},
{
horizontal = 1;
place = "{1452, -20}";
target = down;
type = TopGhost;
}
);
layerId = UUID0;
paths = (
{
closed = 1;
nodes = (
"584 1430 OFFCURVE",
"582 1423 OFFCURVE",
"582 1415 CURVE SMOOTH",
"582 1407 OFFCURVE",
"584 1399 OFFCURVE",
"586 1391 CURVE",
"672 1386 OFFCURVE",
"737 1374 OFFCURVE",
"778 1350 CURVE",
"778 1245 OFFCURVE",
"778 1067 OFFCURVE",
"780 877 CURVE",
"723 895 OFFCURVE",
"666 909 OFFCURVE",
"604 909 CURVE SMOOTH",
"254 909 OFFCURVE",
"123 625 OFFCURVE",
"123 403 CURVE SMOOTH",
"123 131 OFFCURVE",
"270 -29 OFFCURVE",
"471 -29 CURVE SMOOTH",
"561 -29 OFFCURVE",
"659 18 OFFCURVE",
"776 133 CURVE",
"776 68 OFFCURVE",
"776 49 OFFCURVE",
"772 25 CURVE",
"778 10 OFFCURVE",
"778 4 OFFCURVE",
"797 -6 CURVE",
"879 -2 OFFCURVE",
"913 2 OFFCURVE",
"948 2 CURVE SMOOTH",
"989 2 OFFCURVE",
"1026 -2 OFFCURVE",
"1116 -6 CURVE",
"1118 2 OFFCURVE",
"1120 8 OFFCURVE",
"1120 16 CURVE SMOOTH",
"1120 25 OFFCURVE",
"1118 33 OFFCURVE",
"1116 41 CURVE",
"1063 49 OFFCURVE",
"969 63 OFFCURVE",
"967 137 CURVE",
"958 360 OFFCURVE",
"958 1057 OFFCURVE",
"958 1493 CURVE",
"952 1505 OFFCURVE",
"940 1513 OFFCURVE",
"924 1520 CURVE",
"829 1479 OFFCURVE",
"713 1450 OFFCURVE",
"586 1438 CURVE"
);
},
{
closed = 1;
nodes = (
"401 102 OFFCURVE",
"326 258 OFFCURVE",
"326 442 CURVE SMOOTH",
"326 780 OFFCURVE",
"479 844 OFFCURVE",
"569 844 CURVE SMOOTH",
"655 844 OFFCURVE",
"731 809 OFFCURVE",
"780 725 CURVE",
"780 580 LINE SMOOTH",
"780 438 OFFCURVE",
"780 307 OFFCURVE",
"778 209 CURVE",
"717 150 OFFCURVE",
"649 102 OFFCURVE",
"567 102 CURVE SMOOTH"
);
}
);
width = 1192;
}
);
unicode = 0064;
},
{
glyphname = eth;
layers = (
{
hints = (
{
place = "{53, 172}";
},
{
place = "{659, 172}";
},
{
horizontal = 1;
place = "{-16, 63}";
},
{
horizontal = 1;
place = "{741, 64}";
},
{
horizontal = 1;
place = "{1268, -20}";
target = down;
type = TopGhost;
}
);
layerId = UUID0;
paths = (
{
closed = 1;
nodes = (
"391 1065 LINE",
"557 1233 LINE",
"653 1118 OFFCURVE",
"719 975 OFFCURVE",
"735 862 CURVE",
"696 891 OFFCURVE",
"618 909 OFFCURVE",
"551 909 CURVE SMOOTH",
"215 909 OFFCURVE",
"123 623 OFFCURVE",
"123 440 CURVE SMOOTH",
"123 72 OFFCURVE",
"381 -29 OFFCURVE",
"551 -29 CURVE SMOOTH",
"733 -29 OFFCURVE",
"983 88 OFFCURVE",
"983 438 CURVE SMOOTH",
"983 758 OFFCURVE",
"934 1032 OFFCURVE",
"639 1311 CURVE",
"791 1462 LINE",
"729 1516 LINE",
"569 1360 LINE",
"496 1413 OFFCURVE",
"377 1479 OFFCURVE",
"295 1516 CURVE",
"264 1464 LINE",
"319 1427 OFFCURVE",
"422 1364 OFFCURVE",
"496 1288 CURVE",
"332 1128 LINE"
);
},
{
closed = 1;
nodes = (
"676 844 OFFCURVE",
"776 735 OFFCURVE",
"776 438 CURVE SMOOTH",
"776 307 OFFCURVE",
"756 37 OFFCURVE",
"551 37 CURVE SMOOTH",
"352 37 OFFCURVE",
"330 307 OFFCURVE",
"330 438 CURVE",
"330 590 OFFCURVE",
"358 844 OFFCURVE",
"551 844 CURVE SMOOTH"
);
}
);
width = 1126;
}
);
unicode = 00F0;
},
{
glyphname = e;
layers = (
{
hints = (
{
horizontal = 1;
place = "{-14, 43}";
},
{
horizontal = 1;
place = "{905, -20}";
target = down;
type = TopGhost;
}
);
layerId = UUID0;
paths = (
{
closed = 1;
nodes = (
"860 530 LINE",
"870 561 OFFCURVE",
"877 596 OFFCURVE",
"877 633 CURVE SMOOTH",
"877 770 OFFCURVE",
"799 909 OFFCURVE",
"569 909 CURVE SMOOTH",
"322 909 OFFCURVE",
"123 709 OFFCURVE",
"123 424 CURVE SMOOTH",
"123 98 OFFCURVE",
"338 -29 OFFCURVE",
"535 -29 CURVE SMOOTH",
"686 -29 OFFCURVE",
"848 49 OFFCURVE",
"918 238 CURVE",
"909 248 OFFCURVE",
"897 256 OFFCURVE",
"879 260 CURVE",
"831 199 OFFCURVE",
"782 96 OFFCURVE",
"623 96 CURVE SMOOTH",
"434 96 OFFCURVE",
"315 227 OFFCURVE",
"311 424 CURVE SMOOTH",
"311 434 LINE SMOOTH",
"311 469 OFFCURVE",
"313 500 OFFCURVE",
"315 530 CURVE"
);
},
{
closed = 1;
nodes = (
"659 844 OFFCURVE",
"696 756 OFFCURVE",
"696 664 CURVE SMOOTH",
"696 641 OFFCURVE",
"692 621 OFFCURVE",
"686 598 CURVE",
"326 598 LINE",
"365 776 OFFCURVE",
"463 844 OFFCURVE",
"545 844 CURVE SMOOTH"
);
}
);
width = 999;
}
);
unicode = 0065;
},
{
glyphname = f;
layers = (
{
hints = (
{
place = "{242, 190}";
},
{
horizontal = 1;
place = "{23, 43}";
},
{
horizontal = 1;
place = "{1483, -20}";
target = down;
type = TopGhost;
}
);
layerId = UUID0;
paths = (
{
closed = 1;
nodes = (
"641 0 OFFCURVE",
"643 6 OFFCURVE",
"643 14 CURVE SMOOTH",
"643 23 OFFCURVE",
"641 31 OFFCURVE",
"639 41 CURVE",
"561 49 OFFCURVE",
"438 63 OFFCURVE",
"436 137 CURVE",
"430 254 OFFCURVE",
"428 510 OFFCURVE",
"428 788 CURVE",
"645 788 LINE",
"649 799 OFFCURVE",
"651 811 OFFCURVE",
"651 823 CURVE SMOOTH",
"651 838 OFFCURVE",
"649 850 OFFCURVE",
"645 860 CURVE",
"428 860 LINE",
"428 1198 LINE SMOOTH",
"428 1346 OFFCURVE",
"524 1438 OFFCURVE",
"643 1438 CURVE SMOOTH",
"717 1438 OFFCURVE",
"750 1432 OFFCURVE",
"778 1386 CURVE",
"733 1370 OFFCURVE",
"711 1327 OFFCURVE",
"711 1292 CURVE SMOOTH",
"711 1239 OFFCURVE",
"754 1198 OFFCURVE",
"827 1198 CURVE SMOOTH",
"903 1198 OFFCURVE",
"952 1262 OFFCURVE",
"952 1329 CURVE SMOOTH",
"952 1446 OFFCURVE",
"842 1520 OFFCURVE",
"707 1520 CURVE SMOOTH",
"397 1520 OFFCURVE",
"250 1253 OFFCURVE",
"250 965 CURVE SMOOTH",
"250 860 LINE",
"115 860 LINE",
"111 850 OFFCURVE",
"109 838 OFFCURVE",
"109 823 CURVE SMOOTH",
"109 811 OFFCURVE",
"111 799 OFFCURVE",
"115 788 CURVE",
"250 788 LINE",
"250 580 LINE",
"250 399 OFFCURVE",
"250 236 OFFCURVE",
"246 137 CURVE",
"244 63 OFFCURVE",
"137 49 OFFCURVE",
"76 41 CURVE",
"74 31 OFFCURVE",
"72 25 OFFCURVE",
"72 16 CURVE SMOOTH",
"72 8 OFFCURVE",
"74 2 OFFCURVE",
"76 -6 CURVE",
"164 -2 OFFCURVE",
"248 0 OFFCURVE",
"330 0 CURVE SMOOTH",
"414 0 OFFCURVE",
"551 -2 OFFCURVE",
"639 -6 CURVE"
);
}
);
width = 741;
}
);
unicode = 0066;
},
{
glyphname = g;
layers = (
{
hints = (
{
horizontal = 1;
place = "{-539, 43}";
},
{
horizontal = 1;
place = "{915, -20}";
target = down;
type = TopGhost;
}
);
layerId = UUID0;
paths = (
{
closed = 1;
nodes = (
"844 668 OFFCURVE",
"819 743 OFFCURVE",
"768 788 CURVE",
"772 793 LINE",
"838 752 OFFCURVE",
"877 711 OFFCURVE",
"942 711 CURVE SMOOTH",
"995 711 OFFCURVE",
"1032 758 OFFCURVE",
"1032 811 CURVE SMOOTH",
"1032 864 OFFCURVE",
"985 913 OFFCURVE",
"936 913 CURVE SMOOTH",
"879 913 OFFCURVE",
"844 868 OFFCURVE",
"838 819 CURVE",
"666 868 OFFCURVE",
"641 909 OFFCURVE",
"485 909 CURVE SMOOTH",
"276 909 OFFCURVE",
"123 737 OFFCURVE",
"123 582 CURVE SMOOTH",
"123 471 OFFCURVE",
"156 365 OFFCURVE",
"303 283 CURVE",
"223 223 OFFCURVE",
"141 152 OFFCURVE",
"141 66 CURVE SMOOTH",
"141 -16 OFFCURVE",
"209 -66 OFFCURVE",
"334 -84 CURVE",
"197 -158 OFFCURVE",
"137 -254 OFFCURVE",
"137 -338 CURVE SMOOTH",
"137 -457 OFFCURVE",
"246 -563 OFFCURVE",
"492 -563 CURVE SMOOTH",
"803 -563 OFFCURVE",
"1014 -317 OFFCURVE",
"1014 -147 CURVE SMOOTH",
"1014 -43 OFFCURVE",
"973 82 OFFCURVE",
"735 82 CURVE SMOOTH",
"668 82 OFFCURVE",
"604 78 OFFCURVE",
"555 78 CURVE SMOOTH",
"367 78 OFFCURVE",
"305 106 OFFCURVE",
"305 164 CURVE SMOOTH",
"305 199 OFFCURVE",
"326 233 OFFCURVE",
"365 258 CURVE",
"389 254 OFFCURVE",
"451 248 OFFCURVE",
"494 248 CURVE SMOOTH",
"680 248 OFFCURVE",
"844 377 OFFCURVE",
"844 596 CURVE SMOOTH"
);
},
{
closed = 1;
nodes = (
"322 -197 OFFCURVE",
"358 -131 OFFCURVE",
"420 -88 CURVE",
"475 -88 OFFCURVE",
"600 -80 OFFCURVE",
"666 -80 CURVE SMOOTH",
"840 -80 OFFCURVE",
"864 -158 OFFCURVE",
"864 -252 CURVE SMOOTH",
"864 -319 OFFCURVE",
"791 -479 OFFCURVE",
"557 -479 CURVE SMOOTH",
"379 -479 OFFCURVE",
"322 -367 OFFCURVE",
"322 -266 CURVE SMOOTH"
);
},
{
closed = 1;
nodes = (
"326 778 OFFCURVE",
"401 844 OFFCURVE",
"481 844 CURVE SMOOTH",
"543 844 OFFCURVE",
"641 797 OFFCURVE",
"641 598 CURVE SMOOTH",
"641 385 OFFCURVE",
"580 313 OFFCURVE",
"485 313 CURVE SMOOTH",
"408 313 OFFCURVE",
"326 362 OFFCURVE",
"326 580 CURVE SMOOTH"
);
}
);
width = 1053;
}
);
unicode = 0067;
},
{
glyphname = h;
layers = (
{
layerId = UUID0;
paths = (
{
closed = 1;
nodes = (
"696 33 OFFCURVE",
"694 27 OFFCURVE",
"694 18 CURVE SMOOTH",
"694 10 OFFCURVE",
"696 2 OFFCURVE",
"698 -6 CURVE",
"784 -2 OFFCURVE",
"858 0 OFFCURVE",
"934 0 CURVE SMOOTH",
"1008 0 OFFCURVE",
"1083 -2 OFFCURVE",
"1169 -6 CURVE",
"1171 0 OFFCURVE",
"1174 6 OFFCURVE",
"1174 14 CURVE SMOOTH",
"1174 23 OFFCURVE",
"1171 31 OFFCURVE",
"1169 41 CURVE",
"1116 49 OFFCURVE",
"1022 63 OFFCURVE",
"1020 137 CURVE",
"1012 645 LINE",
"1010 821 OFFCURVE",
"956 909 OFFCURVE",
"801 909 CURVE SMOOTH",
"668 909 OFFCURVE",
"543 815 OFFCURVE",
"438 725 CURVE",
"438 1493 LINE",
"432 1505 OFFCURVE",
"420 1513 OFFCURVE",
"403 1520 CURVE",
"309 1479 OFFCURVE",
"193 1450 OFFCURVE",
"66 1438 CURVE",
"63 1430 OFFCURVE",
"61 1423 OFFCURVE",
"61 1415 CURVE SMOOTH",
"61 1407 OFFCURVE",
"63 1399 OFFCURVE",
"66 1391 CURVE",
"152 1386 OFFCURVE",
"217 1374 OFFCURVE",
"258 1350 CURVE",
"258 1192 OFFCURVE",
"260 866 OFFCURVE",
"260 580 CURVE SMOOTH",
"260 399 OFFCURVE",
"260 236 OFFCURVE",
"256 137 CURVE",
"254 63 OFFCURVE",
"147 49 OFFCURVE",
"86 41 CURVE",
"84 31 OFFCURVE",
"82 25 OFFCURVE",
"82 16 CURVE SMOOTH",
"82 8 OFFCURVE",
"84 2 OFFCURVE",
"86 -6 CURVE",
"174 -2 OFFCURVE",
"258 0 OFFCURVE",
"340 0 CURVE SMOOTH",
"424 0 OFFCURVE",
"508 -2 OFFCURVE",
"596 -6 CURVE",
"600 0 OFFCURVE",
"602 8 OFFCURVE",
"602 16 CURVE SMOOTH",
"602 25 OFFCURVE",
"600 33 OFFCURVE",
"596 41 CURVE",
"543 49 OFFCURVE",
"449 63 OFFCURVE",
"446 137 CURVE",
"442 238 OFFCURVE",
"440 436 OFFCURVE",
"438 662 CURVE",
"545 739 OFFCURVE",
"643 793 OFFCURVE",
"721 793 CURVE SMOOTH",
"797 793 OFFCURVE",
"829 731 OFFCURVE",
"829 612 CURVE",
"827 137 LINE",
"827 63 OFFCURVE",
"752 49 OFFCURVE",
"698 41 CURVE"
);
}
);
width = 1225;
}
);
unicode = 0068;
},
{
glyphname = i;
layers = (
{
layerId = UUID0;
paths = (
{
closed = 1;
nodes = (
"74 815 OFFCURVE",
"72 809 OFFCURVE",
"72 801 CURVE SMOOTH",
"72 793 OFFCURVE",
"74 784 OFFCURVE",
"76 776 CURVE",
"162 772 OFFCURVE",
"227 760 OFFCURVE",
"268 735 CURVE",
"268 578 OFFCURVE",
"270 483 OFFCURVE",
"270 377 CURVE SMOOTH",
"270 309 OFFCURVE",
"270 236 OFFCURVE",
"266 137 CURVE",
"264 63 OFFCURVE",
"158 49 OFFCURVE",
"96 41 CURVE",
"94 31 OFFCURVE",
"92 25 OFFCURVE",
"92 16 CURVE SMOOTH",
"92 8 OFFCURVE",
"94 2 OFFCURVE",
"96 -6 CURVE",
"184 -2 OFFCURVE",
"268 0 OFFCURVE",
"350 0 CURVE SMOOTH",
"434 0 OFFCURVE",
"518 -2 OFFCURVE",
"606 -6 CURVE",
"610 0 OFFCURVE",
"612 8 OFFCURVE",
"612 16 CURVE SMOOTH",
"612 25 OFFCURVE",
"610 33 OFFCURVE",
"606 41 CURVE",
"553 49 OFFCURVE",
"459 63 OFFCURVE",
"457 137 CURVE",
"449 360 OFFCURVE",
"449 442 OFFCURVE",
"449 879 CURVE",
"442 891 OFFCURVE",
"430 899 OFFCURVE",
"414 905 CURVE",
"319 864 OFFCURVE",
"203 836 OFFCURVE",
"76 823 CURVE"
);
},
{
closed = 1;
nodes = (
"233 1174 OFFCURVE",
"289 1118 OFFCURVE",
"356 1118 CURVE SMOOTH",
"424 1118 OFFCURVE",
"479 1174 OFFCURVE",
"479 1241 CURVE SMOOTH",
"479 1309 OFFCURVE",
"424 1364 OFFCURVE",
"356 1364 CURVE SMOOTH",
"289 1364 OFFCURVE",
"233 1309 OFFCURVE",
"233 1241 CURVE SMOOTH"
);
}
);
width = 674;
}
);
unicode = 0069;
},
{
glyphname = dotlessi;
layers = (
{
layerId = UUID0;
paths = (
{
closed = 1;
nodes = (
"74 815 OFFCURVE",
"72 809 OFFCURVE",
"72 801 CURVE SMOOTH",
"72 793 OFFCURVE",
"74 784 OFFCURVE",
"76 776 CURVE",
"162 772 OFFCURVE",
"227 760 OFFCURVE",
"268 735 CURVE",
"268 578 OFFCURVE",
"270 483 OFFCURVE",
"270 377 CURVE SMOOTH",
"270 309 OFFCURVE",
"270 236 OFFCURVE",
"266 137 CURVE",
"264 63 OFFCURVE",
"158 49 OFFCURVE",
"96 41 CURVE",
"94 31 OFFCURVE",
"92 25 OFFCURVE",
"92 16 CURVE SMOOTH",
"92 8 OFFCURVE",
"94 2 OFFCURVE",
"96 -6 CURVE",
"184 -2 OFFCURVE",
"268 0 OFFCURVE",
"350 0 CURVE SMOOTH",
"434 0 OFFCURVE",
"518 -2 OFFCURVE",
"606 -6 CURVE",
"610 0 OFFCURVE",
"612 8 OFFCURVE",
"612 16 CURVE SMOOTH",
"612 25 OFFCURVE",
"610 33 OFFCURVE",
"606 41 CURVE",
"553 49 OFFCURVE",
"459 63 OFFCURVE",
"457 137 CURVE",
"449 360 OFFCURVE",
"449 442 OFFCURVE",
"449 879 CURVE",
"442 891 OFFCURVE",
"430 899 OFFCURVE",
"414 905 CURVE",
"319 864 OFFCURVE",
"203 836 OFFCURVE",
"76 823 CURVE"
);
}
);
width = 674;
}
);
unicode = 0131;
},
{
glyphname = j;
layers = (
{
hints = (
{
place = "{248, 190}";
},
{
place = "{256, 182}";
},
{
horizontal = 1;
place = "{-549, 43}";
},
{
horizontal = 1;
place = "{-547, 43}";
},
{
horizontal = 1;
place = "{1384, -20}";
target = down;
type = TopGhost;
}
);
layerId = UUID0;
paths = (
{
closed = 1;
nodes = (
"250 -236 LINE",
"250 -432 OFFCURVE",
"207 -498 OFFCURVE",
"123 -498 CURVE SMOOTH",
"86 -498 OFFCURVE",
"43 -485 OFFCURVE",
"33 -438 CURVE",
"94 -428 OFFCURVE",
"121 -379 OFFCURVE",
"121 -336 CURVE SMOOTH",
"121 -266 OFFCURVE",
"78 -225 OFFCURVE",
"6 -225 CURVE SMOOTH",
"-74 -225 OFFCURVE",
"-123 -283 OFFCURVE",
"-123 -358 CURVE SMOOTH",
"-123 -475 OFFCURVE",
"-25 -563 OFFCURVE",
"115 -563 CURVE SMOOTH",
"369 -563 OFFCURVE",
"430 -299 OFFCURVE",
"430 -72 CURVE SMOOTH",
"430 295 OFFCURVE",
"426 442 OFFCURVE",
"426 879 CURVE",
"420 891 OFFCURVE",
"408 899 OFFCURVE",
"391 905 CURVE",
"297 864 OFFCURVE",
"180 836 OFFCURVE",
"53 823 CURVE",
"51 815 OFFCURVE",
"49 809 OFFCURVE",
"49 801 CURVE SMOOTH",
"49 793 OFFCURVE",
"51 784 OFFCURVE",
"53 776 CURVE",
"139 772 OFFCURVE",
"205 760 OFFCURVE",
"246 735 CURVE",
"246 578 OFFCURVE",
"248 483 OFFCURVE",
"248 377 CURVE SMOOTH",
"248 309 OFFCURVE",
"248 236 OFFCURVE",
"250 137 CURVE"
);
},
{
closed = 1;
nodes = (
"211 1174 OFFCURVE",
"266 1118 OFFCURVE",
"334 1118 CURVE SMOOTH",
"401 1118 OFFCURVE",
"457 1174 OFFCURVE",
"457 1241 CURVE SMOOTH",
"457 1309 OFFCURVE",
"401 1364 OFFCURVE",
"334 1364 CURVE SMOOTH",
"266 1364 OFFCURVE",
"211 1309 OFFCURVE",
"211 1241 CURVE SMOOTH"
);
}
);
width = 631;
}
);
unicode = 006A;
},
{
glyphname = k;
layers = (
{
hints = (
{
place = "{274, 183}";
},
{
horizontal = 1;
place = "{23, 43}";
},
{
horizontal = 1;
place = "{20, 43}";
},
{
horizontal = 1;
place = "{1477, -20}";
target = down;
type = TopGhost;
}
);
layerId = UUID0;
paths = (
{
closed = 1;
nodes = (
"694 33 OFFCURVE",
"692 27 OFFCURVE",
"692 18 CURVE SMOOTH",
"692 10 OFFCURVE",
"694 2 OFFCURVE",
"696 -6 CURVE",
"782 -2 OFFCURVE",
"850 0 OFFCURVE",
"926 0 CURVE SMOOTH",
"1004 0 OFFCURVE",
"1073 -2 OFFCURVE",
"1159 -6 CURVE",
"1161 0 OFFCURVE",
"1163 8 OFFCURVE",
"1163 14 CURVE SMOOTH",
"1163 23 OFFCURVE",
"1161 31 OFFCURVE",
"1159 41 CURVE",
"1106 49 OFFCURVE",
"1034 66 OFFCURVE",
"979 137 CURVE",
"627 582 LINE",
"786 743 LINE SMOOTH",
"854 813 OFFCURVE",
"938 829 OFFCURVE",
"1038 840 CURVE",
"1040 850 OFFCURVE",
"1042 858 OFFCURVE",
"1042 866 CURVE SMOOTH",
"1042 872 OFFCURVE",
"1040 881 OFFCURVE",
"1038 887 CURVE",
"952 883 OFFCURVE",
"885 881 OFFCURVE",
"825 881 CURVE SMOOTH",
"731 881 OFFCURVE",
"705 883 OFFCURVE",
"618 887 CURVE",
"616 879 OFFCURVE",
"614 870 OFFCURVE",
"614 862 CURVE SMOOTH",
"614 854 OFFCURVE",
"616 848 OFFCURVE",
"618 840 CURVE",
"657 836 OFFCURVE",
"713 827 OFFCURVE",
"713 788 CURVE SMOOTH",
"713 774 OFFCURVE",
"707 758 OFFCURVE",
"694 743 CURVE",
"492 551 LINE",
"440 551 LINE",
"438 848 OFFCURVE",
"438 1221 OFFCURVE",
"438 1493 CURVE",
"432 1505 OFFCURVE",
"420 1513 OFFCURVE",
"403 1520 CURVE",
"309 1479 OFFCURVE",
"193 1450 OFFCURVE",
"66 1438 CURVE",
"63 1430 OFFCURVE",
"61 1423 OFFCURVE",
"61 1415 CURVE SMOOTH",
"61 1407 OFFCURVE",
"63 1399 OFFCURVE",
"66 1391 CURVE",
"152 1386 OFFCURVE",
"217 1374 OFFCURVE",
"258 1350 CURVE",
"258 1192 OFFCURVE",
"260 866 OFFCURVE",
"260 580 CURVE SMOOTH",
"260 399 OFFCURVE",
"260 236 OFFCURVE",
"256 137 CURVE",
"254 63 OFFCURVE",
"147 49 OFFCURVE",
"86 41 CURVE",
"84 31 OFFCURVE",
"82 25 OFFCURVE",
"82 16 CURVE SMOOTH",
"82 8 OFFCURVE",
"84 2 OFFCURVE",
"86 -6 CURVE",
"174 -2 OFFCURVE",
"258 0 OFFCURVE",
"340 0 CURVE SMOOTH",
"424 0 OFFCURVE",
"502 -2 OFFCURVE",
"590 -6 CURVE",
"594 0 OFFCURVE",
"596 8 OFFCURVE",
"596 16 CURVE SMOOTH",
"596 25 OFFCURVE",
"594 33 OFFCURVE",
"590 41 CURVE",
"537 49 OFFCURVE",
"446 63 OFFCURVE",
"446 137 CURVE",
"442 211 OFFCURVE",
"440 336 OFFCURVE",
"440 487 CURVE",
"489 487 LINE",
"762 137 LINE",
"778 117 OFFCURVE",
"784 100 OFFCURVE",
"784 88 CURVE SMOOTH",
"784 53 OFFCURVE",
"735 45 OFFCURVE",
"696 41 CURVE"
);
}
);
width = 1118;
}
);
unicode = 006B;
},
{
glyphname = l;
layers = (
{
hints = (
{
place = "{180, 182}";
},
{
place = "{371, -191}";
},
{
horizontal = 1;
place = "{14, 43}";
},
{
horizontal = 1;
place = "{1481, -20}";
target = down;
type = TopGhost;
}
);
layerId = UUID0;
paths = (
{
closed = 1;
nodes = (
"63 1430 OFFCURVE",
"61 1423 OFFCURVE",
"61 1415 CURVE SMOOTH",
"61 1407 OFFCURVE",
"63 1399 OFFCURVE",
"66 1391 CURVE",
"152 1386 OFFCURVE",
"217 1374 OFFCURVE",
"258 1350 CURVE",
"258 1192 OFFCURVE",
"260 866 OFFCURVE",
"260 580 CURVE SMOOTH",
"260 399 OFFCURVE",
"260 236 OFFCURVE",
"256 137 CURVE",
"254 63 OFFCURVE",
"147 49 OFFCURVE",
"86 41 CURVE",
"84 31 OFFCURVE",
"82 25 OFFCURVE",
"82 16 CURVE SMOOTH",
"82 8 OFFCURVE",
"84 2 OFFCURVE",
"86 -6 CURVE",
"174 -2 OFFCURVE",
"258 0 OFFCURVE",
"340 0 CURVE SMOOTH",
"424 0 OFFCURVE",
"508 -2 OFFCURVE",
"596 -6 CURVE",
"600 0 OFFCURVE",
"602 8 OFFCURVE",
"602 16 CURVE SMOOTH",
"602 25 OFFCURVE",
"600 33 OFFCURVE",
"596 41 CURVE",
"543 49 OFFCURVE",
"449 63 OFFCURVE",
"446 137 CURVE",
"438 360 OFFCURVE",
"438 1057 OFFCURVE",
"438 1493 CURVE",
"432 1505 OFFCURVE",
"420 1513 OFFCURVE",
"403 1520 CURVE",
"309 1479 OFFCURVE",
"193 1450 OFFCURVE",
"66 1438 CURVE"
);
}
);
width = 664;
}
);
unicode = 006C;
},
{
glyphname = m;
layers = (
{
hints = (
{
place = "{258, 188}";
},
{
place = "{799, 188}";
},
{
place = "{1339, 189}";
},
{
horizontal = 1;
place = "{14, 43}";
},
{
horizontal = 1;
place = "{905, -20}";
target = down;
type = TopGhost;
}
);
layerId = UUID0;
paths = (
{
closed = 1;
nodes = (
"1260 33 OFFCURVE",
"1257 27 OFFCURVE",
"1257 18 CURVE SMOOTH",
"1257 10 OFFCURVE",
"1260 2 OFFCURVE",
"1262 -6 CURVE",
"1348 -2 OFFCURVE",
"1411 0 OFFCURVE",
"1487 0 CURVE SMOOTH",
"1565 0 OFFCURVE",
"1638 -2 OFFCURVE",
"1724 -6 CURVE",
"1726 0 OFFCURVE",
"1729 8 OFFCURVE",
"1729 14 CURVE SMOOTH",
"1729 23 OFFCURVE",
"1726 31 OFFCURVE",
"1724 41 CURVE",
"1671 49 OFFCURVE",
"1577 63 OFFCURVE",
"1575 137 CURVE",
"1565 645 LINE",
"1563 821 OFFCURVE",
"1509 909 OFFCURVE",
"1354 909 CURVE SMOOTH",
"1217 909 OFFCURVE",
"1104 809 OFFCURVE",
"1001 717 CURVE",
"985 846 OFFCURVE",
"928 909 OFFCURVE",
"795 909 CURVE SMOOTH",
"659 909 OFFCURVE",
"549 813 OFFCURVE",
"449 721 CURVE",
"449 879 LINE",
"442 891 OFFCURVE",
"430 899 OFFCURVE",
"414 905 CURVE",
"319 864 OFFCURVE",
"203 836 OFFCURVE",
"76 823 CURVE",
"74 815 OFFCURVE",
"72 809 OFFCURVE",
"72 801 CURVE SMOOTH",
"72 793 OFFCURVE",
"74 784 OFFCURVE",
"76 776 CURVE",
"162 772 OFFCURVE",
"227 760 OFFCURVE",
"268 735 CURVE",
"268 578 OFFCURVE",
"270 483 OFFCURVE",
"270 377 CURVE SMOOTH",
"270 309 OFFCURVE",
"270 236 OFFCURVE",
"266 137 CURVE SMOOTH",
"264 63 OFFCURVE",
"158 49 OFFCURVE",
"96 41 CURVE",
"94 31 OFFCURVE",
"92 25 OFFCURVE",
"92 16 CURVE SMOOTH",
"92 8 OFFCURVE",
"94 2 OFFCURVE",
"96 -6 CURVE",
"184 -2 OFFCURVE",
"268 0 OFFCURVE",
"350 0 CURVE SMOOTH",
"434 0 OFFCURVE",
"508 -2 OFFCURVE",
"596 -6 CURVE",
"600 2 OFFCURVE",
"602 10 OFFCURVE",
"602 16 CURVE SMOOTH",
"602 25 OFFCURVE",
"600 33 OFFCURVE",
"596 41 CURVE",
"543 49 OFFCURVE",
"459 63 OFFCURVE",
"457 137 CURVE SMOOTH",
"451 309 OFFCURVE",
"449 424 OFFCURVE",
"449 659 CURVE",
"553 737 OFFCURVE",
"637 793 OFFCURVE",
"715 793 CURVE SMOOTH",
"791 793 OFFCURVE",
"823 731 OFFCURVE",
"823 612 CURVE",
"821 137 LINE",
"821 63 OFFCURVE",
"756 49 OFFCURVE",
"702 41 CURVE",
"700 33 OFFCURVE",
"698 27 OFFCURVE",
"698 18 CURVE SMOOTH",
"698 10 OFFCURVE",
"700 2 OFFCURVE",
"702 -6 CURVE",
"788 -2 OFFCURVE",
"852 0 OFFCURVE",
"928 0 CURVE SMOOTH",
"1006 0 OFFCURVE",
"1077 -2 OFFCURVE",
"1163 -6 CURVE",
"1165 0 OFFCURVE",
"1167 8 OFFCURVE",
"1167 14 CURVE SMOOTH",
"1167 23 OFFCURVE",
"1165 31 OFFCURVE",
"1163 41 CURVE",
"1110 49 OFFCURVE",
"1016 63 OFFCURVE",
"1014 137 CURVE",
"1006 645 LINE",
"1006 657 LINE",
"1110 737 OFFCURVE",
"1196 793 OFFCURVE",
"1274 793 CURVE SMOOTH",
"1350 793 OFFCURVE",
"1382 731 OFFCURVE",
"1382 612 CURVE",
"1380 137 LINE",
"1380 63 OFFCURVE",
"1315 49 OFFCURVE",
"1262 41 CURVE"
);
}
);
width = 1780;
}
);
unicode = 006D;
},
{
glyphname = n;
layers = (
{
layerId = UUID0;
paths = (
{
closed = 1;
nodes = (
"553 49 OFFCURVE",
"459 63 OFFCURVE",
"457 137 CURVE",
"451 309 OFFCURVE",
"449 424 OFFCURVE",
"449 657 CURVE",
"557 737 OFFCURVE",
"657 793 OFFCURVE",
"735 793 CURVE SMOOTH",
"811 793 OFFCURVE",
"844 731 OFFCURVE",
"844 612 CURVE",
"842 137 LINE",
"842 63 OFFCURVE",
"766 49 OFFCURVE",
"713 41 CURVE",
"711 33 OFFCURVE",
"709 27 OFFCURVE",
"709 18 CURVE SMOOTH",
"709 10 OFFCURVE",
"711 2 OFFCURVE",
"713 -6 CURVE",
"799 -2 OFFCURVE",
"872 0 OFFCURVE",
"948 0 CURVE SMOOTH",
"1026 0 OFFCURVE",
"1100 -2 OFFCURVE",
"1186 -6 CURVE",
"1188 0 OFFCURVE",
"1190 8 OFFCURVE",
"1190 14 CURVE SMOOTH",
"1190 23 OFFCURVE",
"1188 31 OFFCURVE",
"1186 41 CURVE",
"1133 49 OFFCURVE",
"1038 63 OFFCURVE",
"1036 137 CURVE",
"1026 645 LINE",
"1024 821 OFFCURVE",
"971 909 OFFCURVE",
"815 909 CURVE SMOOTH",
"680 909 OFFCURVE",
"553 813 OFFCURVE",
"449 721 CURVE",
"449 879 LINE",
"442 891 OFFCURVE",
"430 899 OFFCURVE",
"414 905 CURVE",
"319 864 OFFCURVE",
"203 836 OFFCURVE",
"76 823 CURVE",
"74 815 OFFCURVE",
"72 809 OFFCURVE",
"72 801 CURVE SMOOTH",
"72 793 OFFCURVE",
"74 784 OFFCURVE",
"76 776 CURVE",
"162 772 OFFCURVE",
"227 760 OFFCURVE",
"268 735 CURVE",
"268 578 OFFCURVE",
"270 483 OFFCURVE",
"270 377 CURVE SMOOTH",
"270 309 OFFCURVE",
"270 236 OFFCURVE",
"266 137 CURVE",
"264 63 OFFCURVE",
"158 49 OFFCURVE",
"96 41 CURVE",
"94 31 OFFCURVE",
"92 25 OFFCURVE",
"92 16 CURVE SMOOTH",
"92 8 OFFCURVE",
"94 2 OFFCURVE",
"96 -6 CURVE",
"184 -2 OFFCURVE",
"268 0 OFFCURVE",
"350 0 CURVE SMOOTH",
"434 0 OFFCURVE",
"518 -2 OFFCURVE",
"606 -6 CURVE",
"610 2 OFFCURVE",
"612 10 OFFCURVE",
"612 16 CURVE SMOOTH",
"612 25 OFFCURVE",
"610 33 OFFCURVE",
"606 41 CURVE"
);
}
);
width = 1241;
}
);
unicode = 006E;
},
{
glyphname = o;
layers = (
{
hints = (
{
horizontal = 1;
place = "{-14, 43}";
},
{
horizontal = 1;
place = "{0, -20}";
target = down;
type = TopGhost;
},
{
horizontal = 1;
place = "{920, -20}";
target = down;
type = TopGhost;
}
);
layerId = UUID0;
paths = (
{
closed = 1;
nodes = (
"821 -29 OFFCURVE",
"983 170 OFFCURVE",
"983 440 CURVE SMOOTH",
"983 711 OFFCURVE",
"821 909 OFFCURVE",
"553 909 CURVE SMOOTH",
"285 909 OFFCURVE",
"123 711 OFFCURVE",
"123 440 CURVE SMOOTH",
"123 170 OFFCURVE",
"285 -29 OFFCURVE",
"553 -29 CURVE SMOOTH"
);
},
{
closed = 1;
nodes = (
"330 729 OFFCURVE",
"426 844 OFFCURVE",
"553 844 CURVE SMOOTH",
"680 844 OFFCURVE",
"776 729 OFFCURVE",
"776 440 CURVE SMOOTH",
"776 152 OFFCURVE",
"680 37 OFFCURVE",
"553 37 CURVE SMOOTH",
"426 37 OFFCURVE",
"330 152 OFFCURVE",
"330 440 CURVE SMOOTH"
);
}
);
width = 1106;
}
);
unicode = 006F;
},
{
glyphname = oslash;
layers = (
{
hints = (
{
place = "{66, 194}";
},
{
place = "{750, 194}";
},
{
horizontal = 1;
place = "{-18, 71}";
},
{
horizontal = 1;
place = "{838, 71}";
},
{
horizontal = 1;
place = "{-14, 43}";
},
{
horizontal = 1;
place = "{0, -20}";
target = down;
type = TopGhost;
},
{
horizontal = 1;
place = "{920, -20}";
target = down;
type = TopGhost;
}
);
layerId = UUID0;
paths = (
{
closed = 1;
nodes = (
"137 -43 LINE",
"213 -98 LINE",
"311 39 LINE",
"377 -4 OFFCURVE",
"459 -29 OFFCURVE",
"553 -29 CURVE SMOOTH",
"821 -29 OFFCURVE",
"983 170 OFFCURVE",
"983 440 CURVE SMOOTH",
"983 582 OFFCURVE",
"938 705 OFFCURVE",
"856 788 CURVE",
"963 934 LINE",
"887 989 LINE",
"784 848 LINE",
"721 887 OFFCURVE",
"641 909 OFFCURVE",
"553 909 CURVE SMOOTH",
"285 909 OFFCURVE",
"123 711 OFFCURVE",
"123 440 CURVE SMOOTH",
"123 303 OFFCURVE",
"164 184 OFFCURVE",
"242 100 CURVE"
);
},
{
closed = 1;
nodes = (
"485 37 OFFCURVE",
"426 68 OFFCURVE",
"387 141 CURVE",
"754 645 LINE",
"768 590 OFFCURVE",
"776 522 OFFCURVE",
"776 440 CURVE SMOOTH",
"776 152 OFFCURVE",
"680 37 OFFCURVE",
"553 37 CURVE SMOOTH"
);
},
{
closed = 1;
nodes = (
"330 729 OFFCURVE",
"426 844 OFFCURVE",
"553 844 CURVE SMOOTH",
"616 844 OFFCURVE",
"672 815 OFFCURVE",
"713 750 CURVE",
"348 248 LINE",
"336 301 OFFCURVE",
"330 365 OFFCURVE",
"330 440 CURVE SMOOTH"
);
}
);
width = 1106;
}
);
unicode = 00F8;
},
{
glyphname = oe;
layers = (
{
hints = (
{
place = "{741, 189}";
},
{
place = "{1296, 185}";
},
{
place = "{59, 195}";
},
{
horizontal = 1;
place = "{838, 71}";
},
{
horizontal = 1;
place = "{514, 72}";
},
{
horizontal = 1;
place = "{-18, 71}";
},
{
horizontal = 1;
place = "{-14, 43}";
},
{
horizontal = 1;
place = "{0, -20}";
target = down;
type = TopGhost;
},
{
horizontal = 1;
place = "{920, -20}";
target = down;
type = TopGhost;
},
{
horizontal = 1;
place = "{-14, 43}";
},
{
horizontal = 1;
place = "{905, -20}";
target = down;
type = TopGhost;
}
);
layerId = UUID0;
paths = (
{
closed = 1;
nodes = (
"1485 199 OFFCURVE",
"1436 96 OFFCURVE",
"1276 96 CURVE SMOOTH",
"1087 96 OFFCURVE",
"969 227 OFFCURVE",
"965 424 CURVE",
"965 479 OFFCURVE",
"967 506 OFFCURVE",
"969 530 CURVE",
"1513 530 LINE",
"1524 561 OFFCURVE",
"1530 596 OFFCURVE",
"1530 633 CURVE SMOOTH",
"1530 770 OFFCURVE",
"1452 909 OFFCURVE",
"1223 909 CURVE SMOOTH",
"1075 909 OFFCURVE",
"963 842 OFFCURVE",
"883 743 CURVE",
"815 846 OFFCURVE",
"702 909 OFFCURVE",
"553 909 CURVE SMOOTH",
"285 909 OFFCURVE",
"123 711 OFFCURVE",
"123 440 CURVE SMOOTH",
"123 170 OFFCURVE",
"285 -29 OFFCURVE",
"553 -29 CURVE SMOOTH",
"694 -29 OFFCURVE",
"799 25 OFFCURVE",
"868 117 CURVE",
"950 14 OFFCURVE",
"1071 -29 OFFCURVE",
"1188 -29 CURVE SMOOTH",
"1339 -29 OFFCURVE",
"1501 49 OFFCURVE",
"1571 238 CURVE",
"1563 248 OFFCURVE",
"1550 256 OFFCURVE",
"1532 260 CURVE"
);
},
{
closed = 1;
nodes = (
"330 729 OFFCURVE",
"426 844 OFFCURVE",
"553 844 CURVE SMOOTH",
"680 844 OFFCURVE",
"776 729 OFFCURVE",
"776 440 CURVE SMOOTH",
"776 147 OFFCURVE",
"678 37 OFFCURVE",
"553 37 CURVE SMOOTH",
"426 37 OFFCURVE",
"330 152 OFFCURVE",
"330 440 CURVE SMOOTH"
);
},
{
closed = 1;
nodes = (
"1313 844 OFFCURVE",
"1350 756 OFFCURVE",
"1350 664 CURVE SMOOTH",
"1350 641 OFFCURVE",
"1346 621 OFFCURVE",
"1339 598 CURVE",
"979 598 LINE",
"1018 776 OFFCURVE",
"1116 844 OFFCURVE",
"1198 844 CURVE SMOOTH"
);
}
);
width = 1667;
}
);
unicode = 0153;
},
{
glyphname = p;
layers = (
{
background = {
paths = (
{
closed = 1;
nodes = (
"12 815 OFFCURVE",
"10 809 OFFCURVE",
"10 801 CURVE SMOOTH",
"10 793 OFFCURVE",
"12 784 OFFCURVE",
"14 776 CURVE",
"100 772 OFFCURVE",
"166 760 OFFCURVE",
"207 735 CURVE",
"207 578 OFFCURVE",
"209 334 OFFCURVE",
"209 47 CURVE SMOOTH",
"209 -133 OFFCURVE",
"209 -297 OFFCURVE",
"205 -395 CURVE SMOOTH",
"203 -469 OFFCURVE",
"96 -483 OFFCURVE",
"35 -492 CURVE",
"33 -502 OFFCURVE",
"31 -508 OFFCURVE",
"31 -516 CURVE SMOOTH",
"31 -524 OFFCURVE",
"33 -530 OFFCURVE",
"35 -539 CURVE",
"123 -535 OFFCURVE",
"207 -532 OFFCURVE",
"289 -532 CURVE SMOOTH",
"373 -532 OFFCURVE",
"457 -535 OFFCURVE",
"545 -539 CURVE",
"549 -532 OFFCURVE",
"551 -524 OFFCURVE",
"551 -516 CURVE SMOOTH",
"551 -508 OFFCURVE",
"549 -500 OFFCURVE",
"545 -492 CURVE",
"492 -483 OFFCURVE",
"397 -469 OFFCURVE",
"395 -395 CURVE SMOOTH",
"391 -309 OFFCURVE",
"389 -162 OFFCURVE",
"389 6 CURVE",
"444 -16 OFFCURVE",
"506 -29 OFFCURVE",
"569 -29 CURVE SMOOTH",
"913 -29 OFFCURVE",
"1044 252 OFFCURVE",
"1044 485 CURVE SMOOTH",
"1044 750 OFFCURVE",
"897 909 OFFCURVE",
"696 909 CURVE SMOOTH",
"604 909 OFFCURVE",
"504 874 OFFCURVE",
"387 762 CURVE",
"387 879 LINE",
"381 891 OFFCURVE",
"369 899 OFFCURVE",
"352 905 CURVE",
"258 864 OFFCURVE",
"141 836 OFFCURVE",
"14 823 CURVE"
);
},
{
closed = 1;
nodes = (
"766 778 OFFCURVE",
"842 623 OFFCURVE",
"842 438 CURVE SMOOTH",
"842 113 OFFCURVE",
"688 37 OFFCURVE",
"598 37 CURVE SMOOTH",
"512 37 OFFCURVE",
"434 63 OFFCURVE",
"387 164 CURVE",
"387 684 LINE",
"446 739 OFFCURVE",
"506 778 OFFCURVE",
"600 778 CURVE SMOOTH"
);
}
);
};
hints = (
{
place = "{197, 190}";
},
{
horizontal = 1;
place = "{-516, 43}";
},
{
horizontal = 1;
place = "{0, -20}";
target = down;
type = TopGhost;
},
{
horizontal = 1;
place = "{905, -20}";
target = down;
type = TopGhost;
}
);
layerId = UUID0;
paths = (
{
closed = 1;
nodes = (
"12 815 OFFCURVE",
"10 809 OFFCURVE",
"10 801 CURVE SMOOTH",
"10 793 OFFCURVE",
"12 784 OFFCURVE",
"14 776 CURVE",
"100 772 OFFCURVE",
"166 760 OFFCURVE",
"207 735 CURVE",
"207 578 OFFCURVE",
"209 334 OFFCURVE",
"209 47 CURVE SMOOTH",
"209 -133 OFFCURVE",
"209 -297 OFFCURVE",
"205 -395 CURVE",
"203 -469 OFFCURVE",
"96 -483 OFFCURVE",
"35 -492 CURVE",
"33 -502 OFFCURVE",
"31 -508 OFFCURVE",
"31 -516 CURVE SMOOTH",
"31 -524 OFFCURVE",
"33 -530 OFFCURVE",
"35 -539 CURVE",
"123 -535 OFFCURVE",
"207 -532 OFFCURVE",
"289 -532 CURVE SMOOTH",
"403 -532 OFFCURVE",
"508 -535 OFFCURVE",
"627 -539 CURVE",
"631 -532 OFFCURVE",
"633 -524 OFFCURVE",
"633 -516 CURVE SMOOTH",
"633 -508 OFFCURVE",
"631 -500 OFFCURVE",
"627 -492 CURVE",
"532 -483 OFFCURVE",
"397 -469 OFFCURVE",
"395 -395 CURVE",
"391 -309 OFFCURVE",
"389 -162 OFFCURVE",
"389 6 CURVE",
"444 -16 OFFCURVE",
"506 -29 OFFCURVE",
"569 -29 CURVE SMOOTH",
"913 -29 OFFCURVE",
"1044 252 OFFCURVE",
"1044 485 CURVE SMOOTH",
"1044 750 OFFCURVE",
"897 909 OFFCURVE",
"696 909 CURVE SMOOTH",
"604 909 OFFCURVE",
"504 874 OFFCURVE",
"387 762 CURVE",
"387 879 LINE",
"381 891 OFFCURVE",
"369 899 OFFCURVE",
"352 905 CURVE",
"258 864 OFFCURVE",
"141 836 OFFCURVE",
"14 823 CURVE"
);
},
{
closed = 1;
nodes = (
"766 778 OFFCURVE",
"842 623 OFFCURVE",
"842 438 CURVE SMOOTH",
"842 113 OFFCURVE",
"688 37 OFFCURVE",
"598 37 CURVE SMOOTH",
"512 37 OFFCURVE",
"434 63 OFFCURVE",
"387 164 CURVE",
"387 684 LINE",
"446 739 OFFCURVE",
"506 778 OFFCURVE",
"600 778 CURVE SMOOTH"
);
}
);
width = 1167;
}
);
unicode = 0070;
},
{
glyphname = thorn;
layers = (
{
hints = (
{
place = "{131, 170}";
},
{
place = "{799, 194}";
},
{
place = "{197, 190}";
},
{
horizontal = 1;
place = "{-426, 68}";
},
{
horizontal = 1;
place = "{-18, 71}";
},
{
horizontal = 1;
place = "{838, 69}";
},
{
horizontal = 1;
place = "{1620, -47}";
},
{
horizontal = 1;
place = "{-516, 43}";
},
{
horizontal = 1;
place = "{0, -20}";
target = down;
type = TopGhost;
},
{
horizontal = 1;
place = "{905, -20}";
target = down;
type = TopGhost;
}
);
layerId = UUID0;
paths = (
{
closed = 1;
nodes = (
"492 -483 OFFCURVE",
"395 -469 OFFCURVE",
"395 -395 CURVE",
"391 -330 OFFCURVE",
"387 -180 OFFCURVE",
"385 6 CURVE",
"442 -16 OFFCURVE",
"504 -29 OFFCURVE",
"569 -29 CURVE SMOOTH",
"913 -29 OFFCURVE",
"1044 252 OFFCURVE",
"1044 485 CURVE SMOOTH",
"1044 750 OFFCURVE",
"897 909 OFFCURVE",
"696 909 CURVE SMOOTH",
"604 909 OFFCURVE",
"504 874 OFFCURVE",
"385 760 CURVE",
"385 1053 OFFCURVE",
"387 1329 OFFCURVE",
"387 1493 CURVE",
"381 1505 OFFCURVE",
"369 1513 OFFCURVE",
"352 1520 CURVE",
"258 1479 OFFCURVE",
"141 1450 OFFCURVE",
"14 1438 CURVE",
"12 1430 OFFCURVE",
"10 1423 OFFCURVE",
"10 1415 CURVE SMOOTH",
"10 1407 OFFCURVE",
"12 1399 OFFCURVE",
"14 1391 CURVE",
"100 1386 OFFCURVE",
"166 1374 OFFCURVE",
"207 1350 CURVE",
"207 1192 OFFCURVE",
"209 641 OFFCURVE",
"209 354 CURVE SMOOTH",
"209 174 OFFCURVE",
"209 -297 OFFCURVE",
"205 -395 CURVE",
"203 -469 OFFCURVE",
"96 -483 OFFCURVE",
"35 -492 CURVE",
"33 -502 OFFCURVE",
"31 -508 OFFCURVE",
"31 -516 CURVE SMOOTH",
"31 -524 OFFCURVE",
"33 -530 OFFCURVE",
"35 -539 CURVE",
"123 -535 OFFCURVE",
"207 -532 OFFCURVE",
"289 -532 CURVE SMOOTH",
"373 -532 OFFCURVE",
"457 -535 OFFCURVE",
"545 -539 CURVE",
"549 -532 OFFCURVE",
"551 -524 OFFCURVE",
"551 -516 CURVE SMOOTH",
"551 -508 OFFCURVE",
"549 -500 OFFCURVE",
"545 -492 CURVE"
);
},
{
closed = 1;
nodes = (
"385 162 LINE",
"385 682 LINE",
"446 739 OFFCURVE",
"506 778 OFFCURVE",
"600 778 CURVE SMOOTH",
"766 778 OFFCURVE",
"842 623 OFFCURVE",
"842 438 CURVE SMOOTH",
"842 113 OFFCURVE",
"688 37 OFFCURVE",
"598 37 CURVE SMOOTH",
"512 37 OFFCURVE",
"434 63 OFFCURVE",
"387 166 CURVE"
);
}
);
width = 1167;
}
);
unicode = 00FE;
},
{
glyphname = q;
layers = (
{
hints = (
{
place = "{780, 174}";
},
{
place = "{963, -183}";
},
{
horizontal = 1;
place = "{-516, 43}";
},
{
horizontal = 1;
place = "{907, -20}";
target = down;
type = TopGhost;
}
);
layerId = UUID0;
paths = (
{
closed = 1;
nodes = (
"961 -172 OFFCURVE",
"961 373 OFFCURVE",
"961 809 CURVE",
"954 827 OFFCURVE",
"946 836 OFFCURVE",
"930 844 CURVE",
"827 858 OFFCURVE",
"715 909 OFFCURVE",
"604 909 CURVE SMOOTH",
"254 909 OFFCURVE",
"123 625 OFFCURVE",
"123 403 CURVE SMOOTH",
"123 131 OFFCURVE",
"270 -29 OFFCURVE",
"471 -29 CURVE SMOOTH",
"565 -29 OFFCURVE",
"662 23 OFFCURVE",
"782 150 CURVE",
"782 47 LINE",
"782 -133 OFFCURVE",
"782 -297 OFFCURVE",
"778 -395 CURVE",
"778 -469 OFFCURVE",
"633 -483 OFFCURVE",
"547 -492 CURVE",
"545 -502 OFFCURVE",
"543 -508 OFFCURVE",
"543 -516 CURVE SMOOTH",
"543 -524 OFFCURVE",
"545 -530 OFFCURVE",
"547 -539 CURVE",
"653 -535 OFFCURVE",
"762 -532 OFFCURVE",
"862 -532 CURVE SMOOTH",
"946 -532 OFFCURVE",
"1030 -535 OFFCURVE",
"1118 -539 CURVE",
"1122 -532 OFFCURVE",
"1124 -524 OFFCURVE",
"1124 -516 CURVE SMOOTH",
"1124 -508 OFFCURVE",
"1122 -500 OFFCURVE",
"1118 -492 CURVE",
"1065 -483 OFFCURVE",
"969 -469 OFFCURVE",
"969 -395 CURVE"
);
},
{
closed = 1;
nodes = (
"401 102 OFFCURVE",
"326 258 OFFCURVE",
"326 442 CURVE SMOOTH",
"326 780 OFFCURVE",
"479 844 OFFCURVE",
"569 844 CURVE SMOOTH",
"645 844 OFFCURVE",
"725 817 OFFCURVE",
"780 715 CURVE",
"780 592 OFFCURVE",
"780 424 OFFCURVE",
"782 227 CURVE",
"719 162 OFFCURVE",
"645 102 OFFCURVE",
"567 102 CURVE SMOOTH"
);
}
);
width = 1145;
}
);
unicode = 0071;
},
{
glyphname = r;
layers = (
{
hints = (
{
place = "{188, 189}";
},
{
horizontal = 1;
place = "{23, 53}";
},
{
horizontal = 1;
place = "{20, 43}";
},
{
horizontal = 1;
place = "{903, -20}";
target = down;
type = TopGhost;
}
);
layerId = UUID0;
paths = (
{
closed = 1;
nodes = (
"578 49 OFFCURVE",
"459 63 OFFCURVE",
"457 137 CURVE",
"451 289 OFFCURVE",
"449 387 OFFCURVE",
"449 563 CURVE",
"467 651 OFFCURVE",
"561 745 OFFCURVE",
"610 766 CURVE",
"614 696 OFFCURVE",
"659 651 OFFCURVE",
"725 651 CURVE SMOOTH",
"793 651 OFFCURVE",
"848 694 OFFCURVE",
"848 776 CURVE SMOOTH",
"848 860 OFFCURVE",
"791 909 OFFCURVE",
"713 909 CURVE SMOOTH",
"594 909 OFFCURVE",
"487 780 OFFCURVE",
"449 707 CURVE",
"449 879 LINE",
"442 891 OFFCURVE",
"430 899 OFFCURVE",
"414 905 CURVE",
"319 864 OFFCURVE",
"203 836 OFFCURVE",
"76 823 CURVE",
"74 815 OFFCURVE",
"72 809 OFFCURVE",
"72 801 CURVE SMOOTH",
"72 793 OFFCURVE",
"74 784 OFFCURVE",
"76 776 CURVE",
"162 772 OFFCURVE",
"227 760 OFFCURVE",
"268 735 CURVE",
"268 578 OFFCURVE",
"270 483 OFFCURVE",
"270 377 CURVE SMOOTH",
"270 309 OFFCURVE",
"270 236 OFFCURVE",
"266 137 CURVE",
"264 63 OFFCURVE",
"158 49 OFFCURVE",
"96 41 CURVE",
"94 31 OFFCURVE",
"92 25 OFFCURVE",
"92 16 CURVE SMOOTH",
"92 8 OFFCURVE",
"94 2 OFFCURVE",
"96 -6 CURVE",
"184 -2 OFFCURVE",
"268 0 OFFCURVE",
"350 0 CURVE SMOOTH",
"446 0 OFFCURVE",
"547 -2 OFFCURVE",
"647 -6 CURVE",
"651 2 OFFCURVE",
"653 10 OFFCURVE",
"653 16 CURVE SMOOTH",
"653 25 OFFCURVE",
"651 33 OFFCURVE",
"647 41 CURVE"
);
}
);
width = 899;
}
);
unicode = 0072;
},
{
glyphname = s;
layers = (
{
hints = (
{
horizontal = 1;
place = "{-6, 43}";
},
{
horizontal = 1;
place = "{-8, 43}";
},
{
horizontal = 1;
place = "{934, -20}";
target = down;
type = TopGhost;
},
{
horizontal = 1;
place = "{936, -20}";
target = down;
type = TopGhost;
}
);
layerId = UUID0;
paths = (
{
closed = 1;
nodes = (
"651 -29 OFFCURVE",
"795 111 OFFCURVE",
"795 248 CURVE SMOOTH",
"795 412 OFFCURVE",
"707 459 OFFCURVE",
"512 537 CURVE SMOOTH",
"342 606 OFFCURVE",
"260 643 OFFCURVE",
"260 739 CURVE SMOOTH",
"260 815 OFFCURVE",
"338 844 OFFCURVE",
"406 844 CURVE SMOOTH",
"514 844 OFFCURVE",
"588 762 OFFCURVE",
"680 651 CURVE",
"690 651 OFFCURVE",
"711 655 OFFCURVE",
"719 664 CURVE",
"690 741 OFFCURVE",
"670 831 OFFCURVE",
"657 909 CURVE",
"631 909 LINE",
"610 903 OFFCURVE",
"596 895 OFFCURVE",
"559 887 CURVE SMOOTH",
"522 895 OFFCURVE",
"485 909 OFFCURVE",
"424 909 CURVE SMOOTH",
"182 909 OFFCURVE",
"123 760 OFFCURVE",
"123 662 CURVE SMOOTH",
"123 512 OFFCURVE",
"258 446 OFFCURVE",
"422 387 CURVE SMOOTH",
"608 319 OFFCURVE",
"637 262 OFFCURVE",
"637 184 CURVE SMOOTH",
"637 115 OFFCURVE",
"575 37 OFFCURVE",
"451 37 CURVE SMOOTH",
"295 37 OFFCURVE",
"233 156 OFFCURVE",
"190 293 CURVE",
"180 293 OFFCURVE",
"156 293 OFFCURVE",
"143 287 CURVE",
"143 182 OFFCURVE",
"129 31 OFFCURVE",
"123 12 CURVE",
"127 4 OFFCURVE",
"131 0 OFFCURVE",
"141 -6 CURVE",
"162 2 OFFCURVE",
"229 23 OFFCURVE",
"256 23 CURVE SMOOTH",
"313 -6 OFFCURVE",
"360 -29 OFFCURVE",
"463 -29 CURVE SMOOTH"
);
}
);
width = 897;
}
);
unicode = 0073;
},
{
glyphname = germandbls;
layers = (
{
hints = (
{
place = "{166, 172}";
},
{
place = "{784, 195}";
},
{
place = "{698, 176}";
},
{
place = "{469, 184}";
},
{
horizontal = 1;
place = "{1548, 72}";
},
{
horizontal = 1;
place = "{823, 68}";
},
{
horizontal = 1;
place = "{0, 68}";
},
{
horizontal = 1;
place = "{-18, 57}";
}
);
layerId = UUID0;
paths = (
{
closed = 1;
nodes = (
"240 580 LINE",
"240 399 OFFCURVE",
"240 236 OFFCURVE",
"236 137 CURVE",
"233 63 OFFCURVE",
"127 49 OFFCURVE",
"66 41 CURVE",
"63 31 OFFCURVE",
"61 25 OFFCURVE",
"61 16 CURVE SMOOTH",
"61 8 OFFCURVE",
"63 2 OFFCURVE",
"66 -6 CURVE",
"154 -2 OFFCURVE",
"238 0 OFFCURVE",
"319 0 CURVE",
"434 0 LINE",
"426 137 LINE",
"420 272 OFFCURVE",
"418 586 OFFCURVE",
"418 909 CURVE",
"418 1200 LINE",
"418 1425 OFFCURVE",
"541 1454 OFFCURVE",
"618 1454 CURVE SMOOTH",
"768 1454 OFFCURVE",
"776 1284 OFFCURVE",
"776 1190 CURVE SMOOTH",
"776 1012 OFFCURVE",
"743 834 OFFCURVE",
"532 834 CURVE",
"508 834 LINE",
"508 772 LINE",
"537 772 LINE",
"831 772 OFFCURVE",
"854 565 OFFCURVE",
"854 414 CURVE SMOOTH",
"854 74 OFFCURVE",
"803 33 OFFCURVE",
"731 33 CURVE SMOOTH",
"700 33 OFFCURVE",
"680 45 OFFCURVE",
"670 59 CURVE",
"713 84 OFFCURVE",
"725 109 OFFCURVE",
"725 150 CURVE SMOOTH",
"725 203 OFFCURVE",
"680 229 OFFCURVE",
"637 229 CURVE SMOOTH",
"594 229 OFFCURVE",
"543 207 OFFCURVE",
"543 129 CURVE SMOOTH",
"543 59 OFFCURVE",
"590 -29 OFFCURVE",
"737 -29 CURVE SMOOTH",
"952 -29 OFFCURVE",
"1061 209 OFFCURVE",
"1061 414 CURVE SMOOTH",
"1061 659 OFFCURVE",
"944 805 OFFCURVE",
"729 817 CURVE",
"729 825 LINE",
"928 881 OFFCURVE",
"977 1034 OFFCURVE",
"977 1190 CURVE SMOOTH",
"977 1440 OFFCURVE",
"774 1520 OFFCURVE",
"618 1520 CURVE SMOOTH",
"504 1520 OFFCURVE",
"240 1479 OFFCURVE",
"240 1122 CURVE"
);
}
);
width = 1184;
}
);
unicode = 00DF;
},
{
glyphname = t;
layers = (
{
hints = (
{
place = "{209, 190}";
},
{
horizontal = 1;
place = "{-16, 43}";
},
{
horizontal = 1;
place = "{1071, -20}";
target = down;
type = TopGhost;
},
{
horizontal = 1;
place = "{0, -20}";
target = down;
type = TopGhost;
}
);
layerId = UUID0;
paths = (
{
closed = 1;
nodes = (
"713 788 LINE",
"717 799 OFFCURVE",
"719 811 OFFCURVE",
"719 823 CURVE SMOOTH",
"719 838 OFFCURVE",
"717 850 OFFCURVE",
"713 860 CURVE",
"410 860 LINE",
"410 1079 LINE",
"403 1081 OFFCURVE",
"393 1083 OFFCURVE",
"383 1083 CURVE SMOOTH",
"375 1083 OFFCURVE",
"365 1081 OFFCURVE",
"360 1079 CURVE",
"274 930 OFFCURVE",
"182 883 OFFCURVE",
"86 834 CURVE",
"84 823 OFFCURVE",
"82 817 OFFCURVE",
"82 811 CURVE SMOOTH",
"82 805 OFFCURVE",
"84 797 OFFCURVE",
"86 788 CURVE",
"209 788 LINE",
"209 264 LINE SMOOTH",
"209 100 OFFCURVE",
"268 -29 OFFCURVE",
"451 -29 CURVE SMOOTH",
"594 -29 OFFCURVE",
"715 57 OFFCURVE",
"770 156 CURVE",
"766 166 OFFCURVE",
"754 178 OFFCURVE",
"737 180 CURVE",
"684 133 OFFCURVE",
"635 96 OFFCURVE",
"555 96 CURVE SMOOTH",
"485 96 OFFCURVE",
"410 125 OFFCURVE",
"410 254 CURVE SMOOTH",
"410 788 LINE"
);
}
);
width = 801;
}
);
unicode = 0074;
},
{
glyphname = u;
layers = (
{
hints = (
{
horizontal = 1;
place = "{0, -20}";
target = down;
type = TopGhost;
}
);
layerId = UUID0;
paths = (
{
closed = 1;
nodes = (
"979 813 OFFCURVE",
"983 829 OFFCURVE",
"987 856 CURVE",
"981 870 OFFCURVE",
"981 877 OFFCURVE",
"963 887 CURVE",
"881 883 OFFCURVE",
"842 879 OFFCURVE",
"807 879 CURVE SMOOTH",
"766 879 OFFCURVE",
"729 883 OFFCURVE",
"639 887 CURVE",
"637 879 OFFCURVE",
"635 872 OFFCURVE",
"635 864 CURVE SMOOTH",
"635 856 OFFCURVE",
"637 848 OFFCURVE",
"639 840 CURVE",
"692 831 OFFCURVE",
"786 817 OFFCURVE",
"788 743 CURVE",
"795 569 OFFCURVE",
"797 457 OFFCURVE",
"797 221 CURVE",
"688 143 OFFCURVE",
"588 88 OFFCURVE",
"510 88 CURVE SMOOTH",
"434 88 OFFCURVE",
"401 150 OFFCURVE",
"401 268 CURVE SMOOTH",
"403 743 LINE SMOOTH",
"403 813 OFFCURVE",
"410 829 OFFCURVE",
"412 856 CURVE",
"406 870 OFFCURVE",
"401 881 OFFCURVE",
"383 887 CURVE",
"301 883 OFFCURVE",
"262 879 OFFCURVE",
"227 879 CURVE SMOOTH",
"186 879 OFFCURVE",
"150 883 OFFCURVE",
"59 887 CURVE",
"57 879 OFFCURVE",
"55 872 OFFCURVE",
"55 864 CURVE SMOOTH",
"55 856 OFFCURVE",
"57 848 OFFCURVE",
"59 840 CURVE",
"113 831 OFFCURVE",
"209 817 OFFCURVE",
"209 743 CURVE",
"211 743 LINE",
"219 236 LINE SMOOTH",
"221 59 OFFCURVE",
"274 -29 OFFCURVE",
"430 -29 CURVE SMOOTH",
"563 -29 OFFCURVE",
"690 66 OFFCURVE",
"797 158 CURVE",
"797 2 LINE",
"803 -10 OFFCURVE",
"815 -18 OFFCURVE",
"831 -25 CURVE",
"926 16 OFFCURVE",
"1042 45 OFFCURVE",
"1169 57 CURVE",
"1171 63 OFFCURVE",
"1174 72 OFFCURVE",
"1174 78 CURVE SMOOTH",
"1174 86 OFFCURVE",
"1171 94 OFFCURVE",
"1169 104 CURVE",
"1083 109 OFFCURVE",
"1018 121 OFFCURVE",
"977 145 CURVE",
"977 303 OFFCURVE",
"973 395 OFFCURVE",
"973 504 CURVE SMOOTH",
"973 571 OFFCURVE",
"975 645 OFFCURVE",
"979 743 CURVE"
);
}
);
width = 1245;
}
);
unicode = 0075;
},
{
glyphname = v;
layers = (
{
hints = (
{
horizontal = 1;
place = "{-8, 43}";
},
{
horizontal = 1;
place = "{877, -20}";
target = down;
type = TopGhost;
},
{
horizontal = 1;
place = "{0, -20}";
target = down;
type = TopGhost;
}
);
layerId = UUID0;
paths = (
{
closed = 1;
nodes = (
"690 836 OFFCURVE",
"750 827 OFFCURVE",
"750 786 CURVE SMOOTH",
"750 774 OFFCURVE",
"745 758 OFFCURVE",
"739 743 CURVE",
"526 238 LINE",
"520 238 LINE",
"338 743 LINE",
"336 750 OFFCURVE",
"330 764 OFFCURVE",
"330 780 CURVE SMOOTH",
"330 829 OFFCURVE",
"418 836 OFFCURVE",
"471 840 CURVE",
"473 848 OFFCURVE",
"475 854 OFFCURVE",
"475 862 CURVE SMOOTH",
"475 870 OFFCURVE",
"473 879 OFFCURVE",
"471 887 CURVE",
"385 883 OFFCURVE",
"311 881 OFFCURVE",
"229 881 CURVE SMOOTH",
"145 881 OFFCURVE",
"51 883 OFFCURVE",
"-37 887 CURVE",
"-41 877 OFFCURVE",
"-41 870 OFFCURVE",
"-41 862 CURVE SMOOTH",
"-41 854 OFFCURVE",
"-41 848 OFFCURVE",
"-37 840 CURVE",
"16 831 OFFCURVE",
"109 817 OFFCURVE",
"137 743 CURVE SMOOTH",
"440 -29 LINE",
"489 -29 LINE",
"831 743 LINE",
"856 797 OFFCURVE",
"899 836 OFFCURVE",
"993 840 CURVE",
"995 850 OFFCURVE",
"997 858 OFFCURVE",
"997 866 CURVE SMOOTH",
"997 872 OFFCURVE",
"995 881 OFFCURVE",
"993 887 CURVE",
"907 883 OFFCURVE",
"840 881 OFFCURVE",
"780 881 CURVE SMOOTH",
"752 881 OFFCURVE",
"674 885 OFFCURVE",
"635 887 CURVE",
"633 879 OFFCURVE",
"631 870 OFFCURVE",
"631 862 CURVE SMOOTH",
"631 854 OFFCURVE",
"633 848 OFFCURVE",
"635 840 CURVE"
);
}
);
width = 977;
}
);
unicode = 0076;
},
{
glyphname = w;
layers = (
{
hints = (
{
horizontal = 1;
place = "{-8, 43}";
},
{
horizontal = 1;
place = "{877, -20}";
target = down;
type = TopGhost;
},
{
horizontal = 1;
place = "{0, -20}";
target = down;
type = TopGhost;
}
);
layerId = UUID0;
paths = (
{
closed = 1;
nodes = (
"965 -29 LINE",
"1012 -29 LINE",
"1348 743 LINE",
"1370 797 OFFCURVE",
"1411 836 OFFCURVE",
"1501 840 CURVE",
"1503 850 OFFCURVE",
"1505 858 OFFCURVE",
"1505 866 CURVE SMOOTH",
"1505 872 OFFCURVE",
"1503 881 OFFCURVE",
"1501 887 CURVE",
"1419 883 OFFCURVE",
"1356 881 OFFCURVE",
"1298 881 CURVE SMOOTH",
"1272 881 OFFCURVE",
"1198 885 OFFCURVE",
"1161 887 CURVE",
"1159 879 OFFCURVE",
"1157 870 OFFCURVE",
"1157 862 CURVE SMOOTH",
"1157 854 OFFCURVE",
"1159 848 OFFCURVE",
"1161 840 CURVE",
"1212 836 OFFCURVE",
"1270 827 OFFCURVE",
"1270 786 CURVE SMOOTH",
"1270 774 OFFCURVE",
"1266 758 OFFCURVE",
"1260 743 CURVE",
"1044 233 LINE",
"1040 233 LINE",
"856 743 LINE",
"854 750 OFFCURVE",
"848 764 OFFCURVE",
"848 780 CURVE SMOOTH",
"848 829 OFFCURVE",
"932 836 OFFCURVE",
"981 840 CURVE",
"983 848 OFFCURVE",
"985 854 OFFCURVE",
"985 862 CURVE SMOOTH",
"985 870 OFFCURVE",
"983 879 OFFCURVE",
"981 887 CURVE",
"899 883 OFFCURVE",
"834 881 OFFCURVE",
"754 881 CURVE SMOOTH",
"676 881 OFFCURVE",
"606 883 OFFCURVE",
"522 887 CURVE",
"518 877 OFFCURVE",
"518 870 OFFCURVE",
"518 862 CURVE SMOOTH",
"518 854 OFFCURVE",
"518 848 OFFCURVE",
"522 840 CURVE",
"573 831 OFFCURVE",
"641 817 OFFCURVE",
"668 743 CURVE",
"709 635 LINE",
"526 233 LINE",
"522 233 LINE",
"317 743 LINE",
"315 750 OFFCURVE",
"309 764 OFFCURVE",
"309 780 CURVE SMOOTH",
"309 829 OFFCURVE",
"377 836 OFFCURVE",
"426 840 CURVE",
"428 848 OFFCURVE",
"430 854 OFFCURVE",
"430 862 CURVE SMOOTH",
"430 870 OFFCURVE",
"428 879 OFFCURVE",
"426 887 CURVE",
"344 883 OFFCURVE",
"293 881 OFFCURVE",
"213 881 CURVE SMOOTH",
"135 881 OFFCURVE",
"47 883 OFFCURVE",
"-37 887 CURVE",
"-41 877 OFFCURVE",
"-41 870 OFFCURVE",
"-41 862 CURVE SMOOTH",
"-41 854 OFFCURVE",
"-41 848 OFFCURVE",
"-37 840 CURVE",
"14 831 OFFCURVE",
"98 815 OFFCURVE",
"129 743 CURVE SMOOTH",
"446 -29 LINE",
"494 -29 LINE",
"748 532 LINE"
);
}
);
width = 1485;
}
);
unicode = 0077;
},
{
glyphname = x;
layers = (
{
hints = (
{
horizontal = 1;
place = "{23, 43}";
},
{
horizontal = 1;
place = "{20, 43}";
}
);
layerId = UUID0;
paths = (
{
closed = 1;
nodes = (
"952 49 OFFCURVE",
"899 55 OFFCURVE",
"831 137 CURVE",
"590 471 LINE",
"803 743 LINE",
"842 784 OFFCURVE",
"893 836 OFFCURVE",
"987 840 CURVE",
"989 850 OFFCURVE",
"991 858 OFFCURVE",
"991 866 CURVE SMOOTH",
"991 872 OFFCURVE",
"989 881 OFFCURVE",
"987 887 CURVE",
"901 883 OFFCURVE",
"834 881 OFFCURVE",
"774 881 CURVE SMOOTH",
"745 881 OFFCURVE",
"668 885 OFFCURVE",
"629 887 CURVE",
"627 879 OFFCURVE",
"625 870 OFFCURVE",
"625 862 CURVE SMOOTH",
"625 854 OFFCURVE",
"627 848 OFFCURVE",
"629 840 CURVE",
"700 838 OFFCURVE",
"731 821 OFFCURVE",
"731 786 CURVE SMOOTH",
"731 774 OFFCURVE",
"721 760 OFFCURVE",
"709 743 CURVE",
"547 528 LINE",
"393 743 LINE",
"391 750 OFFCURVE",
"381 764 OFFCURVE",
"381 784 CURVE SMOOTH",
"381 829 OFFCURVE",
"442 836 OFFCURVE",
"496 840 CURVE",
"498 848 OFFCURVE",
"500 854 OFFCURVE",
"500 862 CURVE SMOOTH",
"500 870 OFFCURVE",
"498 879 OFFCURVE",
"496 887 CURVE",
"410 883 OFFCURVE",
"356 881 OFFCURVE",
"274 881 CURVE SMOOTH",
"190 881 OFFCURVE",
"106 883 OFFCURVE",
"18 887 CURVE",
"14 877 OFFCURVE",
"14 870 OFFCURVE",
"14 862 CURVE SMOOTH",
"14 854 OFFCURVE",
"14 848 OFFCURVE",
"18 840 CURVE",
"72 831 OFFCURVE",
"125 825 OFFCURVE",
"193 743 CURVE",
"422 426 LINE",
"188 137 LINE",
"150 96 OFFCURVE",
"98 45 OFFCURVE",
"4 41 CURVE",
"2 31 OFFCURVE",
"0 23 OFFCURVE",
"0 14 CURVE SMOOTH",
"0 8 OFFCURVE",
"2 0 OFFCURVE",
"4 -6 CURVE",
"90 -2 OFFCURVE",
"158 0 OFFCURVE",
"217 0 CURVE SMOOTH",
"246 0 OFFCURVE",
"324 -4 OFFCURVE",
"362 -6 CURVE",
"365 2 OFFCURVE",
"367 10 OFFCURVE",
"367 18 CURVE SMOOTH",
"367 27 OFFCURVE",
"365 33 OFFCURVE",
"362 41 CURVE",
"291 43 OFFCURVE",
"260 59 OFFCURVE",
"260 94 CURVE SMOOTH",
"260 106 OFFCURVE",
"270 121 OFFCURVE",
"283 137 CURVE",
"465 367 LINE",
"631 137 LINE",
"637 127 OFFCURVE",
"643 123 OFFCURVE",
"643 96 CURVE SMOOTH",
"643 51 OFFCURVE",
"582 45 OFFCURVE",
"528 41 CURVE",
"526 33 OFFCURVE",
"524 27 OFFCURVE",
"524 18 CURVE SMOOTH",
"524 10 OFFCURVE",
"526 2 OFFCURVE",
"528 -6 CURVE",
"614 -2 OFFCURVE",
"668 0 OFFCURVE",
"750 0 CURVE SMOOTH",
"834 0 OFFCURVE",
"918 -2 OFFCURVE",
"1006 -6 CURVE",
"1010 4 OFFCURVE",
"1010 10 OFFCURVE",
"1010 18 CURVE SMOOTH",
"1010 27 OFFCURVE",
"1010 33 OFFCURVE",
"1006 41 CURVE"
);
}
);
width = 1010;
}
);
unicode = 0078;
},
{
glyphname = y;
layers = (
{
hints = (
{
horizontal = 1;
place = "{-532, 43}";
},
{
horizontal = 1;
place = "{874, -20}";
target = down;
type = TopGhost;
}
);
layerId = UUID0;
paths = (
{
closed = 1;
nodes = (
"659 836 OFFCURVE",
"719 827 OFFCURVE",
"719 786 CURVE SMOOTH",
"719 774 OFFCURVE",
"715 758 OFFCURVE",
"709 743 CURVE",
"516 238 LINE",
"510 238 LINE",
"307 743 LINE",
"305 750 OFFCURVE",
"299 764 OFFCURVE",
"299 780 CURVE SMOOTH",
"299 829 OFFCURVE",
"397 836 OFFCURVE",
"451 840 CURVE",
"453 848 OFFCURVE",
"455 854 OFFCURVE",
"455 862 CURVE SMOOTH",
"455 870 OFFCURVE",
"453 879 OFFCURVE",
"451 887 CURVE",
"365 883 OFFCURVE",
"281 881 OFFCURVE",
"199 881 CURVE SMOOTH",
"115 881 OFFCURVE",
"20 883 OFFCURVE",
"-68 887 CURVE",
"-72 877 OFFCURVE",
"-72 870 OFFCURVE",
"-72 862 CURVE SMOOTH",
"-72 854 OFFCURVE",
"-72 848 OFFCURVE",
"-68 840 CURVE",
"-14 831 OFFCURVE",
"76 815 OFFCURVE",
"106 743 CURVE SMOOTH",
"418 0 LINE",
"307 -285 LINE",
"242 -457 OFFCURVE",
"211 -477 OFFCURVE",
"174 -477 CURVE SMOOTH",
"166 -477 OFFCURVE",
"145 -473 OFFCURVE",
"141 -455 CURVE",
"164 -440 OFFCURVE",
"184 -416 OFFCURVE",
"184 -379 CURVE SMOOTH",
"184 -338 OFFCURVE",
"154 -291 OFFCURVE",
"90 -291 CURVE SMOOTH",
"27 -291 OFFCURVE",
"-25 -336 OFFCURVE",
"-25 -418 CURVE SMOOTH",
"-25 -506 OFFCURVE",
"43 -563 OFFCURVE",
"131 -563 CURVE SMOOTH",
"240 -563 OFFCURVE",
"299 -506 OFFCURVE",
"383 -287 CURVE",
"494 4 LINE",
"492 4 LINE",
"801 743 LINE SMOOTH",
"823 797 OFFCURVE",
"868 836 OFFCURVE",
"963 840 CURVE",
"965 850 OFFCURVE",
"967 858 OFFCURVE",
"967 866 CURVE SMOOTH",
"967 872 OFFCURVE",
"965 881 OFFCURVE",
"963 887 CURVE",
"877 883 OFFCURVE",
"809 881 OFFCURVE",
"750 881 CURVE SMOOTH",
"721 881 OFFCURVE",
"643 885 OFFCURVE",
"604 887 CURVE",
"602 879 OFFCURVE",
"600 870 OFFCURVE",
"600 862 CURVE SMOOTH",
"600 854 OFFCURVE",
"602 848 OFFCURVE",
"604 840 CURVE"
);
}
);
width = 926;
}
);
unicode = 0079;
},
{
glyphname = z;
layers = (
{
hints = (
{
horizontal = 1;
place = "{20, 43}";
},
{
horizontal = 1;
place = "{874, -20}";
target = down;
type = TopGhost;
}
);
layerId = UUID0;
paths = (
{
closed = 1;
nodes = (
"98 637 LINE",
"104 631 OFFCURVE",
"135 618 OFFCURVE",
"145 618 CURVE",
"219 768 OFFCURVE",
"336 825 OFFCURVE",
"473 825 CURVE SMOOTH",
"606 825 LINE",
"82 35 LINE",
"86 20 OFFCURVE",
"92 4 OFFCURVE",
"109 -6 CURVE",
"225 -2 OFFCURVE",
"350 0 OFFCURVE",
"467 0 CURVE SMOOTH",
"584 0 OFFCURVE",
"700 -2 OFFCURVE",
"817 -6 CURVE",
"881 307 LINE",
"868 313 OFFCURVE",
"858 315 OFFCURVE",
"846 315 CURVE",
"762 168 OFFCURVE",
"705 72 OFFCURVE",
"524 72 CURVE SMOOTH",
"303 72 LINE",
"819 850 LINE",
"819 862 OFFCURVE",
"813 874 OFFCURVE",
"801 887 CURVE",
"690 881 OFFCURVE",
"573 879 OFFCURVE",
"475 879 CURVE SMOOTH",
"375 879 OFFCURVE",
"276 881 OFFCURVE",
"168 887 CURVE"
);
}
);
width = 952;
}
);
unicode = 007A;
},
{
glyphname = ordfeminine;
layers = (
{
hints = (
{
place = "{618, -116}";
},
{
place = "{260, -127}";
},
{
horizontal = 1;
place = "{1036, -47}";
},
{
horizontal = 1;
place = "{915, -47}";
},
{
horizontal = 1;
place = "{1638, -51}";
}
);
layerId = UUID0;
paths = (
{
closed = 1;
nodes = (
"109 1227 OFFCURVE",
"160 1194 OFFCURVE",
"205 1194 CURVE SMOOTH",
"268 1194 OFFCURVE",
"299 1241 OFFCURVE",
"299 1284 CURVE SMOOTH",
"299 1329 OFFCURVE",
"279 1364 OFFCURVE",
"217 1372 CURVE",
"227 1409 OFFCURVE",
"279 1446 OFFCURVE",
"356 1446 CURVE SMOOTH",
"434 1446 OFFCURVE",
"494 1397 OFFCURVE",
"494 1278 CURVE SMOOTH",
"494 1163 LINE",
"172 1079 OFFCURVE",
"78 1026 OFFCURVE",
"78 881 CURVE SMOOTH",
"78 829 OFFCURVE",
"102 725 OFFCURVE",
"252 725 CURVE SMOOTH",
"362 725 OFFCURVE",
"446 811 OFFCURVE",
"494 858 CURVE",
"502 772 OFFCURVE",
"543 737 OFFCURVE",
"594 737 CURVE SMOOTH",
"682 737 OFFCURVE",
"733 829 OFFCURVE",
"788 909 CURVE",
"780 926 OFFCURVE",
"766 934 OFFCURVE",
"748 936 CURVE",
"731 913 OFFCURVE",
"698 870 OFFCURVE",
"678 870 CURVE SMOOTH",
"647 870 OFFCURVE",
"643 895 OFFCURVE",
"643 915 CURVE SMOOTH",
"643 1262 LINE SMOOTH",
"643 1438 OFFCURVE",
"578 1505 OFFCURVE",
"391 1505 CURVE SMOOTH",
"377 1505 OFFCURVE",
"375 1505 OFFCURVE",
"356 1503 CURVE SMOOTH",
"217 1491 OFFCURVE",
"109 1411 OFFCURVE",
"109 1296 CURVE SMOOTH"
);
},
{
closed = 1;
nodes = (
"494 936 LINE",
"461 893 OFFCURVE",
"403 829 OFFCURVE",
"330 829 CURVE SMOOTH",
"283 829 OFFCURVE",
"246 860 OFFCURVE",
"246 920 CURVE SMOOTH",
"246 1004 OFFCURVE",
"285 1063 OFFCURVE",
"494 1110 CURVE"
);
}
);
width = 819;
}
);
unicode = 00AA;
},
{
glyphname = ordmasculine;
layers = (
{
hints = (
{
place = "{109, 137}";
},
{
place = "{588, 137}";
},
{
horizontal = 1;
place = "{868, 54}";
},
{
horizontal = 1;
place = "{989, 49}";
},
{
horizontal = 1;
place = "{1587, 51}";
}
);
layerId = UUID0;
paths = (
{
closed = 1;
nodes = (
"633 725 OFFCURVE",
"766 889 OFFCURVE",
"766 1114 CURVE SMOOTH",
"766 1339 OFFCURVE",
"633 1503 OFFCURVE",
"410 1503 CURVE SMOOTH",
"188 1503 OFFCURVE",
"53 1339 OFFCURVE",
"53 1114 CURVE SMOOTH",
"53 889 OFFCURVE",
"188 725 OFFCURVE",
"410 725 CURVE SMOOTH"
);
},
{
closed = 1;
nodes = (
"225 1354 OFFCURVE",
"305 1448 OFFCURVE",
"410 1448 CURVE SMOOTH",
"516 1448 OFFCURVE",
"596 1354 OFFCURVE",
"596 1114 CURVE SMOOTH",
"596 874 OFFCURVE",
"516 780 OFFCURVE",
"410 780 CURVE SMOOTH",
"305 780 OFFCURVE",
"225 874 OFFCURVE",
"225 1114 CURVE SMOOTH"
);
}
);
width = 819;
}
);
unicode = 00BA;
},
{
glyphname = zero;
layers = (
{
hints = (
{
horizontal = 1;
place = "{6, 43}";
},
{
horizontal = 1;
place = "{1004, -20}";
target = down;
type = TopGhost;
},
{
horizontal = 1;
place = "{1001, -20}";
target = down;
type = TopGhost;
}
);
layerId = UUID0;
paths = (
{
closed = 1;
nodes = (
"29 197 OFFCURVE",
"252 -29 OFFCURVE",
"530 -29 CURVE SMOOTH",
"809 -29 OFFCURVE",
"1036 197 OFFCURVE",
"1036 475 CURVE SMOOTH",
"1036 754 OFFCURVE",
"809 981 OFFCURVE",
"530 981 CURVE SMOOTH",
"252 981 OFFCURVE",
"29 754 OFFCURVE",
"29 475 CURVE SMOOTH"
);
},
{
closed = 1;
nodes = (
"164 680 OFFCURVE",
"328 846 OFFCURVE",
"528 846 CURVE SMOOTH",
"735 846 OFFCURVE",
"901 680 OFFCURVE",
"901 473 CURVE SMOOTH",
"901 272 OFFCURVE",
"735 106 OFFCURVE",
"528 106 CURVE SMOOTH",
"328 106 OFFCURVE",
"164 272 OFFCURVE",
"164 473 CURVE SMOOTH"
);
}
);
width = 1065;
}
);
unicode = 0030;
},
{
glyphname = one;
layers = (
{
hints = (
{
horizontal = 1;
place = "{53, 43}";
}
);
layerId = UUID0;
paths = (
{
closed = 1;
nodes = (
"752 49 OFFCURVE",
"647 63 OFFCURVE",
"645 137 CURVE",
"639 264 OFFCURVE",
"637 348 OFFCURVE",
"637 475 CURVE SMOOTH",
"637 602 OFFCURVE",
"639 686 OFFCURVE",
"645 813 CURVE",
"647 887 OFFCURVE",
"752 901 OFFCURVE",
"805 909 CURVE",
"809 918 OFFCURVE",
"811 926 OFFCURVE",
"811 934 CURVE SMOOTH",
"811 942 OFFCURVE",
"809 950 OFFCURVE",
"805 956 CURVE",
"717 952 OFFCURVE",
"614 950 OFFCURVE",
"530 950 CURVE SMOOTH",
"449 950 OFFCURVE",
"346 952 OFFCURVE",
"258 956 CURVE",
"256 948 OFFCURVE",
"254 942 OFFCURVE",
"254 934 CURVE SMOOTH",
"254 926 OFFCURVE",
"256 920 OFFCURVE",
"258 909 CURVE",
"319 901 OFFCURVE",
"436 887 OFFCURVE",
"438 813 CURVE",
"442 715 OFFCURVE",
"442 641 OFFCURVE",
"442 573 CURVE",
"442 377 LINE",
"442 309 OFFCURVE",
"442 236 OFFCURVE",
"438 137 CURVE",
"436 63 OFFCURVE",
"319 49 OFFCURVE",
"258 41 CURVE",
"256 31 OFFCURVE",
"254 25 OFFCURVE",
"254 16 CURVE SMOOTH",
"254 8 OFFCURVE",
"256 2 OFFCURVE",
"258 -6 CURVE",
"346 -2 OFFCURVE",
"449 0 OFFCURVE",
"530 0 CURVE SMOOTH",
"614 0 OFFCURVE",
"717 -2 OFFCURVE",
"805 -6 CURVE",
"809 0 OFFCURVE",
"811 8 OFFCURVE",
"811 16 CURVE SMOOTH",
"811 25 OFFCURVE",
"809 33 OFFCURVE",
"805 41 CURVE"
);
}
);
width = 1065;
}
);
unicode = 0031;
},
{
glyphname = two;
layers = (
{
hints = (
{
horizontal = 1;
place = "{53, 43}";
},
{
horizontal = 1;
place = "{1057, -20}";
target = down;
type = TopGhost;
}
);
layerId = UUID0;
paths = (
{
closed = 1;
nodes = (
"117 82 LINE",
"123 45 OFFCURVE",
"135 10 OFFCURVE",
"150 0 CURVE",
"852 0 LINE",
"942 330 LINE",
"932 338 OFFCURVE",
"913 344 OFFCURVE",
"893 344 CURVE",
"858 285 OFFCURVE",
"778 197 OFFCURVE",
"674 197 CURVE SMOOTH",
"436 197 LINE",
"436 207 LINE",
"682 358 LINE SMOOTH",
"778 418 OFFCURVE",
"911 514 OFFCURVE",
"911 692 CURVE SMOOTH",
"911 868 OFFCURVE",
"774 981 OFFCURVE",
"549 981 CURVE SMOOTH",
"350 981 OFFCURVE",
"174 891 OFFCURVE",
"174 700 CURVE SMOOTH",
"174 518 OFFCURVE",
"324 465 OFFCURVE",
"324 465 CURVE",
"350 467 OFFCURVE",
"362 483 OFFCURVE",
"367 502 CURVE",
"367 502 OFFCURVE",
"299 559 OFFCURVE",
"299 678 CURVE SMOOTH",
"299 797 OFFCURVE",
"391 860 OFFCURVE",
"524 860 CURVE SMOOTH",
"584 860 OFFCURVE",
"690 819 OFFCURVE",
"690 657 CURVE SMOOTH",
"690 516 OFFCURVE",
"637 442 OFFCURVE",
"516 358 CURVE SMOOTH"
);
}
);
width = 1065;
}
);
unicode = 0032;
},
{
glyphname = three;
layers = (
{
hints = (
{
horizontal = 1;
place = "{-418, 43}";
},
{
horizontal = 1;
place = "{-420, 43}";
},
{
horizontal = 1;
place = "{1057, -20}";
target = down;
type = TopGhost;
}
);
layerId = UUID0;
paths = (
{
closed = 1;
nodes = (
"264 309 LINE",
"289 250 LINE",
"324 264 OFFCURVE",
"389 285 OFFCURVE",
"444 285 CURVE SMOOTH",
"559 285 OFFCURVE",
"684 229 OFFCURVE",
"684 10 CURVE SMOOTH",
"684 -244 OFFCURVE",
"565 -412 OFFCURVE",
"391 -412 CURVE SMOOTH",
"276 -412 OFFCURVE",
"223 -358 OFFCURVE",
"223 -340 CURVE",
"256 -332 OFFCURVE",
"317 -289 OFFCURVE",
"317 -221 CURVE SMOOTH",
"317 -127 OFFCURVE",
"258 -86 OFFCURVE",
"176 -86 CURVE SMOOTH",
"104 -86 OFFCURVE",
"47 -143 OFFCURVE",
"47 -225 CURVE SMOOTH",
"47 -309 OFFCURVE",
"129 -475 OFFCURVE",
"393 -475 CURVE SMOOTH",
"618 -475 OFFCURVE",
"909 -270 OFFCURVE",
"909 37 CURVE SMOOTH",
"909 291 OFFCURVE",
"743 379 OFFCURVE",
"598 391 CURVE",
"598 401 LINE",
"737 444 OFFCURVE",
"856 563 OFFCURVE",
"856 698 CURVE SMOOTH",
"856 903 OFFCURVE",
"698 981 OFFCURVE",
"494 981 CURVE SMOOTH",
"252 981 OFFCURVE",
"135 862 OFFCURVE",
"135 709 CURVE SMOOTH",
"135 608 OFFCURVE",
"188 541 OFFCURVE",
"246 504 CURVE",
"262 506 OFFCURVE",
"276 514 OFFCURVE",
"285 530 CURVE",
"262 565 OFFCURVE",
"246 604 OFFCURVE",
"246 690 CURVE SMOOTH",
"246 786 OFFCURVE",
"309 860 OFFCURVE",
"455 860 CURVE",
"563 860 OFFCURVE",
"633 778 OFFCURVE",
"633 694 CURVE SMOOTH",
"633 582 OFFCURVE",
"598 473 OFFCURVE",
"428 389 CURVE SMOOTH"
);
}
);
width = 1065;
}
);
unicode = 0033;
},
{
glyphname = four;
layers = (
{
hints = (
{
horizontal = 1;
place = "{53, 219}";
},
{
horizontal = 1;
place = "{-373, 43}";
},
{
horizontal = 1;
place = "{1057, -20}";
target = down;
type = TopGhost;
}
);
layerId = UUID0;
paths = (
{
closed = 1;
nodes = (
"805 958 LINE",
"791 973 OFFCURVE",
"772 981 OFFCURVE",
"741 981 CURVE",
"8 59 LINE",
"8 35 OFFCURVE",
"18 8 OFFCURVE",
"35 0 CURVE",
"600 0 LINE",
"600 -438 LINE",
"805 -438 LINE",
"805 0 LINE",
"805 0 OFFCURVE",
"1040 0 OFFCURVE",
"1040 2 CURVE SMOOTH",
"1040 4 OFFCURVE",
"1069 186 OFFCURVE",
"1069 186 CURVE",
"1069 186 OFFCURVE",
"805 186 OFFCURVE",
"805 188 CURVE SMOOTH"
);
},
{
closed = 1;
nodes = (
"604 662 LINE",
"604 186 LINE",
"227 186 LINE"
);
}
);
width = 1044;
}
);
unicode = 0034;
},
{
glyphname = five;
layers = (
{
hints = (
{
horizontal = 1;
place = "{-426, 43}";
},
{
horizontal = 1;
place = "{1171, -20}";
target = down;
type = TopGhost;
}
);
layerId = UUID0;
paths = (
{
closed = 1;
nodes = (
"858 754 LINE",
"938 1061 LINE",
"928 1069 OFFCURVE",
"909 1075 OFFCURVE",
"889 1075 CURVE",
"860 1016 OFFCURVE",
"825 950 OFFCURVE",
"680 950 CURVE SMOOTH",
"303 950 LINE",
"303 950 OFFCURVE",
"268 592 OFFCURVE",
"193 356 CURVE",
"211 317 OFFCURVE",
"225 305 OFFCURVE",
"256 299 CURVE",
"487 299 OFFCURVE",
"715 264 OFFCURVE",
"715 6 CURVE SMOOTH",
"715 -311 OFFCURVE",
"524 -410 OFFCURVE",
"356 -410 CURVE SMOOTH",
"219 -410 OFFCURVE",
"186 -356 OFFCURVE",
"182 -348 CURVE",
"182 -348 OFFCURVE",
"268 -313 OFFCURVE",
"268 -236 CURVE SMOOTH",
"268 -158 OFFCURVE",
"215 -104 OFFCURVE",
"139 -104 CURVE SMOOTH",
"55 -104 OFFCURVE",
"4 -164 OFFCURVE",
"4 -238 CURVE SMOOTH",
"4 -326 OFFCURVE",
"86 -475 OFFCURVE",
"367 -475 CURVE SMOOTH",
"647 -475 OFFCURVE",
"909 -256 OFFCURVE",
"909 47 CURVE SMOOTH",
"909 412 OFFCURVE",
"653 502 OFFCURVE",
"330 502 CURVE",
"373 754 LINE"
);
}
);
width = 1065;
}
);
unicode = 0035;
},
{
glyphname = six;
layers = (
{
hints = (
{
horizontal = 1;
place = "{6, 43}";
},
{
horizontal = 1;
place = "{4, 43}";
},
{
horizontal = 1;
place = "{1444, -20}";
target = down;
type = TopGhost;
}
);
layerId = UUID0;
paths = (
{
closed = 1;
nodes = (
"1001 1421 LINE",
"1001 1421 OFFCURVE",
"29 1159 OFFCURVE",
"29 455 CURVE SMOOTH",
"29 59 OFFCURVE",
"324 -29 OFFCURVE",
"506 -29 CURVE SMOOTH",
"729 -29 OFFCURVE",
"969 135 OFFCURVE",
"969 446 CURVE SMOOTH",
"969 776 OFFCURVE",
"719 889 OFFCURVE",
"393 889 CURVE",
"551 1094 OFFCURVE",
"778 1262 OFFCURVE",
"1026 1382 CURVE"
);
},
{
closed = 1;
nodes = (
"743 102 OFFCURVE",
"596 37 OFFCURVE",
"504 37 CURVE",
"340 37 OFFCURVE",
"242 176 OFFCURVE",
"242 416 CURVE SMOOTH",
"242 629 OFFCURVE",
"301 762 OFFCURVE",
"354 817 CURVE",
"655 813 OFFCURVE",
"741 692 OFFCURVE",
"743 446 CURVE"
);
}
);
width = 1065;
}
);
unicode = 0036;
},
{
glyphname = seven;
layers = (
{
hints = (
{
horizontal = 1;
place = "{721, 221}";
},
{
horizontal = 1;
place = "{-547, 43}";
},
{
horizontal = 1;
place = "{973, -20}";
target = down;
type = TopGhost;
}
);
layerId = UUID0;
paths = (
{
closed = 1;
nodes = (
"819 754 LINE",
"225 -141 LINE",
"225 -141 OFFCURVE",
"127 -264 OFFCURVE",
"127 -342 CURVE SMOOTH",
"127 -424 OFFCURVE",
"178 -475 OFFCURVE",
"264 -475 CURVE SMOOTH",
"358 -475 OFFCURVE",
"406 -418 OFFCURVE",
"406 -358 CURVE SMOOTH",
"406 -281 OFFCURVE",
"334 -240 OFFCURVE",
"297 -240 CURVE",
"311 -203 OFFCURVE",
"342 -156 OFFCURVE",
"365 -123 CURVE SMOOTH",
"1038 899 LINE",
"1036 918 OFFCURVE",
"1020 950 OFFCURVE",
"995 950 CURVE",
"299 950 LINE",
"250 981 LINE",
"236 981 OFFCURVE",
"223 975 OFFCURVE",
"211 956 CURVE",
"209 872 OFFCURVE",
"184 705 OFFCURVE",
"150 614 CURVE SMOOTH",
"166 596 OFFCURVE",
"190 590 OFFCURVE",
"207 590 CURVE",
"238 647 OFFCURVE",
"281 756 OFFCURVE",
"428 756 CURVE SMOOTH"
);
}
);
width = 1065;
}
);
unicode = 0037;
},
{
glyphname = eight;
layers = (
{
hints = (
{
horizontal = 1;
place = "{6, 43}";
},
{
horizontal = 1;
place = "{1358, -20}";
target = down;
type = TopGhost;
}
);
layerId = UUID0;
paths = (
{
closed = 1;
nodes = (
"362 694 LINE",
"362 694 OFFCURVE",
"92 641 OFFCURVE",
"92 350 CURVE SMOOTH",
"92 68 OFFCURVE",
"365 -29 OFFCURVE",
"522 -29 CURVE SMOOTH",
"719 -29 OFFCURVE",
"973 82 OFFCURVE",
"973 369 CURVE SMOOTH",
"973 651 OFFCURVE",
"698 696 OFFCURVE",
"698 696 CURVE",
"698 709 LINE",
"698 709 OFFCURVE",
"928 788 OFFCURVE",
"928 1059 CURVE SMOOTH",
"928 1384 OFFCURVE",
"641 1421 OFFCURVE",
"526 1421 CURVE SMOOTH",
"469 1421 OFFCURVE",
"115 1403 OFFCURVE",
"115 1036 CURVE SMOOTH",
"115 758 OFFCURVE",
"362 709 OFFCURVE",
"362 709 CURVE"
);
},
{
closed = 1;
nodes = (
"459 735 OFFCURVE",
"330 768 OFFCURVE",
"330 1034 CURVE SMOOTH",
"330 1253 OFFCURVE",
"408 1356 OFFCURVE",
"522 1356 CURVE SMOOTH",
"651 1356 OFFCURVE",
"713 1241 OFFCURVE",
"713 1059 CURVE SMOOTH",
"713 926 OFFCURVE",
"678 735 OFFCURVE",
"524 735 CURVE SMOOTH"
);
},
{
closed = 1;
nodes = (
"584 670 OFFCURVE",
"758 653 OFFCURVE",
"758 365 CURVE SMOOTH",
"758 100 OFFCURVE",
"651 37 OFFCURVE",
"524 37 CURVE SMOOTH",
"426 37 OFFCURVE",
"307 100 OFFCURVE",
"307 350 CURVE SMOOTH",
"307 592 OFFCURVE",
"436 670 OFFCURVE",
"524 670 CURVE SMOOTH"
);
}
);
width = 1065;
}
);
unicode = 0038;
},
{
glyphname = nine;
layers = (
{
hints = (
{
horizontal = 1;
place = "{-459, 43}";
},
{
horizontal = 1;
place = "{979, -20}";
target = down;
type = TopGhost;
}
);
layerId = UUID0;
paths = (
{
closed = 1;
nodes = (
"4 -469 LINE",
"4 -469 OFFCURVE",
"973 -207 OFFCURVE",
"973 498 CURVE SMOOTH",
"973 893 OFFCURVE",
"678 981 OFFCURVE",
"496 981 CURVE SMOOTH",
"272 981 OFFCURVE",
"33 817 OFFCURVE",
"33 506 CURVE SMOOTH",
"33 176 OFFCURVE",
"287 63 OFFCURVE",
"612 63 CURVE",
"455 -141 OFFCURVE",
"227 -309 OFFCURVE",
"-20 -430 CURVE"
);
},
{
closed = 1;
nodes = (
"258 850 OFFCURVE",
"406 915 OFFCURVE",
"498 915 CURVE",
"662 915 OFFCURVE",
"760 776 OFFCURVE",
"760 537 CURVE SMOOTH",
"760 324 OFFCURVE",
"705 190 OFFCURVE",
"651 135 CURVE",
"350 139 OFFCURVE",
"260 260 OFFCURVE",
"258 506 CURVE"
);
}
);
width = 1065;
}
);
unicode = 0039;
},
{
glyphname = onesuperior;
layers = (
{
hints = (
{
place = "{434, 137}";
},
{
horizontal = 1;
place = "{485, 56}";
},
{
horizontal = 1;
place = "{1620, -47}";
}
);
layerId = UUID0;
paths = (
{
closed = 1;
nodes = (
"571 1440 OFFCURVE",
"571 1446 OFFCURVE",
"571 1452 CURVE SMOOTH",
"571 1458 OFFCURVE",
"571 1466 OFFCURVE",
"567 1470 CURVE",
"500 1466 OFFCURVE",
"422 1466 OFFCURVE",
"356 1466 CURVE SMOOTH",
"295 1466 OFFCURVE",
"215 1466 OFFCURVE",
"150 1470 CURVE",
"147 1464 OFFCURVE",
"145 1458 OFFCURVE",
"145 1452 CURVE SMOOTH",
"145 1446 OFFCURVE",
"147 1440 OFFCURVE",
"150 1434 CURVE",
"197 1427 OFFCURVE",
"287 1417 OFFCURVE",
"287 1360 CURVE SMOOTH",
"289 1286 OFFCURVE",
"289 1229 OFFCURVE",
"289 1176 CURVE SMOOTH",
"289 1102 LINE",
"289 975 OFFCURVE",
"289 918 OFFCURVE",
"287 844 CURVE SMOOTH",
"287 786 OFFCURVE",
"197 776 OFFCURVE",
"150 770 CURVE",
"147 764 OFFCURVE",
"145 758 OFFCURVE",
"145 752 CURVE SMOOTH",
"145 745 OFFCURVE",
"147 739 OFFCURVE",
"150 733 CURVE",
"215 737 OFFCURVE",
"295 737 OFFCURVE",
"356 737 CURVE SMOOTH",
"422 737 OFFCURVE",
"500 737 OFFCURVE",
"567 733 CURVE",
"571 737 OFFCURVE",
"571 745 OFFCURVE",
"571 752 CURVE SMOOTH",
"571 758 OFFCURVE",
"571 764 OFFCURVE",
"567 770 CURVE",
"526 776 OFFCURVE",
"449 786 OFFCURVE",
"446 844 CURVE",
"442 938 OFFCURVE",
"440 1006 OFFCURVE",
"440 1102 CURVE SMOOTH",
"440 1198 OFFCURVE",
"442 1266 OFFCURVE",
"446 1360 CURVE",
"449 1417 OFFCURVE",
"526 1427 OFFCURVE",
"567 1434 CURVE"
);
}
);
width = 717;
}
);
unicode = 00B9;
},
{
glyphname = twosuperior;
layers = (
{
hints = (
{
place = "{598, 162}";
},
{
horizontal = 1;
place = "{485, 140}";
},
{
horizontal = 1;
place = "{1532, 102}";
}
);
layerId = UUID0;
paths = (
{
closed = 1;
nodes = (
"57 797 LINE",
"61 768 OFFCURVE",
"72 741 OFFCURVE",
"82 733 CURVE",
"573 733 LINE",
"623 973 LINE",
"614 981 OFFCURVE",
"602 985 OFFCURVE",
"588 985 CURVE",
"563 938 OFFCURVE",
"494 858 OFFCURVE",
"418 858 CURVE SMOOTH",
"262 858 LINE",
"262 866 LINE",
"446 1014 LINE SMOOTH",
"512 1065 OFFCURVE",
"612 1145 OFFCURVE",
"612 1276 CURVE SMOOTH",
"612 1415 OFFCURVE",
"512 1503 OFFCURVE",
"350 1503 CURVE SMOOTH",
"205 1503 OFFCURVE",
"98 1432 OFFCURVE",
"98 1282 CURVE SMOOTH",
"98 1141 OFFCURVE",
"207 1098 OFFCURVE",
"207 1098 CURVE",
"225 1100 OFFCURVE",
"236 1112 OFFCURVE",
"240 1126 CURVE",
"240 1126 OFFCURVE",
"188 1171 OFFCURVE",
"188 1266 CURVE SMOOTH",
"188 1358 OFFCURVE",
"233 1409 OFFCURVE",
"311 1409 CURVE SMOOTH",
"373 1409 OFFCURVE",
"451 1376 OFFCURVE",
"451 1262 CURVE SMOOTH",
"451 1139 OFFCURVE",
"412 1083 OFFCURVE",
"326 1014 CURVE SMOOTH"
);
}
);
width = 717;
}
);
unicode = 00B2;
},
{
glyphname = threesuperior;
layers = (
{
hints = (
{
place = "{526, 148}";
},
{
place = "{483, 129}";
},
{
horizontal = 1;
place = "{479, 56}";
},
{
horizontal = 1;
place = "{1538, 90}";
},
{
horizontal = 1;
place = "{1090, 90}";
}
);
layerId = UUID0;
paths = (
{
closed = 1;
nodes = (
"229 1130 LINE",
"256 1075 LINE",
"279 1085 OFFCURVE",
"317 1092 OFFCURVE",
"336 1092 CURVE SMOOTH",
"397 1092 OFFCURVE",
"461 1065 OFFCURVE",
"461 975 CURVE SMOOTH",
"461 846 OFFCURVE",
"385 784 OFFCURVE",
"287 784 CURVE SMOOTH",
"244 784 OFFCURVE",
"217 801 OFFCURVE",
"211 811 CURVE",
"240 829 OFFCURVE",
"250 840 OFFCURVE",
"250 874 CURVE SMOOTH",
"250 930 OFFCURVE",
"207 952 OFFCURVE",
"150 952 CURVE SMOOTH",
"96 952 OFFCURVE",
"66 903 OFFCURVE",
"66 858 CURVE SMOOTH",
"66 811 OFFCURVE",
"111 725 OFFCURVE",
"303 725 CURVE SMOOTH",
"453 725 OFFCURVE",
"635 823 OFFCURVE",
"635 989 CURVE SMOOTH",
"635 1096 OFFCURVE",
"551 1149 OFFCURVE",
"459 1165 CURVE",
"459 1167 LINE",
"559 1194 OFFCURVE",
"602 1255 OFFCURVE",
"602 1329 CURVE SMOOTH",
"602 1444 OFFCURVE",
"492 1503 OFFCURVE",
"369 1503 CURVE SMOOTH",
"184 1503 OFFCURVE",
"115 1423 OFFCURVE",
"115 1323 CURVE SMOOTH",
"115 1284 OFFCURVE",
"129 1260 OFFCURVE",
"164 1217 CURVE",
"197 1223 OFFCURVE",
"201 1231 OFFCURVE",
"207 1241 CURVE",
"201 1260 OFFCURVE",
"199 1280 OFFCURVE",
"199 1309 CURVE SMOOTH",
"199 1354 OFFCURVE",
"225 1409 OFFCURVE",
"313 1409 CURVE SMOOTH",
"383 1409 OFFCURVE",
"428 1360 OFFCURVE",
"428 1309 CURVE SMOOTH",
"428 1253 OFFCURVE",
"410 1188 OFFCURVE",
"313 1157 CURVE SMOOTH"
);
}
);
width = 717;
}
);
unicode = 00B3;
},
{
glyphname = foursuperior;
layers = (
{
hints = (
{
place = "{322, 135}";
},
{
horizontal = 1;
place = "{893, 70}";
},
{
horizontal = 1;
place = "{702, 21}";
target = up;
type = BottomGhost;
},
{
horizontal = 1;
place = "{1452, -20}";
target = down;
type = TopGhost;
}
);
layerId = UUID0;
paths = (
{
closed = 1;
nodes = (
"0 934 LINE",
"332 934 LINE",
"332 733 LINE",
"489 733 LINE",
"489 934 LINE",
"600 934 LINE",
"600 1024 LINE",
"489 1024 LINE",
"489 1470 LINE",
"426 1470 LINE",
"0 977 LINE"
);
},
{
closed = 1;
nodes = (
"125 1024 LINE",
"332 1247 LINE",
"332 1024 LINE"
);
}
);
width = 717;
}
);
unicode = 2074;
},
{
glyphname = fraction;
layers = (
{
hints = (
{
horizontal = 1;
place = "{-377, -49}";
},
{
horizontal = 1;
place = "{1620, -47}";
}
);
layerId = UUID0;
paths = (
{
closed = 1;
nodes = (
"-215 -135 LINE",
"526 1540 LINE",
"430 1565 LINE",
"-307 -111 LINE"
);
}
);
width = 219;
}
);
unicode = 2044;
},
{
glyphname = onehalf;
layers = (
{
hints = (
{
place = "{336, 123}";
},
{
place = "{1165, 125}";
},
{
horizontal = 1;
place = "{-84, 107}";
},
{
horizontal = 1;
place = "{428, 49}";
},
{
horizontal = 1;
place = "{-355, 21}";
target = up;
type = BottomGhost;
},
{
horizontal = 1;
place = "{1432, -20}";
target = down;
type = TopGhost;
},
{
horizontal = 1;
place = "{627, -20}";
target = down;
type = TopGhost;
}
);
layerId = UUID0;
paths = (
{
closed = 1;
nodes = (
"913 63 LINE",
"918 35 OFFCURVE",
"928 8 OFFCURVE",
"938 0 CURVE",
"1430 0 LINE",
"1479 240 LINE",
"1470 248 OFFCURVE",
"1458 252 OFFCURVE",
"1444 252 CURVE",
"1419 205 OFFCURVE",
"1350 125 OFFCURVE",
"1274 125 CURVE SMOOTH",
"1118 125 LINE",
"1118 133 LINE",
"1303 281 LINE SMOOTH",
"1368 332 OFFCURVE",
"1468 412 OFFCURVE",
"1468 543 CURVE SMOOTH",
"1468 682 OFFCURVE",
"1368 770 OFFCURVE",
"1206 770 CURVE SMOOTH",
"1061 770 OFFCURVE",
"954 698 OFFCURVE",
"954 549 CURVE SMOOTH",
"954 408 OFFCURVE",
"1063 365 OFFCURVE",
"1063 365 CURVE",
"1081 367 OFFCURVE",
"1092 379 OFFCURVE",
"1096 393 CURVE",
"1096 393 OFFCURVE",
"1044 438 OFFCURVE",
"1044 532 CURVE SMOOTH",
"1044 625 OFFCURVE",
"1090 676 OFFCURVE",
"1167 676 CURVE SMOOTH",
"1229 676 OFFCURVE",
"1307 643 OFFCURVE",
"1307 528 CURVE SMOOTH",
"1307 406 OFFCURVE",
"1268 350 OFFCURVE",
"1182 281 CURVE SMOOTH"
);
},
{
closed = 1;
nodes = (
"446 -135 LINE",
"1188 1540 LINE",
"1092 1565 LINE",
"354 -111 LINE"
);
},
{
closed = 1;
nodes = (
"578 1440 OFFCURVE",
"578 1446 OFFCURVE",
"578 1452 CURVE SMOOTH",
"578 1458 OFFCURVE",
"578 1466 OFFCURVE",
"573 1470 CURVE",
"506 1466 OFFCURVE",
"428 1466 OFFCURVE",
"362 1466 CURVE SMOOTH",
"301 1466 OFFCURVE",
"221 1466 OFFCURVE",
"156 1470 CURVE",
"154 1464 OFFCURVE",
"152 1458 OFFCURVE",
"152 1452 CURVE SMOOTH",
"152 1446 OFFCURVE",
"154 1440 OFFCURVE",
"156 1434 CURVE",
"203 1427 OFFCURVE",
"293 1417 OFFCURVE",
"293 1360 CURVE SMOOTH",
"295 1286 OFFCURVE",
"295 1229 OFFCURVE",
"295 1176 CURVE SMOOTH",
"295 1028 LINE SMOOTH",
"295 975 OFFCURVE",
"295 918 OFFCURVE",
"293 844 CURVE",
"453 844 LINE",
"449 938 OFFCURVE",
"446 1006 OFFCURVE",
"446 1102 CURVE SMOOTH",
"446 1198 OFFCURVE",
"449 1266 OFFCURVE",
"453 1360 CURVE",
"453 1417 OFFCURVE",
"532 1427 OFFCURVE",
"573 1434 CURVE"
);
},
{
closed = 1;
nodes = (
"532 776 OFFCURVE",
"453 786 OFFCURVE",
"453 844 CURVE",
"293 844 LINE",
"293 786 OFFCURVE",
"203 776 OFFCURVE",
"156 770 CURVE",
"154 764 OFFCURVE",
"152 758 OFFCURVE",
"152 752 CURVE SMOOTH",
"152 745 OFFCURVE",
"154 739 OFFCURVE",
"156 733 CURVE",
"221 737 OFFCURVE",
"301 737 OFFCURVE",
"362 737 CURVE SMOOTH",
"428 737 OFFCURVE",
"506 737 OFFCURVE",
"573 733 CURVE",
"578 737 OFFCURVE",
"578 745 OFFCURVE",
"578 752 CURVE SMOOTH",
"578 758 OFFCURVE",
"578 764 OFFCURVE",
"573 770 CURVE"
);
}
);
width = 1597;
}
);
unicode = 00BD;
},
{
glyphname = onequarter;
layers = (
{
hints = (
{
place = "{336, 123}";
},
{
place = "{1165, 125}";
},
{
horizontal = 1;
place = "{-84, 107}";
},
{
horizontal = 1;
place = "{428, 49}";
},
{
horizontal = 1;
place = "{-355, 21}";
target = up;
type = BottomGhost;
},
{
horizontal = 1;
place = "{1432, -20}";
target = down;
type = TopGhost;
},
{
horizontal = 1;
place = "{627, -20}";
target = down;
type = TopGhost;
}
);
layerId = UUID0;
paths = (
{
closed = 1;
nodes = (
"846 201 LINE",
"1178 201 LINE",
"1178 0 LINE",
"1335 0 LINE",
"1335 201 LINE",
"1446 201 LINE",
"1446 291 LINE",
"1335 291 LINE",
"1335 737 LINE",
"1272 737 LINE",
"846 244 LINE"
);
},
{
closed = 1;
nodes = (
"446 -135 LINE",
"1188 1540 LINE",
"1092 1565 LINE",
"354 -111 LINE"
);
},
{
closed = 1;
nodes = (
"578 1440 OFFCURVE",
"578 1446 OFFCURVE",
"578 1452 CURVE SMOOTH",
"578 1458 OFFCURVE",
"578 1466 OFFCURVE",
"573 1470 CURVE",
"506 1466 OFFCURVE",
"428 1466 OFFCURVE",
"362 1466 CURVE SMOOTH",
"301 1466 OFFCURVE",
"221 1466 OFFCURVE",
"156 1470 CURVE",
"154 1464 OFFCURVE",
"152 1458 OFFCURVE",
"152 1452 CURVE SMOOTH",
"152 1446 OFFCURVE",
"154 1440 OFFCURVE",
"156 1434 CURVE",
"203 1427 OFFCURVE",
"293 1417 OFFCURVE",
"293 1360 CURVE SMOOTH",
"295 1286 OFFCURVE",
"295 1229 OFFCURVE",
"295 1176 CURVE SMOOTH",
"295 1028 LINE SMOOTH",
"295 975 OFFCURVE",
"295 918 OFFCURVE",
"293 844 CURVE SMOOTH",
"293 786 OFFCURVE",
"203 776 OFFCURVE",
"156 770 CURVE",
"154 764 OFFCURVE",
"152 758 OFFCURVE",
"152 752 CURVE SMOOTH",
"152 745 OFFCURVE",
"154 739 OFFCURVE",
"156 733 CURVE",
"221 737 OFFCURVE",
"301 737 OFFCURVE",
"362 737 CURVE SMOOTH",
"428 737 OFFCURVE",
"506 737 OFFCURVE",
"573 733 CURVE",
"578 737 OFFCURVE",
"578 745 OFFCURVE",
"578 752 CURVE SMOOTH",
"578 758 OFFCURVE",
"578 764 OFFCURVE",
"573 770 CURVE",
"532 776 OFFCURVE",
"455 786 OFFCURVE",
"453 844 CURVE",
"449 938 OFFCURVE",
"446 1006 OFFCURVE",
"446 1102 CURVE SMOOTH",
"446 1198 OFFCURVE",
"449 1266 OFFCURVE",
"453 1360 CURVE",
"455 1417 OFFCURVE",
"532 1427 OFFCURVE",
"573 1434 CURVE"
);
},
{
closed = 1;
nodes = (
"971 291 LINE",
"1178 514 LINE",
"1178 291 LINE"
);
}
);
width = 1597;
}
);
unicode = 00BC;
},
{
glyphname = threequarters;
layers = (
{
hints = (
{
place = "{358, 123}";
},
{
place = "{1188, 125}";
},
{
horizontal = 1;
place = "{-84, 107}";
},
{
horizontal = 1;
place = "{428, 49}";
},
{
horizontal = 1;
place = "{-355, 21}";
target = up;
type = BottomGhost;
},
{
horizontal = 1;
place = "{1432, -20}";
target = down;
type = TopGhost;
},
{
horizontal = 1;
place = "{627, -20}";
target = down;
type = TopGhost;
}
);
layerId = UUID0;
paths = (
{
closed = 1;
nodes = (
"494 -135 LINE",
"1235 1540 LINE",
"1139 1565 LINE",
"401 -111 LINE"
);
},
{
closed = 1;
nodes = (
"868 201 LINE",
"1200 201 LINE",
"1200 0 LINE",
"1358 0 LINE",
"1358 201 LINE",
"1468 201 LINE",
"1468 291 LINE",
"1358 291 LINE",
"1358 737 LINE",
"1294 737 LINE",
"868 244 LINE"
);
},
{
closed = 1;
nodes = (
"993 291 LINE",
"1200 514 LINE",
"1200 291 LINE"
);
},
{
closed = 1;
nodes = (
"252 1130 LINE",
"279 1075 LINE",
"301 1085 OFFCURVE",
"340 1092 OFFCURVE",
"358 1092 CURVE SMOOTH",
"420 1092 OFFCURVE",
"483 1065 OFFCURVE",
"483 975 CURVE SMOOTH",
"483 846 OFFCURVE",
"408 784 OFFCURVE",
"309 784 CURVE SMOOTH",
"266 784 OFFCURVE",
"240 801 OFFCURVE",
"233 811 CURVE",
"262 829 OFFCURVE",
"272 840 OFFCURVE",
"272 874 CURVE SMOOTH",
"272 930 OFFCURVE",
"229 952 OFFCURVE",
"172 952 CURVE SMOOTH",
"119 952 OFFCURVE",
"88 903 OFFCURVE",
"88 858 CURVE SMOOTH",
"88 811 OFFCURVE",
"133 725 OFFCURVE",
"326 725 CURVE SMOOTH",
"475 725 OFFCURVE",
"657 823 OFFCURVE",
"657 989 CURVE SMOOTH",
"657 1096 OFFCURVE",
"573 1149 OFFCURVE",
"481 1165 CURVE",
"481 1167 LINE",
"582 1194 OFFCURVE",
"625 1255 OFFCURVE",
"625 1329 CURVE SMOOTH",
"625 1444 OFFCURVE",
"514 1503 OFFCURVE",
"391 1503 CURVE SMOOTH",
"207 1503 OFFCURVE",
"137 1423 OFFCURVE",
"137 1323 CURVE SMOOTH",
"137 1284 OFFCURVE",
"152 1260 OFFCURVE",
"186 1217 CURVE",
"219 1223 OFFCURVE",
"223 1231 OFFCURVE",
"229 1241 CURVE",
"223 1260 OFFCURVE",
"221 1280 OFFCURVE",
"221 1309 CURVE SMOOTH",
"221 1354 OFFCURVE",
"248 1409 OFFCURVE",
"336 1409 CURVE SMOOTH",
"406 1409 OFFCURVE",
"451 1360 OFFCURVE",
"451 1309 CURVE SMOOTH",
"451 1253 OFFCURVE",
"432 1188 OFFCURVE",
"336 1157 CURVE SMOOTH"
);
}
);
width = 1597;
}
);
unicode = 00BE;
},
{
glyphname = asterisk;
layers = (
{
hints = (
{
place = "{424, 147}";
},
{
place = "{123, 749}";
},
{
horizontal = 1;
place = "{1569, -844}";
}
);
layerId = UUID0;
paths = (
{
closed = 1;
nodes = (
"410 1075 OFFCURVE",
"410 1069 OFFCURVE",
"412 1061 CURVE",
"240 1018 LINE SMOOTH",
"160 997 OFFCURVE",
"123 952 OFFCURVE",
"123 899 CURVE SMOOTH",
"123 850 OFFCURVE",
"168 831 OFFCURVE",
"213 831 CURVE SMOOTH",
"244 831 OFFCURVE",
"279 860 OFFCURVE",
"311 893 CURVE SMOOTH",
"436 1022 LINE",
"446 1012 OFFCURVE",
"459 1004 OFFCURVE",
"475 1001 CURVE",
"424 829 LINE SMOOTH",
"418 807 OFFCURVE",
"414 784 OFFCURVE",
"414 764 CURVE SMOOTH",
"414 705 OFFCURVE",
"440 662 OFFCURVE",
"498 662 CURVE SMOOTH",
"551 662 OFFCURVE",
"580 709 OFFCURVE",
"580 770 CURVE SMOOTH",
"580 788 OFFCURVE",
"578 809 OFFCURVE",
"571 829 CURVE SMOOTH",
"518 1004 LINE",
"532 1008 OFFCURVE",
"545 1014 OFFCURVE",
"555 1024 CURVE",
"684 893 LINE SMOOTH",
"731 844 OFFCURVE",
"762 836 OFFCURVE",
"799 836 CURVE SMOOTH",
"852 836 OFFCURVE",
"872 868 OFFCURVE",
"872 905 CURVE SMOOTH",
"872 956 OFFCURVE",
"834 997 OFFCURVE",
"756 1018 CURVE SMOOTH",
"578 1063 LINE",
"580 1069 OFFCURVE",
"580 1075 OFFCURVE",
"580 1083 CURVE SMOOTH",
"580 1092 OFFCURVE",
"578 1098 OFFCURVE",
"575 1106 CURVE",
"756 1149 LINE SMOOTH",
"825 1165 OFFCURVE",
"872 1208 OFFCURVE",
"872 1268 CURVE SMOOTH",
"872 1294 OFFCURVE",
"852 1331 OFFCURVE",
"799 1331 CURVE SMOOTH",
"743 1331 OFFCURVE",
"715 1303 OFFCURVE",
"684 1272 CURVE SMOOTH",
"557 1141 LINE",
"547 1153 OFFCURVE",
"532 1159 OFFCURVE",
"518 1165 CURVE",
"571 1339 LINE SMOOTH",
"578 1362 OFFCURVE",
"580 1382 OFFCURVE",
"580 1401 CURVE SMOOTH",
"580 1462 OFFCURVE",
"549 1503 OFFCURVE",
"498 1503 CURVE SMOOTH",
"444 1503 OFFCURVE",
"414 1464 OFFCURVE",
"414 1405 CURVE SMOOTH",
"414 1384 OFFCURVE",
"418 1362 OFFCURVE",
"424 1339 CURVE SMOOTH",
"475 1167 LINE",
"459 1163 OFFCURVE",
"444 1155 OFFCURVE",
"434 1145 CURVE",
"311 1272 LINE SMOOTH",
"281 1303 OFFCURVE",
"260 1333 OFFCURVE",
"190 1333 CURVE SMOOTH",
"152 1333 OFFCURVE",
"123 1294 OFFCURVE",
"123 1268 CURVE SMOOTH",
"123 1206 OFFCURVE",
"168 1165 OFFCURVE",
"240 1149 CURVE SMOOTH",
"412 1106 LINE",
"410 1100 OFFCURVE",
"410 1092 OFFCURVE",
"410 1083 CURVE SMOOTH"
);
}
);
width = 995;
}
);
unicode = 002A;
},
{
glyphname = backslash;
layers = (
{
hints = (
{
horizontal = 1;
place = "{-377, -49}";
},
{
horizontal = 1;
place = "{1620, -47}";
}
);
layerId = UUID0;
paths = (
{
closed = 1;
nodes = (
"971 -426 LINE",
"1104 -426 LINE",
"301 1620 LINE",
"164 1620 LINE"
);
}
);
width = 1268;
}
);
unicode = 005C;
},
{
glyphname = periodcentered;
layers = (
{
hints = (
{
place = "{164, 250}";
},
{
horizontal = 1;
place = "{627, 250}";
}
);
layerId = UUID0;
paths = (
{
closed = 1;
nodes = (
"164 682 OFFCURVE",
"219 627 OFFCURVE",
"289 627 CURVE SMOOTH",
"358 627 OFFCURVE",
"414 682 OFFCURVE",
"414 752 CURVE SMOOTH",
"414 821 OFFCURVE",
"358 877 OFFCURVE",
"289 877 CURVE SMOOTH",
"219 877 OFFCURVE",
"164 821 OFFCURVE",
"164 752 CURVE SMOOTH"
);
}
);
width = 578;
}
);
unicode = 00B7;
},
{
glyphname = bullet;
layers = (
{
hints = (
{
place = "{164, 393}";
},
{
horizontal = 1;
place = "{553, 393}";
}
);
layerId = UUID0;
paths = (
{
closed = 1;
nodes = (
"164 621 OFFCURVE",
"248 532 OFFCURVE",
"360 532 CURVE SMOOTH",
"469 532 OFFCURVE",
"557 621 OFFCURVE",
"557 729 CURVE SMOOTH",
"557 842 OFFCURVE",
"469 926 OFFCURVE",
"360 926 CURVE SMOOTH",
"250 926 OFFCURVE",
"164 840 OFFCURVE",
"164 729 CURVE SMOOTH"
);
}
);
width = 721;
}
);
unicode = 2022;
},
{
glyphname = colon;
layers = (
{
hints = (
{
place = "{164, 250}";
},
{
horizontal = 1;
place = "{-18, 249}";
},
{
horizontal = 1;
place = "{666, 249}";
}
);
layerId = UUID0;
paths = (
{
closed = 1;
nodes = (
"164 702 OFFCURVE",
"219 645 OFFCURVE",
"289 645 CURVE SMOOTH",
"358 645 OFFCURVE",
"414 702 OFFCURVE",
"414 770 CURVE SMOOTH",
"414 840 OFFCURVE",
"358 895 OFFCURVE",
"289 895 CURVE SMOOTH",
"219 895 OFFCURVE",
"164 840 OFFCURVE",
"164 770 CURVE SMOOTH"
);
},
{
closed = 1;
nodes = (
"164 27 OFFCURVE",
"219 -29 OFFCURVE",
"289 -29 CURVE SMOOTH",
"358 -29 OFFCURVE",
"414 27 OFFCURVE",
"414 96 CURVE SMOOTH",
"414 166 OFFCURVE",
"358 221 OFFCURVE",
"289 221 CURVE SMOOTH",
"219 221 OFFCURVE",
"164 166 OFFCURVE",
"164 96 CURVE SMOOTH"
);
}
);
width = 578;
}
);
unicode = 003A;
},
{
glyphname = comma;
layers = (
{
hints = (
{
place = "{162, 276}";
},
{
horizontal = 1;
place = "{-236, -49}";
},
{
horizontal = 1;
place = "{-18, 245}";
}
);
layerId = UUID0;
paths = (
{
closed = 1;
nodes = (
"215 -262 LINE",
"322 -193 OFFCURVE",
"414 -41 OFFCURVE",
"414 86 CURVE SMOOTH",
"414 188 OFFCURVE",
"348 221 OFFCURVE",
"281 221 CURVE SMOOTH",
"211 221 OFFCURVE",
"164 158 OFFCURVE",
"164 98 CURVE SMOOTH",
"164 18 OFFCURVE",
"203 -20 OFFCURVE",
"293 -20 CURVE",
"297 -27 LINE",
"287 -68 OFFCURVE",
"270 -125 OFFCURVE",
"164 -217 CURVE"
);
}
);
width = 578;
}
);
unicode = 002C;
},
{
glyphname = exclam;
layers = (
{
hints = (
{
place = "{315, 88}";
},
{
place = "{233, 250}";
},
{
horizontal = 1;
place = "{-35, 250}";
}
);
layerId = UUID0;
paths = (
{
closed = 1;
nodes = (
"397 348 LINE",
"406 489 LINE SMOOTH",
"432 940 OFFCURVE",
"485 1235 OFFCURVE",
"485 1389 CURVE SMOOTH",
"485 1493 OFFCURVE",
"393 1503 OFFCURVE",
"358 1503 CURVE SMOOTH",
"324 1503 OFFCURVE",
"231 1493 OFFCURVE",
"231 1389 CURVE SMOOTH",
"231 1235 OFFCURVE",
"297 942 OFFCURVE",
"313 489 CURVE SMOOTH",
"319 348 LINE"
);
},
{
closed = 1;
nodes = (
"233 27 OFFCURVE",
"289 -29 OFFCURVE",
"358 -29 CURVE SMOOTH",
"428 -29 OFFCURVE",
"483 27 OFFCURVE",
"483 96 CURVE SMOOTH",
"483 166 OFFCURVE",
"428 221 OFFCURVE",
"358 221 CURVE SMOOTH",
"289 221 OFFCURVE",
"233 166 OFFCURVE",
"233 96 CURVE SMOOTH"
);
}
);
width = 717;
}
);
unicode = 0021;
},
{
glyphname = exclamdown;
layers = (
{
hints = (
{
place = "{315, 88}";
},
{
place = "{233, 250}";
},
{
horizontal = 1;
place = "{-35, 250}";
}
);
layerId = UUID0;
paths = (
{
closed = 1;
nodes = (
"319 1126 LINE",
"311 985 LINE SMOOTH",
"285 535 OFFCURVE",
"231 240 OFFCURVE",
"231 86 CURVE SMOOTH",
"231 -18 OFFCURVE",
"324 -29 OFFCURVE",
"358 -29 CURVE SMOOTH",
"393 -29 OFFCURVE",
"485 -18 OFFCURVE",
"485 86 CURVE SMOOTH",
"485 240 OFFCURVE",
"420 532 OFFCURVE",
"403 985 CURVE SMOOTH",
"397 1126 LINE"
);
},
{
closed = 1;
nodes = (
"483 1448 OFFCURVE",
"428 1503 OFFCURVE",
"358 1503 CURVE SMOOTH",
"289 1503 OFFCURVE",
"233 1448 OFFCURVE",
"233 1378 CURVE SMOOTH",
"233 1309 OFFCURVE",
"289 1253 OFFCURVE",
"358 1253 CURVE SMOOTH",
"428 1253 OFFCURVE",
"483 1309 OFFCURVE",
"483 1378 CURVE SMOOTH"
);
}
);
width = 717;
}
);
unicode = 00A1;
},
{
glyphname = numbersign;
layers = (
{
hints = (
{
place = "{180, 326}";
},
{
place = "{596, 328}";
},
{
horizontal = 1;
place = "{457, 90}";
},
{
horizontal = 1;
place = "{967, 90}";
},
{
horizontal = 1;
place = "{141, -49}";
},
{
horizontal = 1;
place = "{1403, -47}";
}
);
layerId = UUID0;
paths = (
{
closed = 1;
nodes = (
"713 0 LINE",
"778 412 LINE",
"1042 412 LINE",
"1057 510 LINE",
"793 510 LINE",
"866 981 LINE",
"1128 981 LINE",
"1145 1083 LINE",
"885 1083 LINE",
"948 1470 LINE",
"817 1470 LINE",
"760 1083 LINE",
"422 1083 LINE",
"485 1470 LINE",
"360 1470 LINE",
"297 1083 LINE",
"20 1083 LINE",
"8 981 LINE",
"285 981 LINE",
"207 510 LINE",
"-66 510 LINE",
"-80 412 LINE",
"190 412 LINE",
"129 0 LINE",
"254 0 LINE",
"324 412 LINE",
"655 412 LINE",
"590 0 LINE"
);
},
{
closed = 1;
nodes = (
"336 510 LINE",
"408 981 LINE",
"737 981 LINE",
"668 510 LINE"
);
}
);
width = 1065;
}
);
unicode = 0023;
},
{
glyphname = period;
layers = (
{
hints = (
{
place = "{164, 250}";
},
{
horizontal = 1;
place = "{-20, 249}";
}
);
layerId = UUID0;
paths = (
{
closed = 1;
nodes = (
"164 27 OFFCURVE",
"219 -29 OFFCURVE",
"289 -29 CURVE SMOOTH",
"358 -29 OFFCURVE",
"414 27 OFFCURVE",
"414 96 CURVE SMOOTH",
"414 166 OFFCURVE",
"358 221 OFFCURVE",
"289 221 CURVE SMOOTH",
"219 221 OFFCURVE",
"164 166 OFFCURVE",
"164 96 CURVE SMOOTH"
);
}
);
width = 578;
}
);
unicode = 002E;
},
{
glyphname = question;
layers = (
{
hints = (
{
place = "{375, 57}";
},
{
place = "{737, 142}";
},
{
place = "{92, 205}";
},
{
place = "{92, 180}";
},
{
place = "{293, 221}";
},
{
horizontal = 1;
place = "{1405, 57}";
},
{
horizontal = 1;
place = "{-31, 221}";
}
);
layerId = UUID0;
paths = (
{
closed = 1;
nodes = (
"442 348 LINE",
"442 459 LINE SMOOTH",
"442 565 OFFCURVE",
"526 680 OFFCURVE",
"643 764 CURVE SMOOTH",
"766 852 OFFCURVE",
"918 956 OFFCURVE",
"918 1174 CURVE SMOOTH",
"918 1391 OFFCURVE",
"715 1503 OFFCURVE",
"475 1503 CURVE SMOOTH",
"201 1503 OFFCURVE",
"72 1354 OFFCURVE",
"72 1235 CURVE SMOOTH",
"72 1153 OFFCURVE",
"119 1112 OFFCURVE",
"195 1112 CURVE SMOOTH",
"262 1112 OFFCURVE",
"307 1161 OFFCURVE",
"307 1223 CURVE SMOOTH",
"307 1251 OFFCURVE",
"295 1294 OFFCURVE",
"246 1315 CURVE SMOOTH",
"246 1352 OFFCURVE",
"317 1430 OFFCURVE",
"473 1430 CURVE SMOOTH",
"639 1430 OFFCURVE",
"688 1303 OFFCURVE",
"688 1196 CURVE SMOOTH",
"688 995 OFFCURVE",
"590 899 OFFCURVE",
"520 836 CURVE SMOOTH",
"406 731 OFFCURVE",
"365 659 OFFCURVE",
"365 489 CURVE SMOOTH",
"365 348 LINE"
);
},
{
closed = 1;
nodes = (
"303 20 OFFCURVE",
"352 -29 OFFCURVE",
"414 -29 CURVE SMOOTH",
"475 -29 OFFCURVE",
"524 20 OFFCURVE",
"524 82 CURVE SMOOTH",
"524 143 OFFCURVE",
"475 193 OFFCURVE",
"414 193 CURVE SMOOTH",
"352 193 OFFCURVE",
"303 143 OFFCURVE",
"303 82 CURVE SMOOTH"
);
}
);
width = 1030;
}
);
unicode = 003F;
},
{
glyphname = questiondown;
layers = (
{
hints = (
{
place = "{406, 57}";
},
{
place = "{768, 141}";
},
{
place = "{123, 205}";
},
{
place = "{123, 180}";
},
{
place = "{324, 221}";
},
{
horizontal = 1;
place = "{1405, 57}";
},
{
horizontal = 1;
place = "{-31, 221}";
}
);
layerId = UUID0;
paths = (
{
closed = 1;
nodes = (
"578 1126 LINE",
"578 1016 LINE SMOOTH",
"578 909 OFFCURVE",
"494 795 OFFCURVE",
"377 711 CURVE SMOOTH",
"254 623 OFFCURVE",
"102 518 OFFCURVE",
"102 301 CURVE SMOOTH",
"102 84 OFFCURVE",
"305 -29 OFFCURVE",
"545 -29 CURVE SMOOTH",
"819 -29 OFFCURVE",
"948 121 OFFCURVE",
"948 240 CURVE SMOOTH",
"948 322 OFFCURVE",
"901 362 OFFCURVE",
"825 362 CURVE SMOOTH",
"758 362 OFFCURVE",
"713 313 OFFCURVE",
"713 252 CURVE SMOOTH",
"713 223 OFFCURVE",
"725 180 OFFCURVE",
"774 160 CURVE SMOOTH",
"774 123 OFFCURVE",
"702 45 OFFCURVE",
"547 45 CURVE SMOOTH",
"381 45 OFFCURVE",
"332 172 OFFCURVE",
"332 279 CURVE SMOOTH",
"332 479 OFFCURVE",
"430 575 OFFCURVE",
"500 639 CURVE SMOOTH",
"614 743 OFFCURVE",
"655 815 OFFCURVE",
"655 985 CURVE SMOOTH",
"655 1126 LINE"
);
},
{
closed = 1;
nodes = (
"717 1454 OFFCURVE",
"668 1503 OFFCURVE",
"606 1503 CURVE SMOOTH",
"545 1503 OFFCURVE",
"496 1454 OFFCURVE",
"496 1393 CURVE SMOOTH",
"496 1331 OFFCURVE",
"545 1282 OFFCURVE",
"606 1282 CURVE SMOOTH",
"668 1282 OFFCURVE",
"717 1331 OFFCURVE",
"717 1393 CURVE SMOOTH"
);
}
);
width = 1030;
}
);
unicode = 00BF;
},
{
glyphname = quotedbl;
layers = (
{
hints = (
{
place = "{139, 207}";
},
{
place = "{520, 209}";
},
{
horizontal = 1;
place = "{1620, -47}";
},
{
horizontal = 1;
place = "{1196, -49}";
}
);
layerId = UUID0;
paths = (
{
closed = 1;
nodes = (
"205 1030 LINE",
"281 1030 LINE",
"340 1427 LINE",
"340 1479 OFFCURVE",
"295 1503 OFFCURVE",
"242 1503 CURVE SMOOTH",
"186 1503 OFFCURVE",
"143 1479 OFFCURVE",
"143 1427 CURVE"
);
},
{
closed = 1;
nodes = (
"553 1030 LINE",
"629 1030 LINE",
"688 1427 LINE",
"688 1479 OFFCURVE",
"643 1503 OFFCURVE",
"590 1503 CURVE SMOOTH",
"535 1503 OFFCURVE",
"492 1479 OFFCURVE",
"492 1427 CURVE"
);
}
);
width = 831;
}
);
unicode = 0022;
},
{
glyphname = quotesingle;
layers = (
{
hints = (
{
place = "{139, 207}";
},
{
place = "{520, 209}";
},
{
horizontal = 1;
place = "{1620, -47}";
},
{
horizontal = 1;
place = "{1196, -49}";
}
);
layerId = UUID0;
paths = (
{
closed = 1;
nodes = (
"205 1030 LINE",
"281 1030 LINE",
"340 1427 LINE",
"340 1479 OFFCURVE",
"295 1503 OFFCURVE",
"242 1503 CURVE SMOOTH",
"186 1503 OFFCURVE",
"143 1479 OFFCURVE",
"143 1427 CURVE"
);
}
);
width = 483;
}
);
unicode = 0027;
},
{
glyphname = semicolon;
layers = (
{
hints = (
{
place = "{438, -276}";
},
{
horizontal = 1;
place = "{-18, 245}";
},
{
horizontal = 1;
place = "{915, -249}";
},
{
horizontal = 1;
place = "{-263, 21}";
target = up;
type = BottomGhost;
}
);
layerId = UUID0;
paths = (
{
closed = 1;
nodes = (
"215 -262 LINE",
"322 -193 OFFCURVE",
"414 -41 OFFCURVE",
"414 86 CURVE SMOOTH",
"414 188 OFFCURVE",
"348 221 OFFCURVE",
"281 221 CURVE SMOOTH",
"211 221 OFFCURVE",
"164 158 OFFCURVE",
"164 98 CURVE SMOOTH",
"164 18 OFFCURVE",
"203 -20 OFFCURVE",
"293 -20 CURVE",
"297 -27 LINE",
"287 -68 OFFCURVE",
"270 -125 OFFCURVE",
"164 -217 CURVE"
);
},
{
closed = 1;
nodes = (
"164 702 OFFCURVE",
"219 645 OFFCURVE",
"289 645 CURVE SMOOTH",
"358 645 OFFCURVE",
"414 702 OFFCURVE",
"414 770 CURVE SMOOTH",
"414 840 OFFCURVE",
"358 895 OFFCURVE",
"289 895 CURVE SMOOTH",
"219 895 OFFCURVE",
"164 840 OFFCURVE",
"164 770 CURVE SMOOTH"
);
}
);
width = 578;
}
);
unicode = 003B;
},
{
glyphname = slash;
layers = (
{
hints = (
{
horizontal = 1;
place = "{-377, -49}";
},
{
horizontal = 1;
place = "{1620, -47}";
}
);
layerId = UUID0;
paths = (
{
closed = 1;
nodes = (
"297 -426 LINE",
"1104 1620 LINE",
"967 1620 LINE",
"164 -426 LINE"
);
}
);
width = 1268;
}
);
unicode = 002F;
},
{
glyphname = underscore;
layers = (
{
hints = (
{
horizontal = 1;
place = "{-539, 113}";
}
);
layerId = UUID0;
paths = (
{
closed = 1;
nodes = (
"0 -532 LINE",
"1257 -532 LINE",
"1257 -424 LINE",
"0 -424 LINE"
);
}
);
width = 1257;
}
);
unicode = 005F;
},
{
glyphname = braceleft;
layers = (
{
hints = (
{
place = "{299, 176}";
},
{
horizontal = 1;
place = "{1679, -45}";
},
{
horizontal = 1;
place = "{-299, -49}";
},
{
horizontal = 1;
place = "{711, -88}";
}
);
layerId = UUID0;
paths = (
{
closed = 1;
nodes = (
"102 604 LINE",
"102 559 LINE",
"338 526 OFFCURVE",
"346 301 OFFCURVE",
"346 174 CURVE SMOOTH",
"346 127 OFFCURVE",
"340 33 OFFCURVE",
"340 -23 CURVE SMOOTH",
"340 -197 OFFCURVE",
"350 -377 OFFCURVE",
"731 -428 CURVE",
"745 -379 LINE",
"659 -369 OFFCURVE",
"547 -315 OFFCURVE",
"547 -170 CURVE SMOOTH",
"547 -92 OFFCURVE",
"563 12 OFFCURVE",
"563 135 CURVE SMOOTH",
"563 248 OFFCURVE",
"551 481 OFFCURVE",
"236 604 CURVE",
"551 727 OFFCURVE",
"563 961 OFFCURVE",
"563 1073 CURVE SMOOTH",
"563 1196 OFFCURVE",
"547 1300 OFFCURVE",
"547 1378 CURVE SMOOTH",
"547 1524 OFFCURVE",
"659 1577 OFFCURVE",
"745 1587 CURVE",
"731 1636 LINE",
"350 1585 OFFCURVE",
"340 1405 OFFCURVE",
"340 1231 CURVE SMOOTH",
"340 1176 OFFCURVE",
"346 1081 OFFCURVE",
"346 1034 CURVE SMOOTH",
"346 907 OFFCURVE",
"338 682 OFFCURVE",
"102 649 CURVE"
);
}
);
width = 807;
}
);
unicode = 007B;
},
{
glyphname = braceright;
layers = (
{
hints = (
{
place = "{258, 176}";
},
{
horizontal = 1;
place = "{1679, -45}";
},
{
horizontal = 1;
place = "{-299, -49}";
},
{
horizontal = 1;
place = "{711, -88}";
}
);
layerId = UUID0;
paths = (
{
closed = 1;
nodes = (
"256 481 OFFCURVE",
"244 248 OFFCURVE",
"244 135 CURVE SMOOTH",
"244 12 OFFCURVE",
"260 -92 OFFCURVE",
"260 -170 CURVE SMOOTH",
"260 -315 OFFCURVE",
"147 -369 OFFCURVE",
"61 -379 CURVE",
"76 -428 LINE",
"457 -377 OFFCURVE",
"467 -197 OFFCURVE",
"467 -23 CURVE SMOOTH",
"467 33 OFFCURVE",
"461 127 OFFCURVE",
"461 174 CURVE SMOOTH",
"461 301 OFFCURVE",
"469 526 OFFCURVE",
"705 559 CURVE",
"705 649 LINE",
"469 682 OFFCURVE",
"461 907 OFFCURVE",
"461 1034 CURVE SMOOTH",
"461 1081 OFFCURVE",
"467 1176 OFFCURVE",
"467 1231 CURVE SMOOTH",
"467 1405 OFFCURVE",
"457 1585 OFFCURVE",
"76 1636 CURVE",
"61 1587 LINE",
"147 1577 OFFCURVE",
"260 1524 OFFCURVE",
"260 1378 CURVE SMOOTH",
"260 1300 OFFCURVE",
"244 1196 OFFCURVE",
"244 1073 CURVE SMOOTH",
"244 961 OFFCURVE",
"256 727 OFFCURVE",
"571 604 CURVE"
);
}
);
width = 807;
}
);
unicode = 007D;
},
{
glyphname = bracketleft;
layers = (
{
hints = (
{
place = "{246, 198}";
},
{
horizontal = 1;
place = "{-426, 86}";
},
{
horizontal = 1;
place = "{1534, 86}";
}
);
layerId = UUID0;
paths = (
{
closed = 1;
nodes = (
"741 1620 LINE",
"246 1620 LINE",
"246 -426 LINE",
"741 -426 LINE",
"741 -340 LINE",
"444 -340 LINE",
"444 1534 LINE",
"741 1534 LINE"
);
}
);
width = 823;
}
);
unicode = 005B;
},
{
glyphname = bracketright;
layers = (
{
hints = (
{
place = "{379, 199}";
},
{
horizontal = 1;
place = "{-426, 86}";
},
{
horizontal = 1;
place = "{1534, 86}";
}
);
layerId = UUID0;
paths = (
{
closed = 1;
nodes = (
"82 1620 LINE",
"82 1534 LINE",
"379 1534 LINE",
"379 -340 LINE",
"82 -340 LINE",
"82 -426 LINE",
"578 -426 LINE",
"578 1620 LINE"
);
}
);
width = 823;
}
);
unicode = 005D;
},
{
glyphname = parenleft;
layers = (
{
hints = (
{
place = "{184, 232}";
},
{
horizontal = 1;
place = "{1638, -47}";
},
{
horizontal = 1;
place = "{-377, -49}";
}
);
layerId = UUID0;
paths = (
{
closed = 1;
nodes = (
"784 -397 LINE",
"770 -379 OFFCURVE",
"729 -340 OFFCURVE",
"616 -164 CURVE SMOOTH",
"424 135 OFFCURVE",
"416 485 OFFCURVE",
"416 604 CURVE SMOOTH",
"416 723 OFFCURVE",
"430 1069 OFFCURVE",
"616 1372 CURVE SMOOTH",
"727 1548 OFFCURVE",
"772 1589 OFFCURVE",
"784 1606 CURVE",
"752 1636 LINE",
"242 1290 OFFCURVE",
"184 780 OFFCURVE",
"184 604 CURVE SMOOTH",
"184 428 OFFCURVE",
"242 -82 OFFCURVE",
"752 -428 CURVE"
);
}
);
width = 868;
}
);
unicode = 0028;
},
{
glyphname = parenright;
layers = (
{
hints = (
{
place = "{80, 231}";
},
{
horizontal = 1;
place = "{1638, -47}";
},
{
horizontal = 1;
place = "{-377, -49}";
}
);
layerId = UUID0;
paths = (
{
closed = 1;
nodes = (
"117 -428 LINE",
"627 -82 OFFCURVE",
"684 428 OFFCURVE",
"684 604 CURVE SMOOTH",
"684 780 OFFCURVE",
"627 1290 OFFCURVE",
"117 1636 CURVE",
"84 1606 LINE",
"88 1599 OFFCURVE",
"141 1548 OFFCURVE",
"252 1372 CURVE SMOOTH",
"438 1069 OFFCURVE",
"453 723 OFFCURVE",
"453 604 CURVE SMOOTH",
"453 485 OFFCURVE",
"438 139 OFFCURVE",
"252 -164 CURVE SMOOTH",
"141 -340 OFFCURVE",
"92 -387 OFFCURVE",
"84 -397 CURVE"
);
}
);
width = 868;
}
);
unicode = 0029;
},
{
glyphname = emdash;
layers = (
{
hints = (
{
horizontal = 1;
place = "{371, 114}";
}
);
layerId = UUID0;
paths = (
{
closed = 1;
nodes = (
"164 412 LINE",
"2275 412 LINE",
"2275 526 LINE",
"164 526 LINE"
);
}
);
width = 2439;
}
);
unicode = 2014;
},
{
glyphname = endash;
layers = (
{
hints = (
{
horizontal = 1;
place = "{371, 114}";
}
);
layerId = UUID0;
paths = (
{
closed = 1;
nodes = (
"164 412 LINE",
"1591 412 LINE",
"1591 526 LINE",
"164 526 LINE"
);
}
);
width = 1755;
}
);
unicode = 2013;
},
{
glyphname = hyphen;
layers = (
{
hints = (
{
horizontal = 1;
place = "{334, 151}";
}
);
layerId = UUID0;
paths = (
{
closed = 1;
nodes = (
"164 412 LINE",
"772 412 LINE",
"772 537 LINE",
"164 537 LINE"
);
}
);
width = 936;
}
);
unicode = 002D;
},
{
glyphname = uni00AD;
layers = (
{
hints = (
{
horizontal = 1;
place = "{334, 151}";
}
);
layerId = UUID0;
paths = (
{
closed = 1;
nodes = (
"164 412 LINE",
"772 412 LINE",
"772 537 LINE",
"164 537 LINE"
);
}
);
width = 936;
}
);
unicode = 00AD;
},
{
glyphname = guillemotleft;
layers = (
{
hints = (
{
horizontal = 1;
place = "{803, -45}";
},
{
horizontal = 1;
place = "{92, -49}";
},
{
origin = "{0, 3}";
target = "{1, 1}";
}
);
layerId = UUID0;
paths = (
{
closed = 1;
nodes = (
"358 424 LINE",
"571 758 LINE",
"514 803 LINE",
"162 424 LINE",
"514 43 LINE",
"571 90 LINE"
);
},
{
closed = 1;
nodes = (
"739 424 LINE",
"950 758 LINE",
"893 803 LINE",
"541 424 LINE",
"893 43 LINE",
"950 90 LINE"
);
}
);
width = 1114;
}
);
unicode = 00AB;
},
{
glyphname = guillemotright;
layers = (
{
hints = (
{
horizontal = 1;
place = "{92, -49}";
},
{
horizontal = 1;
place = "{803, -45}";
},
{
origin = "{0, 1}";
target = "{1, 3}";
}
);
layerId = UUID0;
paths = (
{
closed = 1;
nodes = (
"377 424 LINE",
"164 90 LINE",
"221 43 LINE",
"573 424 LINE",
"221 803 LINE",
"164 758 LINE"
);
},
{
closed = 1;
nodes = (
"756 424 LINE",
"543 90 LINE",
"602 43 LINE",
"952 424 LINE",
"602 803 LINE",
"543 758 LINE"
);
}
);
width = 1116;
}
);
unicode = 00BB;
},
{
glyphname = guilsinglleft;
layers = (
{
hints = (
{
place = "{164, 424}";
},
{
horizontal = 1;
place = "{850, -47}";
},
{
horizontal = 1;
place = "{139, -49}";
}
);
layerId = UUID0;
paths = (
{
closed = 1;
nodes = (
"365 424 LINE",
"573 758 LINE",
"516 803 LINE",
"164 424 LINE",
"516 43 LINE",
"573 90 LINE"
);
}
);
width = 737;
}
);
unicode = 2039;
},
{
glyphname = guilsinglright;
layers = (
{
hints = (
{
place = "{164, 424}";
},
{
horizontal = 1;
place = "{139, -49}";
},
{
horizontal = 1;
place = "{850, -47}";
}
);
layerId = UUID0;
paths = (
{
closed = 1;
nodes = (
"164 90 LINE",
"221 43 LINE",
"573 424 LINE",
"221 803 LINE",
"164 758 LINE",
"373 424 LINE"
);
}
);
width = 737;
}
);
unicode = 203A;
},
{
glyphname = quotedblbase;
layers = (
{
hints = (
{
place = "{162, 276}";
},
{
place = "{553, 276}";
},
{
horizontal = 1;
place = "{-18, 245}";
},
{
horizontal = 1;
place = "{-236, -49}";
}
);
layerId = UUID0;
paths = (
{
closed = 1;
nodes = (
"236 -262 LINE",
"342 -193 OFFCURVE",
"434 -41 OFFCURVE",
"434 86 CURVE SMOOTH",
"434 188 OFFCURVE",
"369 221 OFFCURVE",
"301 221 CURVE SMOOTH",
"231 221 OFFCURVE",
"184 158 OFFCURVE",
"184 98 CURVE SMOOTH",
"184 18 OFFCURVE",
"223 -20 OFFCURVE",
"313 -20 CURVE",
"317 -27 LINE",
"307 -68 OFFCURVE",
"291 -125 OFFCURVE",
"184 -217 CURVE"
);
},
{
closed = 1;
nodes = (
"606 -262 LINE",
"713 -193 OFFCURVE",
"805 -41 OFFCURVE",
"805 86 CURVE SMOOTH",
"805 188 OFFCURVE",
"739 221 OFFCURVE",
"672 221 CURVE SMOOTH",
"602 221 OFFCURVE",
"555 158 OFFCURVE",
"555 98 CURVE SMOOTH",
"555 18 OFFCURVE",
"594 -20 OFFCURVE",
"684 -20 CURVE",
"688 -27 LINE",
"678 -68 OFFCURVE",
"662 -125 OFFCURVE",
"555 -217 CURVE"
);
}
);
width = 989;
}
);
unicode = 201E;
},
{
glyphname = quotedblleft;
layers = (
{
hints = (
{
place = "{162, 276}";
},
{
place = "{530, 275}";
},
{
horizontal = 1;
place = "{1393, 245}";
},
{
horizontal = 1;
place = "{1176, -50}";
}
);
layerId = UUID0;
paths = (
{
closed = 1;
nodes = (
"754 1503 LINE",
"647 1434 OFFCURVE",
"555 1282 OFFCURVE",
"555 1155 CURVE SMOOTH",
"555 1053 OFFCURVE",
"621 1020 OFFCURVE",
"688 1020 CURVE SMOOTH",
"758 1020 OFFCURVE",
"805 1083 OFFCURVE",
"805 1143 CURVE SMOOTH",
"805 1223 OFFCURVE",
"766 1262 OFFCURVE",
"676 1262 CURVE",
"672 1268 LINE",
"682 1309 OFFCURVE",
"698 1366 OFFCURVE",
"805 1458 CURVE"
);
},
{
closed = 1;
nodes = (
"383 1503 LINE",
"276 1434 OFFCURVE",
"184 1282 OFFCURVE",
"184 1155 CURVE SMOOTH",
"184 1053 OFFCURVE",
"250 1020 OFFCURVE",
"317 1020 CURVE SMOOTH",
"387 1020 OFFCURVE",
"434 1083 OFFCURVE",
"434 1143 CURVE SMOOTH",
"434 1223 OFFCURVE",
"395 1262 OFFCURVE",
"305 1262 CURVE",
"301 1268 LINE",
"311 1309 OFFCURVE",
"328 1366 OFFCURVE",
"434 1458 CURVE"
);
}
);
width = 989;
}
);
unicode = 201C;
},
{
glyphname = quotedblright;
layers = (
{
hints = (
{
place = "{162, 276}";
},
{
place = "{530, 275}";
},
{
horizontal = 1;
place = "{1393, 245}";
},
{
horizontal = 1;
place = "{1176, -50}";
}
);
layerId = UUID0;
paths = (
{
closed = 1;
nodes = (
"236 1020 LINE",
"342 1090 OFFCURVE",
"434 1241 OFFCURVE",
"434 1368 CURVE SMOOTH",
"434 1470 OFFCURVE",
"369 1503 OFFCURVE",
"301 1503 CURVE SMOOTH",
"231 1503 OFFCURVE",
"184 1440 OFFCURVE",
"184 1380 CURVE SMOOTH",
"184 1300 OFFCURVE",
"223 1262 OFFCURVE",
"313 1262 CURVE",
"317 1255 LINE",
"307 1214 OFFCURVE",
"291 1157 OFFCURVE",
"184 1065 CURVE"
);
},
{
closed = 1;
nodes = (
"606 1020 LINE",
"713 1090 OFFCURVE",
"805 1241 OFFCURVE",
"805 1368 CURVE SMOOTH",
"805 1470 OFFCURVE",
"739 1503 OFFCURVE",
"672 1503 CURVE SMOOTH",
"602 1503 OFFCURVE",
"555 1440 OFFCURVE",
"555 1380 CURVE SMOOTH",
"555 1300 OFFCURVE",
"594 1262 OFFCURVE",
"684 1262 CURVE",
"688 1255 LINE",
"678 1214 OFFCURVE",
"662 1157 OFFCURVE",
"555 1065 CURVE"
);
}
);
width = 989;
}
);
unicode = 201D;
},
{
glyphname = quoteleft;
layers = (
{
hints = (
{
place = "{162, 276}";
},
{
place = "{530, 275}";
},
{
horizontal = 1;
place = "{1393, 245}";
},
{
horizontal = 1;
place = "{1176, -50}";
}
);
layerId = UUID0;
paths = (
{
closed = 1;
nodes = (
"383 1503 LINE",
"276 1434 OFFCURVE",
"184 1282 OFFCURVE",
"184 1155 CURVE SMOOTH",
"184 1053 OFFCURVE",
"250 1020 OFFCURVE",
"317 1020 CURVE SMOOTH",
"387 1020 OFFCURVE",
"434 1083 OFFCURVE",
"434 1143 CURVE SMOOTH",
"434 1223 OFFCURVE",
"395 1262 OFFCURVE",
"305 1262 CURVE",
"301 1268 LINE",
"311 1309 OFFCURVE",
"328 1366 OFFCURVE",
"434 1458 CURVE"
);
}
);
width = 618;
}
);
unicode = 2018;
},
{
glyphname = quoteright;
layers = (
{
hints = (
{
place = "{162, 276}";
},
{
place = "{530, 275}";
},
{
horizontal = 1;
place = "{1393, 245}";
},
{
horizontal = 1;
place = "{1176, -50}";
}
);
layerId = UUID0;
paths = (
{
closed = 1;
nodes = (
"236 1020 LINE",
"342 1090 OFFCURVE",
"434 1241 OFFCURVE",
"434 1368 CURVE SMOOTH",
"434 1470 OFFCURVE",
"369 1503 OFFCURVE",
"301 1503 CURVE SMOOTH",
"231 1503 OFFCURVE",
"184 1440 OFFCURVE",
"184 1380 CURVE SMOOTH",
"184 1300 OFFCURVE",
"223 1262 OFFCURVE",
"313 1262 CURVE",
"317 1255 LINE",
"307 1214 OFFCURVE",
"291 1157 OFFCURVE",
"184 1065 CURVE"
);
}
);
width = 618;
}
);
unicode = 2019;
},
{
glyphname = quotesinglbase;
layers = (
{
hints = (
{
place = "{182, 277}";
},
{
horizontal = 1;
place = "{-236, -49}";
},
{
horizontal = 1;
place = "{-18, 245}";
}
);
layerId = UUID0;
paths = (
{
closed = 1;
nodes = (
"236 -262 LINE",
"342 -193 OFFCURVE",
"434 -41 OFFCURVE",
"434 86 CURVE SMOOTH",
"434 188 OFFCURVE",
"369 221 OFFCURVE",
"301 221 CURVE SMOOTH",
"231 221 OFFCURVE",
"184 158 OFFCURVE",
"184 98 CURVE SMOOTH",
"184 18 OFFCURVE",
"223 -20 OFFCURVE",
"313 -20 CURVE",
"317 -27 LINE",
"307 -68 OFFCURVE",
"291 -125 OFFCURVE",
"184 -217 CURVE"
);
}
);
width = 618;
}
);
unicode = 201A;
},
{
glyphname = .notdef;
layers = (
{
background = {
paths = (
{
closed = 1;
nodes = (
"1382 473 OFFCURVE",
"1389 557 OFFCURVE",
"1382 596 CURVE SMOOTH",
"1380 606 OFFCURVE",
"1378 600 OFFCURVE",
"1378 596 CURVE SMOOTH",
"1368 543 OFFCURVE",
"1350 510 OFFCURVE",
"1327 492 CURVE",
"1311 516 OFFCURVE",
"1305 545 OFFCURVE",
"1305 582 CURVE",
"1343 598 OFFCURVE",
"1364 672 OFFCURVE",
"1364 731 CURVE SMOOTH",
"1364 797 OFFCURVE",
"1348 823 OFFCURVE",
"1286 834 CURVE",
"1245 758 OFFCURVE",
"1233 627 OFFCURVE",
"1253 528 CURVE SMOOTH",
"1255 522 LINE",
"1249 514 OFFCURVE",
"1239 489 OFFCURVE",
"1227 492 CURVE",
"1212 545 OFFCURVE",
"1217 631 OFFCURVE",
"1225 686 CURVE",
"1217 696 OFFCURVE",
"1190 705 OFFCURVE",
"1178 702 CURVE",
"1176 698 OFFCURVE",
"1169 672 OFFCURVE",
"1169 666 CURVE",
"1155 670 OFFCURVE",
"1141 672 OFFCURVE",
"1130 672 CURVE",
"1104 645 OFFCURVE",
"1098 610 OFFCURVE",
"1096 573 CURVE SMOOTH",
"1096 545 LINE",
"1087 526 OFFCURVE",
"1075 504 OFFCURVE",
"1057 494 CURVE",
"1049 502 OFFCURVE",
"1042 516 OFFCURVE",
"1038 530 CURVE",
"1067 541 OFFCURVE",
"1083 580 OFFCURVE",
"1083 614 CURVE SMOOTH",
"1083 668 OFFCURVE",
"1051 686 OFFCURVE",
"1006 682 CURVE",
"993 662 OFFCURVE",
"985 614 OFFCURVE",
"983 575 CURVE SMOOTH",
"981 524 OFFCURVE",
"999 479 OFFCURVE",
"1055 479 CURVE",
"1079 481 OFFCURVE",
"1094 496 OFFCURVE",
"1102 510 CURVE",
"1108 492 OFFCURVE",
"1122 477 OFFCURVE",
"1151 479 CURVE SMOOTH",
"1163 479 OFFCURVE",
"1182 489 OFFCURVE",
"1186 506 CURVE",
"1190 489 OFFCURVE",
"1206 473 OFFCURVE",
"1227 473 CURVE SMOOTH",
"1245 473 OFFCURVE",
"1257 487 OFFCURVE",
"1262 506 CURVE",
"1274 483 OFFCURVE",
"1292 473 OFFCURVE",
"1319 473 CURVE SMOOTH"
);
},
{
closed = 1;
nodes = (
"801 694 OFFCURVE",
"772 705 OFFCURVE",
"754 702 CURVE",
"758 662 OFFCURVE",
"774 584 OFFCURVE",
"760 518 CURVE SMOOTH",
"758 514 OFFCURVE",
"756 506 OFFCURVE",
"750 504 CURVE",
"735 553 OFFCURVE",
"735 606 OFFCURVE",
"737 662 CURVE",
"723 676 OFFCURVE",
"698 680 OFFCURVE",
"686 682 CURVE",
"682 672 OFFCURVE",
"678 651 OFFCURVE",
"678 627 CURVE SMOOTH",
"678 598 OFFCURVE",
"680 569 OFFCURVE",
"686 545 CURVE",
"680 526 OFFCURVE",
"662 498 OFFCURVE",
"633 487 CURVE",
"567 537 OFFCURVE",
"592 748 OFFCURVE",
"627 782 CURVE",
"635 770 OFFCURVE",
"647 727 OFFCURVE",
"643 698 CURVE",
"641 696 OFFCURVE",
"641 690 OFFCURVE",
"647 696 CURVE SMOOTH",
"668 713 OFFCURVE",
"682 735 OFFCURVE",
"682 760 CURVE SMOOTH",
"682 825 OFFCURVE",
"633 838 OFFCURVE",
"600 844 CURVE",
"543 795 OFFCURVE",
"522 707 OFFCURVE",
"524 623 CURVE SMOOTH",
"526 547 OFFCURVE",
"555 471 OFFCURVE",
"637 471 CURVE SMOOTH",
"672 471 OFFCURVE",
"688 494 OFFCURVE",
"696 516 CURVE",
"707 492 OFFCURVE",
"725 477 OFFCURVE",
"752 477 CURVE SMOOTH",
"756 477 OFFCURVE",
"764 483 OFFCURVE",
"766 487 CURVE",
"758 418 OFFCURVE",
"756 371 OFFCURVE",
"713 342 CURVE",
"707 365 OFFCURVE",
"711 389 OFFCURVE",
"715 410 CURVE",
"700 424 OFFCURVE",
"680 430 OFFCURVE",
"662 430 CURVE",
"657 416 OFFCURVE",
"653 399 OFFCURVE",
"653 383 CURVE SMOOTH",
"653 344 OFFCURVE",
"664 324 OFFCURVE",
"702 324 CURVE SMOOTH",
"805 324 OFFCURVE",
"836 510 OFFCURVE",
"815 678 CURVE"
);
},
{
closed = 1;
nodes = (
"823 686 LINE",
"846 631 OFFCURVE",
"848 539 OFFCURVE",
"852 475 CURVE",
"877 471 OFFCURVE",
"891 487 OFFCURVE",
"895 508 CURVE",
"901 522 OFFCURVE",
"901 555 OFFCURVE",
"901 571 CURVE",
"907 592 OFFCURVE",
"920 606 OFFCURVE",
"928 621 CURVE",
"930 592 OFFCURVE",
"948 580 OFFCURVE",
"977 588 CURVE",
"973 612 OFFCURVE",
"975 647 OFFCURVE",
"981 674 CURVE",
"971 686 OFFCURVE",
"950 694 OFFCURVE",
"928 694 CURVE",
"926 686 OFFCURVE",
"920 670 OFFCURVE",
"920 662 CURVE",
"915 645 OFFCURVE",
"909 631 OFFCURVE",
"895 608 CURVE",
"893 637 OFFCURVE",
"889 657 OFFCURVE",
"879 672 CURVE",
"872 680 LINE",
"858 682 LINE",
"844 686 LINE"
);
},
{
closed = 1;
nodes = (
"1137 541 OFFCURVE",
"1149 623 OFFCURVE",
"1165 641 CURVE",
"1163 623 OFFCURVE",
"1163 573 OFFCURVE",
"1174 535 CURVE",
"1171 520 OFFCURVE",
"1157 506 OFFCURVE",
"1149 498 CURVE"
);
},
{
closed = 1;
nodes = (
"1307 662 OFFCURVE",
"1317 723 OFFCURVE",
"1327 766 CURVE",
"1335 725 OFFCURVE",
"1327 641 OFFCURVE",
"1305 606 CURVE"
);
},
{
closed = 1;
nodes = (
"1057 637 OFFCURVE",
"1063 625 OFFCURVE",
"1063 608 CURVE SMOOTH",
"1063 582 OFFCURVE",
"1053 553 OFFCURVE",
"1038 549 CURVE",
"1038 584 OFFCURVE",
"1042 614 OFFCURVE",
"1051 643 CURVE"
);
},
{
closed = 1;
nodes = (
"911 201 LINE",
"909 193 OFFCURVE",
"893 162 OFFCURVE",
"872 162 CURVE",
"885 152 OFFCURVE",
"895 141 OFFCURVE",
"895 131 CURVE SMOOTH",
"895 117 OFFCURVE",
"805 100 OFFCURVE",
"717 53 CURVE",
"758 41 OFFCURVE",
"778 39 OFFCURVE",
"805 10 CURVE",
"803 -2 OFFCURVE",
"799 2 OFFCURVE",
"793 -2 CURVE",
"745 20 OFFCURVE",
"733 25 OFFCURVE",
"688 27 CURVE SMOOTH",
"637 29 OFFCURVE",
"594 -2 OFFCURVE",
"557 -39 CURVE",
"551 -37 OFFCURVE",
"543 -35 OFFCURVE",
"539 -27 CURVE",
"559 6 OFFCURVE",
"588 23 OFFCURVE",
"614 35 CURVE",
"563 39 OFFCURVE",
"532 27 OFFCURVE",
"496 8 CURVE",
"489 12 OFFCURVE",
"487 12 OFFCURVE",
"487 23 CURVE",
"549 68 OFFCURVE",
"614 59 OFFCURVE",
"657 59 CURVE",
"719 90 OFFCURVE",
"791 117 OFFCURVE",
"852 137 CURVE",
"827 162 LINE",
"799 162 OFFCURVE",
"791 199 OFFCURVE",
"791 211 CURVE",
"518 250 OFFCURVE",
"373 389 OFFCURVE",
"356 637 CURVE SMOOTH",
"346 793 OFFCURVE",
"338 903 OFFCURVE",
"248 956 CURVE",
"74 989 LINE",
"74 989 OFFCURVE",
"61 989 OFFCURVE",
"68 999 CURVE",
"195 1059 LINE",
"195 1159 OFFCURVE",
"283 1268 OFFCURVE",
"416 1268 CURVE SMOOTH",
"532 1268 OFFCURVE",
"612 1210 OFFCURVE",
"694 1067 CURVE",
"754 981 OFFCURVE",
"1161 965 OFFCURVE",
"1626 872 CURVE",
"1712 877 OFFCURVE",
"2281 938 OFFCURVE",
"2296 938 CURVE",
"2316 942 OFFCURVE",
"2327 909 OFFCURVE",
"2308 893 CURVE SMOOTH",
"2183 778 OFFCURVE",
"1868 795 OFFCURVE",
"1782 707 CURVE SMOOTH",
"1655 575 OFFCURVE",
"1473 334 OFFCURVE",
"1200 240 CURVE",
"1202 223 OFFCURVE",
"1204 193 OFFCURVE",
"1186 174 CURVE",
"1202 162 OFFCURVE",
"1212 158 OFFCURVE",
"1212 145 CURVE SMOOTH",
"1212 123 OFFCURVE",
"1128 88 OFFCURVE",
"1059 29 CURVE",
"1102 27 OFFCURVE",
"1143 25 OFFCURVE",
"1176 4 CURVE",
"1176 -2 OFFCURVE",
"1176 -4 OFFCURVE",
"1169 -12 CURVE",
"1118 0 OFFCURVE",
"1073 4 OFFCURVE",
"1026 -2 CURVE",
"977 -12 OFFCURVE",
"944 -55 OFFCURVE",
"918 -98 CURVE",
"907 -100 OFFCURVE",
"903 -98 OFFCURVE",
"901 -90 CURVE",
"911 -53 OFFCURVE",
"930 -27 OFFCURVE",
"956 -10 CURVE",
"903 -18 OFFCURVE",
"889 -29 OFFCURVE",
"856 -57 CURVE",
"850 -53 OFFCURVE",
"846 -53 OFFCURVE",
"846 -43 CURVE",
"893 20 OFFCURVE",
"950 14 OFFCURVE",
"993 25 CURVE",
"1051 70 OFFCURVE",
"1112 106 OFFCURVE",
"1165 141 CURVE",
"1161 147 OFFCURVE",
"1149 154 OFFCURVE",
"1135 162 CURVE",
"1102 158 OFFCURVE",
"1083 193 OFFCURVE",
"1079 209 CURVE",
"1042 203 OFFCURVE",
"1006 201 OFFCURVE",
"967 201 CURVE SMOOTH"
);
}
);
};
layerId = UUID0;
paths = (
{
closed = 1;
nodes = (
"1356 324 LINE",
"1366 326 OFFCURVE",
"1413 383 OFFCURVE",
"1411 393 CURVE",
"1378 424 OFFCURVE",
"1307 481 OFFCURVE",
"1227 553 CURVE",
"1292 641 OFFCURVE",
"1350 713 OFFCURVE",
"1376 752 CURVE",
"1360 766 OFFCURVE",
"1327 793 OFFCURVE",
"1300 805 CURVE",
"1149 614 LINE",
"1067 680 OFFCURVE",
"989 737 OFFCURVE",
"950 764 CURVE",
"936 748 OFFCURVE",
"909 717 OFFCURVE",
"897 684 CURVE",
"1083 537 LINE",
"936 346 LINE",
"938 334 OFFCURVE",
"995 289 OFFCURVE",
"1006 291 CURVE",
"1165 471 LINE"
);
},
{
closed = 1;
nodes = (
"1804 965 LINE",
"1802 967 LINE",
"1800 764 OFFCURVE",
"1739 442 OFFCURVE",
"1309 150 CURVE",
"1309 135 OFFCURVE",
"1303 100 OFFCURVE",
"1272 100 CURVE",
"1247 76 LINE",
"1311 53 OFFCURVE",
"1378 29 OFFCURVE",
"1442 -2 CURVE",
"1485 -2 OFFCURVE",
"1548 8 OFFCURVE",
"1612 -39 CURVE",
"1612 -49 OFFCURVE",
"1610 -47 OFFCURVE",
"1604 -53 CURVE",
"1565 -35 OFFCURVE",
"1536 -20 OFFCURVE",
"1485 -27 CURVE",
"1511 -41 OFFCURVE",
"1538 -55 OFFCURVE",
"1561 -88 CURVE",
"1559 -94 OFFCURVE",
"1552 -98 OFFCURVE",
"1542 -100 CURVE",
"1503 -61 OFFCURVE",
"1462 -33 OFFCURVE",
"1411 -35 CURVE SMOOTH",
"1366 -35 OFFCURVE",
"1354 -43 OFFCURVE",
"1307 -63 CURVE",
"1300 -57 OFFCURVE",
"1296 -66 OFFCURVE",
"1294 -51 CURVE",
"1321 -20 OFFCURVE",
"1341 -23 OFFCURVE",
"1382 -8 CURVE",
"1294 41 OFFCURVE",
"1204 53 OFFCURVE",
"1204 70 CURVE SMOOTH",
"1204 78 OFFCURVE",
"1212 88 OFFCURVE",
"1227 100 CURVE",
"1204 100 OFFCURVE",
"1190 131 OFFCURVE",
"1188 139 CURVE",
"1133 139 LINE SMOOTH",
"1094 139 OFFCURVE",
"1059 141 OFFCURVE",
"1020 147 CURVE",
"1014 131 OFFCURVE",
"997 94 OFFCURVE",
"965 100 CURVE",
"950 92 OFFCURVE",
"940 86 OFFCURVE",
"934 80 CURVE",
"989 45 OFFCURVE",
"1049 10 OFFCURVE",
"1106 -37 CURVE",
"1151 -47 OFFCURVE",
"1206 -41 OFFCURVE",
"1253 -104 CURVE",
"1253 -115 OFFCURVE",
"1249 -113 OFFCURVE",
"1243 -119 CURVE",
"1210 -88 OFFCURVE",
"1198 -80 OFFCURVE",
"1143 -72 CURVE",
"1169 -88 OFFCURVE",
"1188 -115 OFFCURVE",
"1198 -152 CURVE",
"1196 -158 OFFCURVE",
"1192 -162 OFFCURVE",
"1182 -160 CURVE",
"1155 -117 OFFCURVE",
"1122 -74 OFFCURVE",
"1073 -63 CURVE",
"1030 -57 OFFCURVE",
"981 -61 OFFCURVE",
"930 -74 CURVE",
"926 -68 OFFCURVE",
"924 -63 OFFCURVE",
"924 -57 CURVE",
"956 -35 OFFCURVE",
"997 -35 OFFCURVE",
"1040 -33 CURVE",
"971 25 OFFCURVE",
"887 61 OFFCURVE",
"887 84 CURVE SMOOTH",
"887 98 OFFCURVE",
"897 98 OFFCURVE",
"913 113 CURVE",
"895 131 OFFCURVE",
"897 162 OFFCURVE",
"899 178 CURVE",
"659 309 OFFCURVE",
"537 520 OFFCURVE",
"461 645 CURVE",
"315 694 OFFCURVE",
"168 739 OFFCURVE",
"80 811 CURVE SMOOTH",
"61 827 OFFCURVE",
"66 856 OFFCURVE",
"92 856 CURVE",
"616 811 LINE",
"1083 905 OFFCURVE",
"1247 918 OFFCURVE",
"1307 1006 CURVE",
"1389 1151 OFFCURVE",
"1468 1206 OFFCURVE",
"1585 1206 CURVE SMOOTH",
"1622 1206 OFFCURVE",
"1655 1200 OFFCURVE",
"1681 1192 CURVE",
"1681 1194 LINE",
"1833 1247 LINE",
"1835 1247 OFFCURVE",
"1839 1247 OFFCURVE",
"1839 1243 CURVE",
"1839 1241 LINE",
"1788 1100 LINE",
"1931 1106 LINE SMOOTH",
"1935 1106 OFFCURVE",
"1937 1104 OFFCURVE",
"1935 1100 CURVE SMOOTH"
);
}
);
width = 1976;
}
);
},
{
glyphname = Euro;
layers = (
{
hints = (
{
place = "{895, 51}";
},
{
place = "{74, 202}";
},
{
horizontal = 1;
place = "{-16, 79}";
},
{
horizontal = 1;
place = "{602, 80}";
},
{
horizontal = 1;
place = "{805, 80}";
},
{
horizontal = 1;
place = "{1370, 80}";
}
);
layerId = UUID0;
paths = (
{
closed = 1;
nodes = (
"-61 770 LINE",
"78 770 LINE",
"78 721 LINE SMOOTH",
"78 696 OFFCURVE",
"78 674 OFFCURVE",
"80 651 CURVE",
"39 651 OFFCURVE",
"0 653 OFFCURVE",
"-37 655 CURVE",
"-61 573 LINE",
"84 573 LINE",
"131 98 OFFCURVE",
"403 -41 OFFCURVE",
"608 -41 CURVE SMOOTH",
"729 -41 OFFCURVE",
"915 41 OFFCURVE",
"1004 233 CURVE",
"1004 250 OFFCURVE",
"975 258 OFFCURVE",
"961 258 CURVE",
"891 135 OFFCURVE",
"791 82 OFFCURVE",
"670 82 CURVE SMOOTH",
"430 82 OFFCURVE",
"322 293 OFFCURVE",
"291 575 CURVE",
"348 575 LINE SMOOTH",
"479 575 OFFCURVE",
"559 575 OFFCURVE",
"690 571 CURVE",
"715 655 LINE",
"584 649 OFFCURVE",
"504 649 OFFCURVE",
"373 649 CURVE SMOOTH",
"287 649 LINE",
"285 672 OFFCURVE",
"285 696 OFFCURVE",
"285 721 CURVE SMOOTH",
"285 772 LINE",
"379 772 LINE SMOOTH",
"510 772 OFFCURVE",
"623 772 OFFCURVE",
"754 768 CURVE",
"778 852 LINE",
"647 846 OFFCURVE",
"535 846 OFFCURVE",
"403 846 CURVE SMOOTH",
"289 846 LINE",
"313 1126 OFFCURVE",
"424 1432 OFFCURVE",
"645 1432 CURVE SMOOTH",
"834 1432 OFFCURVE",
"874 1319 OFFCURVE",
"942 1079 CURVE",
"952 1079 OFFCURVE",
"977 1081 OFFCURVE",
"993 1090 CURVE",
"983 1153 OFFCURVE",
"979 1214 OFFCURVE",
"979 1268 CURVE SMOOTH",
"979 1350 OFFCURVE",
"987 1413 OFFCURVE",
"995 1450 CURVE",
"879 1473 OFFCURVE",
"817 1503 OFFCURVE",
"645 1503 CURVE SMOOTH",
"446 1503 OFFCURVE",
"129 1348 OFFCURVE",
"84 848 CURVE",
"41 848 OFFCURVE",
"0 850 OFFCURVE",
"-37 852 CURVE"
);
}
);
width = 1065;
}
);
unicode = 20AC;
},
{
glyphname = cent;
layers = (
{
hints = (
{
place = "{623, 73}";
},
{
place = "{244, 192}";
},
{
place = "{799, 176}";
},
{
horizontal = 1;
place = "{909, -71}";
},
{
horizontal = 1;
place = "{1057, -45}";
},
{
horizontal = 1;
place = "{-18, 108}";
},
{
horizontal = 1;
place = "{-109, -49}";
}
);
layerId = UUID0;
paths = (
{
closed = 1;
nodes = (
"866 199 OFFCURVE",
"788 92 OFFCURVE",
"614 92 CURVE",
"614 844 LINE",
"717 842 OFFCURVE",
"766 793 OFFCURVE",
"772 772 CURVE",
"733 762 OFFCURVE",
"707 733 OFFCURVE",
"707 674 CURVE SMOOTH",
"707 621 OFFCURVE",
"739 571 OFFCURVE",
"815 571 CURVE SMOOTH",
"883 571 OFFCURVE",
"936 623 OFFCURVE",
"936 694 CURVE SMOOTH",
"936 817 OFFCURVE",
"801 907 OFFCURVE",
"614 909 CURVE",
"614 1051 LINE",
"537 1051 LINE",
"537 903 LINE",
"313 870 OFFCURVE",
"154 690 OFFCURVE",
"154 424 CURVE SMOOTH",
"154 117 OFFCURVE",
"348 -14 OFFCURVE",
"537 -27 CURVE",
"537 -164 LINE",
"614 -164 LINE",
"614 -27 LINE",
"752 -12 OFFCURVE",
"889 68 OFFCURVE",
"952 238 CURVE",
"944 248 OFFCURVE",
"932 256 OFFCURVE",
"913 260 CURVE"
);
},
{
closed = 1;
nodes = (
"537 106 LINE",
"408 147 OFFCURVE",
"356 276 OFFCURVE",
"356 424 CURVE SMOOTH",
"356 707 OFFCURVE",
"446 805 OFFCURVE",
"537 834 CURVE"
);
}
);
width = 1065;
}
);
unicode = 00A2;
},
{
glyphname = currency;
layers = (
{
hints = (
{
place = "{57, 99}";
},
{
place = "{952, 99}";
},
{
horizontal = 1;
place = "{176, 98}";
},
{
horizontal = 1;
place = "{1071, 98}";
}
);
layerId = UUID0;
paths = (
{
closed = 1;
nodes = (
"932 1178 LINE",
"786 1032 LINE",
"707 1096 OFFCURVE",
"606 1116 OFFCURVE",
"532 1116 CURVE SMOOTH",
"438 1116 OFFCURVE",
"350 1085 OFFCURVE",
"274 1030 CURVE",
"131 1178 LINE",
"49 1098 LINE",
"197 950 LINE",
"133 868 OFFCURVE",
"109 770 OFFCURVE",
"109 696 CURVE SMOOTH",
"109 606 OFFCURVE",
"145 514 OFFCURVE",
"197 440 CURVE",
"49 293 LINE",
"131 213 LINE",
"274 360 LINE",
"348 309 OFFCURVE",
"440 272 OFFCURVE",
"532 272 CURVE SMOOTH",
"606 272 OFFCURVE",
"707 295 OFFCURVE",
"786 360 CURVE",
"932 213 LINE",
"1016 293 LINE",
"866 440 LINE",
"936 526 OFFCURVE",
"954 623 OFFCURVE",
"954 696 CURVE SMOOTH",
"954 772 OFFCURVE",
"940 868 OFFCURVE",
"868 952 CURVE",
"1016 1098 LINE"
);
},
{
closed = 1;
nodes = (
"223 868 OFFCURVE",
"360 1006 OFFCURVE",
"532 1006 CURVE SMOOTH",
"705 1006 OFFCURVE",
"842 868 OFFCURVE",
"842 696 CURVE SMOOTH",
"842 524 OFFCURVE",
"705 385 OFFCURVE",
"532 385 CURVE SMOOTH",
"360 385 OFFCURVE",
"223 524 OFFCURVE",
"223 696 CURVE SMOOTH"
);
}
);
width = 1065;
}
);
unicode = 00A4;
},
{
glyphname = dollar;
layers = (
{
hints = (
{
place = "{500, 75}";
},
{
place = "{137, 139}";
},
{
place = "{852, 147}";
},
{
place = "{96, 70}";
},
{
place = "{856, 68}";
},
{
horizontal = 1;
place = "{1448, -78}";
},
{
horizontal = 1;
place = "{1589, -20}";
target = down;
type = TopGhost;
},
{
horizontal = 1;
place = "{-16, 82}";
},
{
horizontal = 1;
place = "{-134, 21}";
target = up;
type = BottomGhost;
}
);
layerId = UUID0;
paths = (
{
closed = 1;
nodes = (
"895 1069 OFFCURVE",
"901 1067 OFFCURVE",
"909 1067 CURVE SMOOTH",
"918 1067 OFFCURVE",
"922 1069 OFFCURVE",
"928 1071 CURVE",
"915 1126 OFFCURVE",
"909 1198 OFFCURVE",
"909 1272 CURVE SMOOTH",
"909 1319 OFFCURVE",
"911 1366 OFFCURVE",
"918 1411 CURVE",
"844 1444 OFFCURVE",
"723 1495 OFFCURVE",
"580 1501 CURVE",
"580 1630 LINE",
"498 1630 LINE",
"498 1501 LINE",
"319 1487 OFFCURVE",
"111 1389 OFFCURVE",
"111 1092 CURVE SMOOTH",
"111 846 OFFCURVE",
"268 741 OFFCURVE",
"498 674 CURVE",
"498 33 LINE",
"340 37 OFFCURVE",
"164 127 OFFCURVE",
"113 477 CURVE",
"104 481 OFFCURVE",
"98 483 OFFCURVE",
"90 483 CURVE SMOOTH",
"84 483 OFFCURVE",
"78 481 OFFCURVE",
"70 477 CURVE",
"84 379 OFFCURVE",
"90 303 OFFCURVE",
"90 221 CURVE SMOOTH",
"90 176 OFFCURVE",
"88 125 OFFCURVE",
"86 74 CURVE",
"180 25 OFFCURVE",
"332 -37 OFFCURVE",
"498 -41 CURVE",
"498 -174 LINE",
"580 -174 LINE",
"580 -35 LINE",
"776 -8 OFFCURVE",
"999 135 OFFCURVE",
"999 420 CURVE SMOOTH",
"999 700 OFFCURVE",
"778 799 OFFCURVE",
"580 854 CURVE",
"580 1430 LINE",
"731 1413 OFFCURVE",
"842 1298 OFFCURVE",
"887 1071 CURVE"
);
},
{
closed = 1;
nodes = (
"803 180 OFFCURVE",
"725 66 OFFCURVE",
"580 39 CURVE",
"580 649 LINE",
"758 588 OFFCURVE",
"803 492 OFFCURVE",
"803 330 CURVE SMOOTH"
);
},
{
closed = 1;
nodes = (
"279 1319 OFFCURVE",
"356 1411 OFFCURVE",
"498 1427 CURVE",
"498 877 LINE",
"285 946 OFFCURVE",
"279 1049 OFFCURVE",
"279 1190 CURVE SMOOTH"
);
}
);
width = 1065;
}
);
unicode = 0024;
},
{
glyphname = sterling;
layers = (
{
hints = (
{
place = "{-133, 90}";
},
{
place = "{131, 164}";
},
{
place = "{248, 170}";
},
{
place = "{592, 227}";
},
{
place = "{733, 228}";
},
{
horizontal = 1;
place = "{819, 90}";
},
{
horizontal = 1;
place = "{289, 96}";
},
{
horizontal = 1;
place = "{-18, 104}";
},
{
horizontal = 1;
place = "{1548, 90}";
}
);
layerId = UUID0;
paths = (
{
closed = 1;
nodes = (
"348 838 LINE",
"348 1145 OFFCURVE",
"373 1432 OFFCURVE",
"647 1432 CURVE SMOOTH",
"848 1432 OFFCURVE",
"887 1305 OFFCURVE",
"956 1094 CURVE",
"967 1096 OFFCURVE",
"997 1094 OFFCURVE",
"999 1106 CURVE",
"979 1194 OFFCURVE",
"973 1266 OFFCURVE",
"973 1323 CURVE SMOOTH",
"973 1376 OFFCURVE",
"979 1419 OFFCURVE",
"985 1448 CURVE",
"858 1468 OFFCURVE",
"831 1503 OFFCURVE",
"647 1503 CURVE SMOOTH",
"432 1503 OFFCURVE",
"152 1434 OFFCURVE",
"152 838 CURVE SMOOTH",
"152 774 LINE",
"84 774 OFFCURVE",
"16 776 OFFCURVE",
"-51 780 CURVE",
"-51 696 LINE",
"16 698 OFFCURVE",
"84 700 OFFCURVE",
"152 700 CURVE",
"152 514 OFFCURVE",
"147 293 OFFCURVE",
"141 137 CURVE SMOOTH",
"139 63 OFFCURVE",
"14 49 OFFCURVE",
"-59 41 CURVE",
"-61 31 OFFCURVE",
"-63 23 OFFCURVE",
"-63 14 CURVE SMOOTH",
"-63 8 OFFCURVE",
"-61 0 OFFCURVE",
"-59 -6 CURVE",
"53 -2 OFFCURVE",
"238 0 OFFCURVE",
"356 0 CURVE SMOOTH",
"963 0 LINE",
"979 150 OFFCURVE",
"1012 258 OFFCURVE",
"1065 373 CURVE",
"1059 385 OFFCURVE",
"1047 383 OFFCURVE",
"1032 389 CURVE",
"954 221 OFFCURVE",
"864 88 OFFCURVE",
"567 61 CURVE",
"356 61 LINE",
"350 324 OFFCURVE",
"348 510 OFFCURVE",
"348 694 CURVE SMOOTH",
"348 700 LINE",
"477 700 OFFCURVE",
"584 700 OFFCURVE",
"715 696 CURVE",
"715 780 LINE",
"584 774 OFFCURVE",
"477 774 OFFCURVE",
"348 774 CURVE"
);
}
);
width = 1065;
}
);
unicode = 00A3;
},
{
glyphname = yen;
layers = (
{
hints = (
{
place = "{389, 176}";
},
{
horizontal = 1;
place = "{1434, -70}";
},
{
horizontal = 1;
place = "{764, 80}";
},
{
horizontal = 1;
place = "{541, 80}";
},
{
horizontal = 1;
place = "{0, 70}";
}
);
layerId = UUID0;
paths = (
{
closed = 1;
nodes = (
"354 1307 LINE",
"344 1333 OFFCURVE",
"344 1337 OFFCURVE",
"344 1350 CURVE SMOOTH",
"344 1401 OFFCURVE",
"397 1417 OFFCURVE",
"535 1423 CURVE",
"537 1430 OFFCURVE",
"539 1440 OFFCURVE",
"539 1448 CURVE SMOOTH",
"539 1456 OFFCURVE",
"537 1462 OFFCURVE",
"535 1470 CURVE",
"428 1464 OFFCURVE",
"350 1462 OFFCURVE",
"242 1462 CURVE SMOOTH",
"129 1462 OFFCURVE",
"47 1466 OFFCURVE",
"-59 1470 CURVE",
"-61 1464 OFFCURVE",
"-63 1456 OFFCURVE",
"-63 1448 CURVE SMOOTH",
"-63 1440 OFFCURVE",
"-61 1432 OFFCURVE",
"-59 1423 CURVE",
"20 1415 OFFCURVE",
"72 1399 OFFCURVE",
"125 1327 CURVE",
"399 717 LINE",
"311 717 OFFCURVE",
"223 719 OFFCURVE",
"137 723 CURVE",
"137 639 LINE",
"236 641 OFFCURVE",
"334 643 OFFCURVE",
"432 643 CURVE",
"432 520 LINE",
"334 520 OFFCURVE",
"236 522 OFFCURVE",
"137 526 CURVE",
"137 442 LINE",
"236 444 OFFCURVE",
"332 446 OFFCURVE",
"430 446 CURVE",
"428 344 OFFCURVE",
"426 244 OFFCURVE",
"422 137 CURVE",
"420 63 OFFCURVE",
"285 49 OFFCURVE",
"203 41 CURVE",
"199 31 OFFCURVE",
"199 23 OFFCURVE",
"199 14 CURVE SMOOTH",
"199 8 OFFCURVE",
"201 0 OFFCURVE",
"203 -6 CURVE",
"309 -2 OFFCURVE",
"416 0 OFFCURVE",
"528 0 CURVE SMOOTH",
"637 0 OFFCURVE",
"750 -2 OFFCURVE",
"856 -6 CURVE",
"858 0 OFFCURVE",
"860 8 OFFCURVE",
"860 14 CURVE SMOOTH",
"860 23 OFFCURVE",
"860 29 OFFCURVE",
"856 41 CURVE",
"774 49 OFFCURVE",
"639 63 OFFCURVE",
"637 137 CURVE",
"633 244 OFFCURVE",
"631 344 OFFCURVE",
"629 446 CURVE",
"727 446 OFFCURVE",
"825 444 OFFCURVE",
"924 442 CURVE",
"924 526 LINE",
"825 522 OFFCURVE",
"727 520 OFFCURVE",
"629 520 CURVE",
"629 643 LINE",
"727 643 OFFCURVE",
"825 641 OFFCURVE",
"924 639 CURVE",
"924 723 LINE",
"838 719 OFFCURVE",
"752 717 OFFCURVE",
"666 717 CURVE",
"958 1313 LINE SMOOTH",
"989 1374 OFFCURVE",
"1044 1415 OFFCURVE",
"1124 1423 CURVE",
"1128 1434 OFFCURVE",
"1128 1442 OFFCURVE",
"1128 1450 CURVE SMOOTH",
"1128 1456 OFFCURVE",
"1126 1464 OFFCURVE",
"1124 1470 CURVE",
"1053 1466 OFFCURVE",
"989 1464 OFFCURVE",
"940 1464 CURVE SMOOTH",
"887 1464 OFFCURVE",
"813 1466 OFFCURVE",
"731 1470 CURVE",
"729 1464 OFFCURVE",
"727 1456 OFFCURVE",
"727 1450 CURVE SMOOTH",
"727 1442 OFFCURVE",
"729 1434 OFFCURVE",
"731 1423 CURVE",
"817 1413 OFFCURVE",
"870 1399 OFFCURVE",
"870 1354 CURVE SMOOTH",
"870 1341 OFFCURVE",
"864 1323 OFFCURVE",
"858 1313 CURVE SMOOTH",
"602 754 LINE",
"590 754 LINE"
);
}
);
width = 1065;
}
);
unicode = 00A5;
},
{
glyphname = plus;
layers = (
{
hints = (
{
place = "{674, 117}";
},
{
horizontal = 1;
place = "{674, 114}";
}
);
layerId = UUID0;
paths = (
{
closed = 1;
nodes = (
"791 143 LINE",
"791 653 LINE",
"1300 653 LINE",
"1300 768 LINE",
"791 768 LINE",
"791 1280 LINE",
"674 1280 LINE",
"674 768 LINE",
"164 768 LINE",
"164 653 LINE",
"674 653 LINE",
"674 143 LINE"
);
}
);
width = 1464;
}
);
unicode = 002B;
},
{
glyphname = minus;
layers = (
{
hints = (
{
place = "{674, 117}";
},
{
horizontal = 1;
place = "{674, 114}";
}
);
layerId = UUID0;
paths = (
{
closed = 1;
nodes = (
"1300 653 LINE",
"1300 768 LINE",
"164 768 LINE",
"164 653 LINE"
);
}
);
width = 1464;
}
);
unicode = 2212;
},
{
glyphname = multiply;
layers = (
{
hints = (
{
place = "{674, 117}";
},
{
horizontal = 1;
place = "{674, 114}";
}
);
layerId = UUID0;
paths = (
{
closed = 1;
nodes = (
"371 268 LINE",
"731 629 LINE",
"1094 268 LINE",
"1174 350 LINE",
"813 711 LINE",
"1176 1073 LINE",
"1094 1155 LINE",
"731 793 LINE",
"371 1153 LINE",
"289 1073 LINE",
"649 711 LINE",
"289 350 LINE"
);
}
);
width = 1464;
}
);
unicode = 00D7;
},
{
glyphname = divide;
layers = (
{
hints = (
{
place = "{606, 268}";
},
{
horizontal = 1;
place = "{307, 268}";
},
{
horizontal = 1;
place = "{715, 98}";
},
{
horizontal = 1;
place = "{950, 271}";
}
);
layerId = UUID0;
paths = (
{
closed = 1;
nodes = (
"606 969 OFFCURVE",
"666 907 OFFCURVE",
"739 907 CURVE SMOOTH",
"815 907 OFFCURVE",
"874 969 OFFCURVE",
"874 1042 CURVE SMOOTH",
"874 1116 OFFCURVE",
"815 1178 OFFCURVE",
"739 1178 CURVE SMOOTH",
"666 1178 OFFCURVE",
"606 1116 OFFCURVE",
"606 1042 CURVE SMOOTH"
);
},
{
closed = 1;
nodes = (
"606 307 OFFCURVE",
"666 246 OFFCURVE",
"739 246 CURVE SMOOTH",
"815 246 OFFCURVE",
"874 307 OFFCURVE",
"874 381 CURVE SMOOTH",
"874 455 OFFCURVE",
"815 514 OFFCURVE",
"739 514 CURVE SMOOTH",
"666 514 OFFCURVE",
"606 455 OFFCURVE",
"606 381 CURVE SMOOTH"
);
},
{
closed = 1;
nodes = (
"1300 653 LINE",
"1300 768 LINE",
"164 768 LINE",
"164 653 LINE"
);
}
);
width = 1464;
}
);
unicode = 00F7;
},
{
glyphname = equal;
layers = (
{
hints = (
{
horizontal = 1;
place = "{500, 98}";
},
{
horizontal = 1;
place = "{870, 97}";
}
);
layerId = UUID0;
paths = (
{
closed = 1;
nodes = (
"1300 469 LINE",
"1300 584 LINE",
"164 584 LINE",
"164 469 LINE"
);
},
{
closed = 1;
nodes = (
"1300 838 LINE",
"1300 952 LINE",
"164 952 LINE",
"164 838 LINE"
);
}
);
width = 1464;
}
);
unicode = 003D;
},
{
glyphname = greater;
layers = (
{
hints = (
{
place = "{164, 1358}";
},
{
horizontal = 1;
place = "{1319, -1129}";
}
);
layerId = UUID0;
paths = (
{
closed = 1;
nodes = (
"164 307 LINE",
"213 199 LINE",
"1399 713 LINE",
"213 1227 LINE",
"164 1118 LINE",
"1110 715 LINE"
);
}
);
width = 1563;
}
);
unicode = 003E;
},
{
glyphname = less;
layers = (
{
hints = (
{
place = "{164, 1358}";
},
{
horizontal = 1;
place = "{1319, -1129}";
}
);
layerId = UUID0;
paths = (
{
closed = 1;
nodes = (
"453 715 LINE",
"1399 1118 LINE",
"1350 1227 LINE",
"164 713 LINE",
"1350 199 LINE",
"1399 307 LINE"
);
}
);
width = 1563;
}
);
unicode = 003C;
},
{
glyphname = plusminus;
layers = (
{
hints = (
{
place = "{692, 96}";
},
{
horizontal = 1;
place = "{121, 98}";
},
{
horizontal = 1;
place = "{705, 96}";
}
);
layerId = UUID0;
paths = (
{
closed = 1;
nodes = (
"791 328 LINE",
"791 735 LINE",
"1300 735 LINE",
"1300 850 LINE",
"791 850 LINE",
"791 1260 LINE",
"674 1260 LINE",
"674 850 LINE",
"164 850 LINE",
"164 735 LINE",
"674 735 LINE",
"674 328 LINE"
);
},
{
closed = 1;
nodes = (
"1300 121 LINE",
"1300 236 LINE",
"164 236 LINE",
"164 121 LINE"
);
}
);
width = 1464;
}
);
unicode = 00B1;
},
{
glyphname = asciitilde;
layers = (
{
hints = (
{
place = "{162, 104}";
},
{
place = "{1409, 107}";
},
{
horizontal = 1;
place = "{586, 334}";
}
);
layerId = UUID0;
paths = (
{
closed = 1;
nodes = (
"244 401 LINE",
"287 489 OFFCURVE",
"336 543 OFFCURVE",
"428 543 CURVE SMOOTH",
"506 543 OFFCURVE",
"582 496 OFFCURVE",
"662 461 CURVE SMOOTH",
"731 428 OFFCURVE",
"799 401 OFFCURVE",
"870 401 CURVE SMOOTH",
"1026 401 OFFCURVE",
"1171 526 OFFCURVE",
"1214 727 CURVE",
"1133 727 LINE",
"1098 600 OFFCURVE",
"1026 567 OFFCURVE",
"954 567 CURVE SMOOTH",
"895 567 OFFCURVE",
"836 594 OFFCURVE",
"799 612 CURVE SMOOTH",
"653 688 OFFCURVE",
"569 702 OFFCURVE",
"512 702 CURVE SMOOTH",
"299 702 OFFCURVE",
"199 494 OFFCURVE",
"164 401 CURVE"
);
}
);
width = 1378;
}
);
unicode = 007E;
},
{
glyphname = logicalnot;
layers = (
{
hints = (
{
place = "{1325, 115}";
},
{
horizontal = 1;
place = "{373, 112}";
},
{
horizontal = 1;
place = "{180, -49}";
}
);
layerId = UUID0;
paths = (
{
closed = 1;
nodes = (
"164 414 LINE",
"1325 414 LINE",
"1325 172 LINE",
"1440 172 LINE",
"1440 526 LINE",
"164 526 LINE"
);
}
);
width = 1604;
}
);
unicode = 00AC;
},
{
glyphname = mu;
layers = (
{
hints = (
{
place = "{217, 170}";
},
{
place = "{764, 168}";
},
{
horizontal = 1;
place = "{-18, 135}";
},
{
horizontal = 1;
place = "{891, -47}";
},
{
horizontal = 1;
place = "{-399, -50}";
}
);
layerId = UUID0;
paths = (
{
closed = 1;
nodes = (
"1171 63 OFFCURVE",
"1174 72 OFFCURVE",
"1174 78 CURVE SMOOTH",
"1174 86 OFFCURVE",
"1171 94 OFFCURVE",
"1169 104 CURVE",
"1083 109 OFFCURVE",
"1018 121 OFFCURVE",
"977 145 CURVE",
"977 303 OFFCURVE",
"973 395 OFFCURVE",
"973 504 CURVE SMOOTH",
"973 578 OFFCURVE",
"977 768 OFFCURVE",
"987 856 CURVE",
"981 870 OFFCURVE",
"981 877 OFFCURVE",
"963 887 CURVE",
"881 883 OFFCURVE",
"842 879 OFFCURVE",
"807 879 CURVE SMOOTH",
"766 879 OFFCURVE",
"729 883 OFFCURVE",
"639 887 CURVE",
"637 879 OFFCURVE",
"635 872 OFFCURVE",
"635 864 CURVE SMOOTH",
"635 856 OFFCURVE",
"637 848 OFFCURVE",
"639 840 CURVE",
"692 831 OFFCURVE",
"786 817 OFFCURVE",
"788 743 CURVE",
"795 567 OFFCURVE",
"797 453 OFFCURVE",
"797 213 CURVE",
"721 145 OFFCURVE",
"645 96 OFFCURVE",
"567 96 CURVE SMOOTH",
"496 96 OFFCURVE",
"401 176 OFFCURVE",
"401 317 CURVE SMOOTH",
"403 813 OFFCURVE",
"410 829 OFFCURVE",
"412 856 CURVE",
"406 870 OFFCURVE",
"401 881 OFFCURVE",
"383 887 CURVE",
"301 883 OFFCURVE",
"262 879 OFFCURVE",
"227 879 CURVE SMOOTH",
"186 879 OFFCURVE",
"150 883 OFFCURVE",
"59 887 CURVE",
"57 879 OFFCURVE",
"55 872 OFFCURVE",
"55 864 CURVE SMOOTH",
"55 856 OFFCURVE",
"57 848 OFFCURVE",
"59 840 CURVE",
"113 831 OFFCURVE",
"209 817 OFFCURVE",
"209 743 CURVE",
"211 743 LINE",
"221 238 LINE",
"217 -113 OFFCURVE",
"145 -244 OFFCURVE",
"145 -410 CURVE SMOOTH",
"145 -522 OFFCURVE",
"209 -565 OFFCURVE",
"264 -565 CURVE SMOOTH",
"309 -565 OFFCURVE",
"381 -535 OFFCURVE",
"381 -401 CURVE SMOOTH",
"381 -262 OFFCURVE",
"309 -150 OFFCURVE",
"301 119 CURVE",
"313 119 LINE",
"352 -2 OFFCURVE",
"424 -25 OFFCURVE",
"518 -25 CURVE SMOOTH",
"647 -25 OFFCURVE",
"717 39 OFFCURVE",
"797 137 CURVE",
"797 2 LINE",
"803 -10 OFFCURVE",
"815 -18 OFFCURVE",
"831 -25 CURVE",
"926 16 OFFCURVE",
"1042 45 OFFCURVE",
"1169 57 CURVE"
);
}
);
width = 1245;
}
);
unicode = 00B5;
},
{
glyphname = percent;
layers = (
{
hints = (
{
place = "{152, 196}";
},
{
place = "{696, 197}";
},
{
place = "{1100, 196}";
},
{
place = "{1645, 196}";
},
{
horizontal = 1;
place = "{-18, 88}";
},
{
horizontal = 1;
place = "{729, 88}";
},
{
horizontal = 1;
place = "{801, 88}";
},
{
horizontal = 1;
place = "{1548, 88}";
},
{
horizontal = 1;
place = "{1638, -47}";
}
);
layerId = UUID0;
paths = (
{
closed = 1;
nodes = (
"551 -61 LINE",
"639 -98 LINE",
"1397 1526 LINE",
"1309 1559 LINE"
);
},
{
closed = 1;
nodes = (
"133 918 OFFCURVE",
"299 752 OFFCURVE",
"506 752 CURVE SMOOTH",
"713 752 OFFCURVE",
"883 918 OFFCURVE",
"883 1124 CURVE SMOOTH",
"883 1333 OFFCURVE",
"713 1501 OFFCURVE",
"506 1501 CURVE SMOOTH",
"299 1501 OFFCURVE",
"133 1333 OFFCURVE",
"133 1124 CURVE SMOOTH"
);
},
{
closed = 1;
nodes = (
"236 1276 OFFCURVE",
"358 1399 OFFCURVE",
"504 1399 CURVE SMOOTH",
"655 1399 OFFCURVE",
"780 1276 OFFCURVE",
"780 1122 CURVE SMOOTH",
"780 975 OFFCURVE",
"655 850 OFFCURVE",
"504 850 CURVE SMOOTH",
"358 850 OFFCURVE",
"236 975 OFFCURVE",
"236 1122 CURVE SMOOTH"
);
},
{
closed = 1;
nodes = (
"1083 137 OFFCURVE",
"1249 -29 OFFCURVE",
"1456 -29 CURVE SMOOTH",
"1663 -29 OFFCURVE",
"1833 137 OFFCURVE",
"1833 344 CURVE SMOOTH",
"1833 553 OFFCURVE",
"1663 721 OFFCURVE",
"1456 721 CURVE SMOOTH",
"1249 721 OFFCURVE",
"1083 553 OFFCURVE",
"1083 344 CURVE SMOOTH"
);
},
{
closed = 1;
nodes = (
"1186 496 OFFCURVE",
"1309 618 OFFCURVE",
"1454 618 CURVE SMOOTH",
"1606 618 OFFCURVE",
"1731 496 OFFCURVE",
"1731 342 CURVE SMOOTH",
"1731 195 OFFCURVE",
"1606 70 OFFCURVE",
"1454 70 CURVE SMOOTH",
"1309 70 OFFCURVE",
"1186 195 OFFCURVE",
"1186 342 CURVE SMOOTH"
);
}
);
width = 1966;
}
);
unicode = 0025;
},
{
glyphname = at;
layers = (
{
hints = (
{
place = "{135, 125}";
},
{
place = "{592, 186}";
},
{
place = "{1782, 121}";
},
{
horizontal = 1;
place = "{-244, 109}";
},
{
horizontal = 1;
place = "{180, 99}";
},
{
horizontal = 1;
place = "{229, 70}";
},
{
horizontal = 1;
place = "{1063, 61}";
},
{
horizontal = 1;
place = "{1477, 96}";
}
);
layerId = UUID0;
paths = (
{
closed = 1;
nodes = (
"1479 971 LINE",
"1425 969 LINE",
"1296 874 LINE",
"1223 983 OFFCURVE",
"1114 1006 OFFCURVE",
"1071 1006 CURVE SMOOTH",
"791 1006 OFFCURVE",
"592 768 OFFCURVE",
"592 498 CURVE SMOOTH",
"592 264 OFFCURVE",
"739 150 OFFCURVE",
"887 150 CURVE SMOOTH",
"997 150 OFFCURVE",
"1069 186 OFFCURVE",
"1135 248 CURVE",
"1180 150 OFFCURVE",
"1280 123 OFFCURVE",
"1362 123 CURVE SMOOTH",
"1569 123 OFFCURVE",
"1903 305 OFFCURVE",
"1903 723 CURVE SMOOTH",
"1903 1145 OFFCURVE",
"1565 1501 OFFCURVE",
"1069 1501 CURVE SMOOTH",
"516 1501 OFFCURVE",
"135 1102 OFFCURVE",
"135 578 CURVE SMOOTH",
"135 121 OFFCURVE",
"489 -315 OFFCURVE",
"1083 -315 CURVE SMOOTH",
"1296 -315 OFFCURVE",
"1427 -262 OFFCURVE",
"1608 -129 CURVE",
"1548 -29 LINE",
"1423 -143 OFFCURVE",
"1229 -207 OFFCURVE",
"1073 -207 CURVE SMOOTH",
"584 -207 OFFCURVE",
"260 174 OFFCURVE",
"260 588 CURVE SMOOTH",
"260 967 OFFCURVE",
"524 1405 OFFCURVE",
"1069 1405 CURVE SMOOTH",
"1485 1405 OFFCURVE",
"1782 1108 OFFCURVE",
"1782 723 CURVE SMOOTH",
"1782 346 OFFCURVE",
"1501 221 OFFCURVE",
"1382 221 CURVE SMOOTH",
"1339 221 OFFCURVE",
"1292 246 OFFCURVE",
"1292 332 CURVE SMOOTH",
"1292 379 OFFCURVE",
"1319 461 OFFCURVE",
"1325 487 CURVE SMOOTH"
);
},
{
closed = 1;
nodes = (
"1120 330 LINE",
"1096 297 OFFCURVE",
"1036 217 OFFCURVE",
"924 217 CURVE SMOOTH",
"817 217 OFFCURVE",
"780 303 OFFCURVE",
"780 377 CURVE SMOOTH",
"780 432 OFFCURVE",
"786 530 OFFCURVE",
"801 598 CURVE SMOOTH",
"852 823 OFFCURVE",
"956 946 OFFCURVE",
"1067 946 CURVE SMOOTH",
"1153 946 OFFCURVE",
"1227 874 OFFCURVE",
"1245 770 CURVE"
);
}
);
width = 2038;
}
);
unicode = 0040;
},
{
glyphname = ampersand;
layers = (
{
hints = (
{
horizontal = 1;
place = "{-8, 43}";
},
{
horizontal = 1;
place = "{0, -20}";
target = down;
type = TopGhost;
},
{
horizontal = 1;
place = "{1362, -20}";
target = down;
type = TopGhost;
}
);
layerId = UUID0;
paths = (
{
closed = 1;
nodes = (
"1143 856 OFFCURVE",
"1174 838 OFFCURVE",
"1174 803 CURVE SMOOTH",
"1174 793 OFFCURVE",
"1174 784 OFFCURVE",
"1171 772 CURVE SMOOTH",
"1161 649 OFFCURVE",
"1092 500 OFFCURVE",
"1012 377 CURVE",
"895 545 OFFCURVE",
"815 657 OFFCURVE",
"655 819 CURVE",
"801 901 OFFCURVE",
"899 993 OFFCURVE",
"899 1149 CURVE SMOOTH",
"899 1337 OFFCURVE",
"780 1421 OFFCURVE",
"608 1421 CURVE SMOOTH",
"422 1421 OFFCURVE",
"274 1290 OFFCURVE",
"274 1122 CURVE SMOOTH",
"274 971 OFFCURVE",
"346 893 OFFCURVE",
"453 788 CURVE",
"176 657 OFFCURVE",
"123 449 OFFCURVE",
"123 338 CURVE SMOOTH",
"123 184 OFFCURVE",
"219 -31 OFFCURVE",
"510 -31 CURVE SMOOTH",
"606 -31 OFFCURVE",
"745 -10 OFFCURVE",
"938 170 CURVE",
"1069 -31 OFFCURVE",
"1171 -31 OFFCURVE",
"1235 -31 CURVE SMOOTH",
"1421 -31 OFFCURVE",
"1475 98 OFFCURVE",
"1503 215 CURVE",
"1491 225 OFFCURVE",
"1473 227 OFFCURVE",
"1456 227 CURVE",
"1425 150 OFFCURVE",
"1386 96 OFFCURVE",
"1309 96 CURVE SMOOTH",
"1190 96 OFFCURVE",
"1118 238 OFFCURVE",
"1053 315 CURVE",
"1200 528 OFFCURVE",
"1214 604 OFFCURVE",
"1321 772 CURVE SMOOTH",
"1352 821 OFFCURVE",
"1384 854 OFFCURVE",
"1481 866 CURVE",
"1483 877 OFFCURVE",
"1485 885 OFFCURVE",
"1485 893 CURVE SMOOTH",
"1485 899 OFFCURVE",
"1483 907 OFFCURVE",
"1481 913 CURVE",
"1382 909 OFFCURVE",
"1305 907 OFFCURVE",
"1237 907 CURVE SMOOTH",
"1204 907 OFFCURVE",
"1106 911 OFFCURVE",
"1061 913 CURVE",
"1059 907 OFFCURVE",
"1057 897 OFFCURVE",
"1057 889 CURVE SMOOTH",
"1057 881 OFFCURVE",
"1059 874 OFFCURVE",
"1061 866 CURVE"
);
},
{
closed = 1;
nodes = (
"799 137 OFFCURVE",
"694 119 OFFCURVE",
"602 119 CURVE SMOOTH",
"444 119 OFFCURVE",
"317 207 OFFCURVE",
"317 387 CURVE SMOOTH",
"317 563 OFFCURVE",
"410 688 OFFCURVE",
"510 731 CURVE",
"688 545 OFFCURVE",
"778 430 OFFCURVE",
"895 240 CURVE"
);
},
{
closed = 1;
nodes = (
"524 932 OFFCURVE",
"449 1018 OFFCURVE",
"449 1124 CURVE SMOOTH",
"449 1237 OFFCURVE",
"506 1331 OFFCURVE",
"618 1331 CURVE SMOOTH",
"702 1331 OFFCURVE",
"784 1278 OFFCURVE",
"784 1145 CURVE SMOOTH",
"784 999 OFFCURVE",
"678 907 OFFCURVE",
"602 868 CURVE"
);
}
);
width = 1544;
}
);
unicode = 0026;
},
